<svg width="1438" height="1000" viewBox="0 0 1438 1000" fill="none" xmlns="http://www.w3.org/2000/svg">
<g clip-path="url(#clip0)">
<path opacity="0.02" d="M261.696 233.568C261.696 239.445 248.085 246.251 220.864 253.984C223.339 286.155 224.576 313.531 224.576 336.112C224.576 375.088 219.627 394.576 209.728 394.576C204.469 394.576 200.293 391.328 197.2 384.832C194.107 378.336 191.632 367.045 189.776 350.96C187.611 321.264 185.291 292.187 182.816 263.728C168.896 267.44 156.213 270.843 144.768 273.936C133.323 276.72 116 281.36 92.8 287.856C65.5787 359.003 49.4933 394.576 44.544 394.576C39.5947 394.576 34.1813 391.637 28.304 385.76C22.736 379.573 19.952 373.077 19.952 366.272C19.952 363.179 28.768 341.216 46.4 300.384H43.152C36.9653 300.384 31.3973 298.373 26.448 294.352C21.808 290.331 19.488 285.381 19.488 279.504C19.488 273.317 34.8 265.275 65.424 255.376C70.3733 244.24 74.3947 234.187 77.488 225.216C84.6027 207.584 94.5013 183.456 107.184 152.832C119.867 122.208 127.909 102.72 131.312 94.368C134.715 85.7066 140.592 78.4373 148.944 72.56C157.605 66.3733 165.957 63.28 174 63.28C183.589 63.28 192.096 78.592 199.52 109.216C207.253 139.84 213.44 177.733 218.08 222.896C226.741 221.968 234.32 221.504 240.816 221.504C254.736 221.504 261.696 225.525 261.696 233.568ZM109.968 243.312C131.931 237.435 155.131 232.485 179.568 228.464C174 175.568 168.587 135.819 163.328 109.216C149.408 141.077 131.621 185.776 109.968 243.312ZM549.097 284.144C549.097 302.395 539.662 320.181 520.793 337.504C501.924 354.517 477.486 368.283 447.481 378.8C417.476 389.008 386.852 394.112 355.609 394.112C337.358 394.112 320.964 389.008 306.425 378.8C292.196 368.592 285.081 359.157 285.081 350.496C285.081 341.525 287.71 337.04 292.969 337.04C294.206 337.04 300.238 340.443 311.065 347.248C322.201 353.744 333.801 357.147 345.865 357.456C341.534 355.291 337.358 351.269 333.337 345.392C329.625 339.515 327.769 333.947 327.769 328.688C327.769 323.429 331.481 308.736 338.905 284.608C361.796 211.915 373.55 156.08 374.169 117.104H370.457C364.889 117.104 359.166 113.701 353.289 106.896C347.412 99.7813 344.473 94.0586 344.473 89.728C344.473 84.4693 350.969 79.984 363.961 76.272C377.262 72.2507 393.193 70.24 411.753 70.24C455.06 70.24 488.468 76.1173 511.977 87.872C535.486 99.6266 547.241 116.64 547.241 138.912C547.241 157.472 539.353 174.331 523.577 189.488C508.11 204.645 485.374 216.864 455.369 226.144L459.545 226.608C485.529 228.155 506.873 234.496 523.577 245.632C540.59 256.768 549.097 269.605 549.097 284.144ZM505.481 141.232C505.481 131.024 500.222 123.136 489.705 117.568C479.497 111.691 466.969 108.752 452.121 108.752C437.582 108.752 419.796 110.608 398.761 114.32C407.422 123.6 411.753 132.571 411.753 141.232C411.753 149.584 406.34 175.104 395.513 217.792C402.937 213.152 414.537 207.893 430.313 202.016C446.089 195.829 458.462 190.416 467.433 185.776C476.713 181.136 483.364 177.115 487.385 173.712C491.716 170 495.737 165.205 499.449 159.328C503.47 153.451 505.481 147.419 505.481 141.232ZM508.729 282.288C508.729 273.008 497.902 265.275 476.249 259.088C454.905 252.592 433.561 249.344 412.217 249.344C403.865 249.344 396.596 245.013 390.409 236.352C371.54 310.901 359.166 351.269 353.289 357.456C375.252 356.837 398.297 352.971 422.425 345.856C446.553 338.432 466.969 328.843 483.673 317.088C500.377 305.333 508.729 293.733 508.729 282.288ZM735.494 330.08C755.91 311.829 773.388 289.403 787.926 262.8C802.465 235.888 809.734 210.523 809.734 186.704C809.734 162.885 805.094 143.552 795.814 128.704C786.844 113.856 776.172 106.432 763.798 106.432C751.425 106.432 735.958 116.021 717.398 135.2C698.838 154.379 682.134 179.589 667.286 210.832C652.438 241.765 645.014 271.461 645.014 299.92C645.014 316.933 648.726 330.853 656.15 341.68C663.574 352.197 672.236 357.456 682.134 357.456C697.601 357.456 715.388 348.331 735.494 330.08ZM679.35 394.112C658.934 394.112 640.993 384.059 625.526 363.952C610.369 343.845 602.79 323.429 602.79 302.704C602.79 274.555 607.894 245.941 618.102 216.864C628.62 187.787 641.612 162.421 657.078 140.768C672.854 119.115 690.177 101.483 709.046 87.872C727.916 73.952 745.393 66.992 761.478 66.992C787.462 66.992 809.116 78.9013 826.438 102.72C843.761 126.229 852.422 152.832 852.422 182.528C852.422 212.224 844.225 243.467 827.83 276.256C811.436 308.736 789.473 336.576 761.942 359.776C734.721 382.667 707.19 394.112 679.35 394.112ZM940.713 82.304C940.713 77.0453 941.332 73.488 942.569 71.632C943.806 69.4667 946.59 68.384 950.921 68.384C955.561 68.384 961.593 72.56 969.017 80.912C976.441 88.9547 980.153 98.544 980.153 109.68C980.153 120.507 973.812 150.357 961.129 199.232C948.756 248.107 942.569 281.36 942.569 298.992C942.569 316.315 945.817 330.389 952.313 341.216C958.809 352.043 967.161 357.456 977.369 357.456C987.577 357.456 998.868 351.579 1011.24 339.824C1023.61 328.069 1035.06 312.757 1045.58 293.888C1056.4 274.709 1065.37 251.509 1072.49 224.288C1079.91 196.757 1083.62 169.072 1083.62 141.232C1083.62 128.24 1082.85 115.248 1081.3 102.256C1080.07 89.264 1079.45 81.2213 1079.45 78.128C1079.45 71.632 1082.23 68.384 1087.8 68.384C1094.92 68.384 1103.11 73.7973 1112.39 84.624C1121.67 95.1413 1126.31 108.752 1126.31 125.456C1126.31 173.093 1119.35 217.792 1105.43 259.552C1091.51 301.312 1072.8 334.72 1049.29 359.776C1025.78 384.523 1000.72 396.896 974.121 396.896C954.633 396.896 937.62 387.461 923.081 368.592C908.852 349.723 901.737 328.069 901.737 303.632C901.737 279.195 908.233 240.837 921.225 188.56C934.217 135.973 940.713 100.555 940.713 82.304ZM1271.39 108.752L1192.04 112.464C1187.09 112.464 1181.99 109.216 1176.73 102.72C1171.47 96.224 1168.84 89.8827 1168.84 83.696C1168.84 78.128 1177.66 74.5706 1195.29 73.024C1213.23 71.4773 1252.36 70.704 1312.68 70.704C1343.92 70.704 1369.6 74.1066 1389.71 80.912C1410.12 87.7173 1420.33 95.296 1420.33 103.648C1420.33 109.525 1415.23 112.464 1405.02 112.464C1394.81 112.464 1380.58 111.845 1362.33 110.608C1344.08 109.371 1326.6 108.597 1309.9 108.288C1310.83 111.381 1311.29 114.784 1311.29 118.496C1311.29 129.941 1299.23 183.147 1275.1 278.112C1272.62 288.011 1268.91 303.477 1263.96 324.512C1259.01 345.547 1255.3 360.24 1252.83 368.592C1248.49 384.987 1244.63 393.184 1241.23 393.184C1236.59 393.184 1231.33 389.781 1225.45 382.976C1219.88 375.861 1217.1 368.747 1217.1 361.632C1217.1 354.517 1225.45 318.016 1242.15 252.128C1258.86 185.931 1268.6 138.139 1271.39 108.752ZM85.84 582.768C85.84 577.509 86.4587 573.952 87.696 572.096C89.2427 569.931 91.872 568.848 95.584 568.848C99.6053 568.848 106.411 573.024 116 581.376C125.589 589.728 130.693 597.152 131.312 603.648C132.549 614.784 138.427 634.581 148.944 663.04C159.461 691.189 171.525 719.803 185.136 748.88C202.459 728.464 224.267 701.397 250.56 667.68C276.853 633.653 296.341 609.525 309.024 595.296C321.707 581.067 330.832 573.952 336.4 573.952C341.968 573.952 347.845 577.045 354.032 583.232C360.219 589.419 363.312 595.296 363.312 600.864C363.312 606.432 362.693 612.773 361.456 619.888C360.219 627.003 358.053 636.437 354.96 648.192C352.176 659.637 349.547 669.691 347.072 678.352C344.907 686.704 341.195 699.851 335.936 717.792C330.677 735.733 326.656 750.117 323.872 760.944C321.088 771.461 317.84 784.453 314.128 799.92C310.416 815.077 307.323 827.605 304.848 837.504C302.683 847.093 300.363 856.528 297.888 865.808C293.248 883.749 288.763 892.72 284.432 892.72C280.411 892.72 276.389 889.008 272.368 881.584C268.347 874.16 266.336 864.261 266.336 851.888C266.336 839.205 271.595 810.437 282.112 765.584C292.939 720.731 304.539 681.445 316.912 647.728C259.995 718.875 224.885 761.408 211.584 775.328C198.592 789.248 187.765 796.208 179.104 796.208C170.752 796.208 162.864 791.413 155.44 781.824C144.304 765.739 129.301 727.691 110.432 667.68C105.173 700.16 99.296 728 92.8 751.2C86.6133 774.091 82.4373 789.403 80.272 797.136C78.416 804.56 76.7147 810.747 75.168 815.696C73.9307 820.645 72.384 826.523 70.528 833.328C68.672 839.824 66.9707 845.237 65.424 849.568C64.1867 853.899 62.7947 858.693 61.248 863.952C59.7013 868.901 58.3093 872.923 57.072 876.016C56.144 879.109 55.0613 882.048 53.824 884.832C51.3493 890.091 49.4933 892.72 48.256 892.72C44.544 892.72 39.904 888.699 34.336 880.656C28.768 872.613 25.984 864.88 25.984 857.456C25.984 850.032 35.8827 807.344 55.68 729.392C75.7867 651.44 85.84 602.565 85.84 582.768ZM462.637 747.488C445.933 800.384 437.581 832.4 437.581 843.536C437.581 847.248 438.664 850.341 440.829 852.816C443.304 854.981 446.397 856.064 450.109 856.064C485.682 856.064 524.968 850.341 567.965 838.896C581.885 835.184 589.928 833.328 592.093 833.328C596.733 833.328 599.053 836.576 599.053 843.072C599.053 854.208 581.885 865.653 547.549 877.408C513.522 889.163 480.578 895.04 448.717 895.04C434.488 895.04 421.96 890.864 411.133 882.512C400.616 874.16 395.357 863.643 395.357 850.96C395.357 838.277 399.842 816.624 408.813 786C418.093 755.376 427.373 722.741 436.653 688.096C445.933 653.451 450.573 624.219 450.573 600.4C450.573 596.997 451.192 593.44 452.429 589.728C457.688 578.283 491.405 572.56 553.581 572.56C615.757 572.56 646.845 577.045 646.845 586.016C646.845 592.203 640.194 596.379 626.893 598.544C615.757 600.709 600.909 602.72 582.349 604.576C564.098 606.123 551.261 607.36 543.837 608.288C536.413 608.907 518.472 611.691 490.013 616.64V618.032C490.013 639.067 484.29 670.773 472.845 713.152C474.701 713.461 480.888 713.616 491.405 713.616C502.232 713.616 516.616 712.843 534.557 711.296C552.498 709.749 565.954 708.976 574.925 708.976C584.205 708.976 588.845 711.141 588.845 715.472C588.845 726.299 576.162 734.341 550.797 739.6C525.432 744.859 496.045 747.488 462.637 747.488Z" fill="white"/>
</g>
<defs>
<clipPath id="clip0">
<rect width="1438" height="1000" fill="white"/>
</clipPath>
</defs>
</svg>
