<svg width="316" height="184" viewBox="0 0 316 184" fill="none" xmlns="http://www.w3.org/2000/svg">
<g clip-path="url(#clip0)">
<path d="M39.471 151.043C37.667 151.043 36.191 150.797 35.043 150.305C35.043 136.529 36.232 116.89 38.61 91.388L39.717 78.719C38.569 77.325 37.462 75.193 36.396 72.323C35.412 69.453 34.92 67.444 34.92 66.296L35.043 65.927C35.289 65.599 37.339 65.312 41.193 65.066C45.047 64.82 49.27 64.697 53.862 64.697C58.536 64.697 61.078 64.902 61.488 65.312C61.898 65.722 63.866 70.888 67.392 80.81C70.918 90.65 73.542 98.276 75.264 103.688C75.428 104.098 75.633 104.303 75.879 104.303C76.125 104.303 76.535 103.442 77.109 101.72C77.683 99.916 80.061 93.766 84.243 83.27C88.425 72.692 91.213 66.706 92.607 65.312C93.345 64.574 97.322 64.205 104.538 64.205C111.754 64.205 115.362 64.41 115.362 64.82C115.362 66.214 114.788 68.633 113.64 72.077C112.574 75.521 111.672 77.94 110.934 79.334C113.804 105.328 115.239 128.329 115.239 148.337C115.239 149.157 113.558 149.895 110.196 150.551C106.916 151.289 104.21 151.658 102.078 151.658C99.946 151.658 98.88 151.494 98.88 151.166C99.126 147.804 99.249 142.392 99.249 134.93C99.249 127.386 99.044 118.448 98.634 108.116C98.224 95.242 97.732 88.805 97.158 88.805L96.42 89.543C94.78 92.577 92.648 97.702 90.024 104.918C87.482 112.134 85.35 118.612 83.628 124.352L81.045 132.839C80.635 133.741 79.405 134.192 77.355 134.192C75.387 134.192 73.747 134.069 72.435 133.823C71.205 133.577 70.549 133.331 70.467 133.085C70.221 132.183 67.679 125.008 62.841 111.56C58.003 98.03 55.215 90.814 54.477 89.912C54.231 89.42 54.026 89.174 53.862 89.174C53.698 89.174 53.575 89.461 53.493 90.035C52.017 97.497 51.279 108.485 51.279 122.999C51.279 137.431 51.484 145.795 51.894 148.091C49.844 150.059 45.703 151.043 39.471 151.043ZM158.475 141.326L158.352 138.743L158.229 138.497C156.261 141.531 153.76 143.95 150.726 145.754C147.774 147.558 144.863 148.46 141.993 148.46C133.383 148.46 128.463 141.777 127.233 128.411C127.069 126.279 126.987 120.785 126.987 111.929C126.987 103.073 127.356 97.825 128.094 96.185C130.226 94.463 133.67 93.602 138.426 93.602C140.312 93.602 141.46 93.807 141.87 94.217C141.87 94.299 141.829 95.406 141.747 97.538C141.337 103.77 141.132 108.567 141.132 111.929C141.132 115.291 141.173 117.792 141.255 119.432C141.337 120.99 141.378 122.015 141.378 122.507C141.46 122.917 141.583 123.696 141.747 124.844C141.993 125.992 142.321 126.976 142.731 127.796C143.961 130.174 145.847 131.363 148.389 131.363C151.013 131.363 153.309 130.092 155.277 127.55C157.327 124.926 158.311 123.081 158.229 122.015V117.833C158.229 102.827 158.475 94.75 158.967 93.602C159.377 92.864 160.648 92.085 162.78 91.265C164.994 90.445 167.167 90.035 169.299 90.035C171.431 90.035 172.661 90.199 172.989 90.527L172.743 96.308C172.251 108.034 172.005 117.095 172.005 123.491C172.005 129.887 172.169 133.946 172.497 135.668C173.071 139.768 174.178 143.048 175.818 145.508C175.818 146.328 174.137 147.64 170.775 149.444C167.413 151.248 164.543 152.15 162.165 152.15C161.509 152.15 160.771 150.92 159.951 148.46C159.131 146 158.639 143.622 158.475 141.326ZM220.254 131.855C220.254 136.283 218.163 140.26 213.981 143.786C209.881 147.23 205.412 149.69 200.574 151.166C195.818 152.724 191.636 153.503 188.028 153.503C187.618 153.503 187.044 153.011 186.306 152.027C184.256 149.321 183.231 146.164 183.231 142.556V141.695C189.627 141.695 194.506 140.588 197.868 138.374C201.23 136.16 202.911 133.864 202.911 131.486C202.911 129.928 201.886 128.288 199.836 126.566C197.786 124.844 195.531 123.327 193.071 122.015C190.611 120.703 188.356 118.981 186.306 116.849C184.256 114.635 183.231 112.339 183.231 109.961C183.231 104.959 186.347 100.367 192.579 96.185C198.811 92.003 205.453 89.912 212.505 89.912C213.325 89.912 214.391 91.06 215.703 93.356C217.015 95.57 217.712 97.866 217.794 100.244C216.154 100.244 213.694 100.736 210.414 101.72C203.936 103.77 200.697 106.312 200.697 109.346C200.697 111.478 203.895 114.389 210.291 118.079C212.751 119.473 215.006 121.4 217.056 123.86C219.106 126.32 220.172 128.985 220.254 131.855ZM240.727 72.569C243.023 72.569 244.868 73.307 246.262 74.783C247.656 76.259 248.353 78.186 248.353 80.564C248.353 82.942 247.41 84.992 245.524 86.714C243.72 88.354 241.67 89.174 239.374 89.174C237.16 89.174 235.356 88.477 233.962 87.083C232.65 85.607 231.994 83.68 231.994 81.302C231.994 78.924 232.896 76.874 234.7 75.152C236.504 73.43 238.513 72.569 240.727 72.569ZM247 103.196L246.754 123.122C246.754 129.518 246.918 134.233 247.246 137.267C247.656 140.219 248.722 143.007 250.444 145.631C250.444 146.451 248.763 147.763 245.401 149.567C242.039 151.371 239.169 152.273 236.791 152.273C236.053 152.273 235.315 151.043 234.577 148.583C233.839 146.123 233.347 143.786 233.101 141.572C232.937 139.358 232.855 131.896 232.855 119.186C232.855 106.476 233.142 99.547 233.716 98.399C235.602 96.923 238.923 96.185 243.679 96.185C245.565 96.185 246.713 96.431 247.123 96.923L247 103.196ZM286.572 149.567C277.224 149.567 270.295 147.189 265.785 142.433C261.275 137.677 259.02 131.691 259.02 124.475C259.02 114.389 262.382 106.353 269.106 100.367C275.912 94.381 284.194 91.388 293.952 91.388C295.838 91.388 296.945 91.429 297.273 91.511C297.765 91.921 298.011 93.889 298.011 97.415C298.011 100.941 297.519 103.073 296.535 103.811H295.674C289.36 103.811 284.235 105.287 280.299 108.239C278.659 109.469 277.224 111.396 275.994 114.02C274.764 116.644 274.149 119.801 274.149 123.491C274.149 127.181 275.256 130.256 277.47 132.716C279.684 135.094 283.251 136.283 288.171 136.283C292.025 136.283 295.428 135.545 298.38 134.069C298.708 133.905 298.913 133.823 298.995 133.823C299.651 134.479 299.979 136.693 299.979 140.465C299.979 144.237 299.528 146.492 298.626 147.23C295.92 148.788 291.902 149.567 286.572 149.567Z" fill="white"/>
<path d="M139.86 62.86C134.02 62.86 129.6 61.18 126.6 57.82C123.6 54.46 122.1 50.12 122.1 44.8C122.1 40.28 123.1 36.08 125.1 32.2C126.26 29.92 127.72 27.92 129.48 26.2C131.24 24.48 133.62 23.06 136.62 21.94C139.62 20.82 143.02 20.26 146.82 20.26C148.1 20.26 149.24 20.38 150.24 20.62C151.24 20.86 151.74 21.02 151.74 21.1C151.74 23.02 151.6 25.22 151.32 27.7C151.08 30.14 150.94 31.38 150.9 31.42C150.7 31.62 149.86 31.94 148.38 32.38C146.94 32.82 145.86 33.04 145.14 33.04V32.68C145.14 30.88 144.88 29.62 144.36 28.9C143.84 28.18 142.94 27.82 141.66 27.82C138.82 27.82 136.18 29.32 133.74 32.32C131.3 35.28 130.08 39.36 130.08 44.56C130.08 47.32 130.76 49.8 132.12 52C132.84 53.16 133.88 54.1 135.24 54.82C136.64 55.54 138.28 55.9 140.16 55.9C143.92 55.9 147.58 54.16 151.14 50.68C151.3 50.68 151.62 50.94 152.1 51.46C152.62 51.94 153.12 52.6 153.6 53.44C154.6 55.04 155.1 56.02 155.1 56.38C155.1 56.74 154.48 57.42 153.24 58.42C152 59.38 150.12 60.36 147.6 61.36C145.08 62.36 142.5 62.86 139.86 62.86ZM182.017 48.52C182.017 52.32 180.857 55.62 178.537 58.42C176.257 61.18 173.137 62.56 169.177 62.56C165.257 62.56 162.177 61.34 159.937 58.9C157.697 56.46 156.577 53.3 156.577 49.42C156.577 45.5 157.957 42.04 160.717 39.04C163.517 36 167.277 34.48 171.997 34.48C173.917 34.56 174.957 34.68 175.117 34.84C175.277 35 175.357 35.38 175.357 35.98C175.357 36.58 175.297 37.24 175.177 37.96C175.777 37.96 176.537 38.32 177.457 39.04C178.417 39.72 179.197 40.42 179.797 41.14C180.397 41.86 180.917 42.88 181.357 44.2C181.797 45.48 182.017 46.92 182.017 48.52ZM173.257 44.32C172.337 43.72 171.437 43.42 170.557 43.42H170.077C169.997 43.26 169.957 42.92 169.957 42.4C169.957 41.88 170.017 41.38 170.137 40.9C168.497 40.9 166.957 41.64 165.517 43.12C164.117 44.6 163.417 46.66 163.417 49.3C163.417 52.42 164.417 54.58 166.417 55.78C167.177 56.26 168.217 56.5 169.537 56.5C170.897 56.5 172.157 55.88 173.317 54.64C174.517 53.4 175.117 51.56 175.117 49.12C175.117 46.68 174.497 45.08 173.257 44.32ZM200.399 58.72L200.339 57.46L200.279 57.34C199.319 58.82 198.099 60 196.619 60.88C195.179 61.76 193.759 62.2 192.359 62.2C188.159 62.2 185.759 58.94 185.159 52.42C185.079 51.38 185.039 48.7 185.039 44.38C185.039 40.06 185.219 37.5 185.579 36.7C186.619 35.86 188.299 35.44 190.619 35.44C191.539 35.44 192.099 35.54 192.299 35.74C192.299 35.78 192.279 36.32 192.239 37.36C192.039 40.4 191.939 42.74 191.939 44.38C191.939 46.02 191.959 47.24 191.999 48.04C192.039 48.8 192.059 49.3 192.059 49.54C192.099 49.74 192.159 50.12 192.239 50.68C192.359 51.24 192.519 51.72 192.719 52.12C193.319 53.28 194.239 53.86 195.479 53.86C196.759 53.86 197.879 53.24 198.839 52C199.839 50.72 200.319 49.82 200.279 49.3V47.26C200.279 39.94 200.399 36 200.639 35.44C200.839 35.08 201.459 34.7 202.499 34.3C203.579 33.9 204.639 33.7 205.679 33.7C206.719 33.7 207.319 33.78 207.479 33.94L207.359 36.76C207.119 42.48 206.999 46.9 206.999 50.02C206.999 53.14 207.079 55.12 207.239 55.96C207.519 57.96 208.059 59.56 208.859 60.76C208.859 61.16 208.039 61.8 206.399 62.68C204.759 63.56 203.359 64 202.199 64C201.879 64 201.519 63.4 201.119 62.2C200.719 61 200.479 59.84 200.399 58.72ZM219.121 47.5L219.181 49.72V54.28C219.181 58.56 219.101 60.78 218.941 60.94C218.421 61.46 217.521 61.86 216.241 62.14C214.961 62.42 213.901 62.56 213.061 62.56C212.261 62.56 211.861 62.5 211.861 62.38C212.141 60.58 212.281 57.62 212.281 53.5L212.101 40C212.101 37.52 212.201 36.18 212.401 35.98C212.841 35.54 213.601 35.16 214.681 34.84C215.761 34.48 216.761 34.3 217.681 34.3C218.641 34.3 219.121 34.4 219.121 34.6C219.001 35.56 218.941 36.52 218.941 37.48C218.941 38.44 219.001 38.92 219.121 38.92L219.301 38.8C219.501 38.52 219.801 38.18 220.201 37.78C220.601 37.34 221.441 36.78 222.721 36.1C224.041 35.38 225.281 35.02 226.441 35.02C227.641 35.02 228.641 35.24 229.441 35.68C230.281 36.08 230.961 36.58 231.481 37.18C232.001 37.78 232.441 38.64 232.801 39.76C233.201 40.88 233.501 41.92 233.701 42.88C233.901 43.84 234.061 45.12 234.181 46.72C234.301 48.92 234.361 51.72 234.361 55.12L234.181 62.14C234.181 62.42 233.521 62.68 232.201 62.92C230.881 63.2 229.821 63.34 229.021 63.34L227.041 63.04C227.441 59.44 227.641 55.96 227.641 52.6C227.641 49.2 227.421 46.66 226.981 44.98C226.541 43.26 225.661 42.4 224.341 42.4C223.021 42.4 221.941 42.76 221.101 43.48C220.301 44.2 219.781 44.92 219.541 45.64L219.121 46.66V47.5ZM246.172 21.7C246.092 22.62 245.992 25.14 245.872 29.26C248.872 29.26 250.372 29.32 250.372 29.44C250.372 30.8 250.172 32.02 249.772 33.1C249.372 34.14 248.992 34.66 248.632 34.66H245.812C245.732 40.58 245.692 45.4 245.692 49.12C245.692 52.8 245.752 55.26 245.872 56.5C246.112 58.58 246.932 60.28 248.332 61.6C248.332 62.04 247.552 62.68 245.992 63.52C244.472 64.36 243.032 64.78 241.672 64.78C241.552 64.78 241.312 64.58 240.952 64.18C240.632 63.78 240.272 63.12 239.872 62.2C239.512 61.28 239.272 60.38 239.152 59.5C239.072 58.62 239.032 55.48 239.032 50.08C239.032 44.68 239.092 39.58 239.212 34.78L235.852 34.84C235.652 34.64 235.552 33.78 235.552 32.26C235.552 30.7 235.732 29.76 236.092 29.44C236.972 29.4 238.032 29.36 239.272 29.32C239.272 27 239.212 25.5 239.092 24.82C238.972 24.14 238.912 23.74 238.912 23.62C238.912 23.22 239.592 22.76 240.952 22.24C242.352 21.72 243.572 21.46 244.612 21.46C245.652 21.46 246.172 21.54 246.172 21.7ZM251.417 52.9L251.297 39.28C251.297 36.92 251.377 35.66 251.537 35.5C251.977 35.06 252.737 34.68 253.817 34.36C254.897 34 255.897 33.82 256.817 33.82C257.777 33.82 258.257 33.92 258.257 34.12C258.137 35.2 258.077 36.44 258.077 37.84C258.077 39.2 258.117 39.88 258.197 39.88C258.277 39.88 258.357 39.84 258.437 39.76C258.517 39.64 258.637 39.48 258.797 39.28C258.997 39.04 259.377 38.64 259.937 38.08C260.537 37.52 261.177 37.04 261.857 36.64C263.577 35.52 265.417 34.96 267.377 34.96C267.697 35.48 267.857 36.28 267.857 37.36C267.857 39.64 267.577 41.26 267.017 42.22L266.777 42.7L265.997 42.58C263.117 42.58 260.857 43.76 259.217 46.12C258.577 47.08 258.257 47.8 258.257 48.28V53.56C258.257 58.36 258.197 60.82 258.077 60.94C256.957 62.02 254.757 62.56 251.477 62.56C251.157 62.56 250.997 62.5 250.997 62.38C251.277 60.82 251.417 57.66 251.417 52.9ZM291.207 44.26L291.267 60.22C291.267 63.34 290.847 66.12 290.007 68.56C289.207 71 288.207 72.88 287.007 74.2C285.847 75.52 284.507 76.6 282.987 77.44C280.507 78.84 277.987 79.54 275.427 79.54C275.307 79.54 275.067 79.24 274.707 78.64C274.347 78.04 274.007 77.22 273.687 76.18C273.367 75.18 273.207 74.24 273.207 73.36C274.727 73.36 276.247 73.06 277.767 72.46C279.287 71.9 280.347 71.28 280.947 70.6C281.547 69.96 282.147 69.14 282.747 68.14C283.987 66.18 284.607 63 284.607 58.6L284.547 56.86C284.547 56.62 284.507 56.5 284.427 56.5C284.347 56.5 284.267 56.56 284.187 56.68C284.107 56.8 284.007 56.96 283.887 57.16C283.767 57.32 283.467 57.64 282.987 58.12C282.547 58.56 282.067 58.96 281.547 59.32C280.147 60.28 278.727 60.76 277.287 60.76C275.887 60.76 274.767 60.58 273.927 60.22C273.127 59.86 272.447 59.4 271.887 58.84C271.367 58.28 270.927 57.5 270.567 56.5C270.207 55.46 269.927 54.5 269.727 53.62C269.527 52.74 269.387 51.54 269.307 50.02C269.147 47.9 269.067 45.7 269.067 43.42C269.067 40.26 269.227 37.68 269.547 35.68L269.727 34.84C269.727 34.56 270.327 34.28 271.527 34C272.767 33.72 273.787 33.58 274.587 33.58L276.507 33.88C276.067 37.84 275.847 41.18 275.847 43.9C275.847 46.62 276.127 48.88 276.687 50.68C277.247 52.48 278.187 53.38 279.507 53.38C280.827 53.38 281.867 53 282.627 52.24C283.427 51.44 283.927 50.66 284.127 49.9L284.427 48.76C284.347 46.24 284.307 43.54 284.307 40.66C284.307 37.74 284.407 36.18 284.607 35.98C285.127 35.46 286.027 35.06 287.307 34.78C288.627 34.5 289.687 34.36 290.487 34.36C291.287 34.36 291.687 34.42 291.687 34.54C291.367 36.42 291.207 39.66 291.207 44.26Z" fill="#84DCC6"/>
</g>
<defs>
<clipPath id="clip0">
<rect width="316" height="184" fill="white"/>
</clipPath>
</defs>
</svg>
