<svg width="1438" height="854" viewBox="0 0 1438 854" fill="none" xmlns="http://www.w3.org/2000/svg">
<g clip-path="url(#clip0)">
<rect width="1440" height="854" transform="translate(-2)" fill="#1E1E24"/>
<path opacity="0.01" d="M283.5 143.5C283.5 179.5 266.167 210 231.5 235C197.167 260 151.667 278 95 289C70.6667 371.333 56.1667 412.5 51.5 412.5C46.8333 412.5 41.3333 408.833 35 401.5C28.6667 393.833 25.5 386.333 25.5 379C25.5 371.333 30.3333 351.333 40 319C70 219.333 85.6667 149.833 87 110.5C79 103.167 75 96.5 75 90.5C75 82.1667 86.3333 74.1667 109 66.5C131.667 58.8333 153.333 55 174 55C206 55 232.167 63.1667 252.5 79.5C273.167 95.8333 283.5 117.167 283.5 143.5ZM239.5 146.5C239.5 131.833 233.833 119.833 222.5 110.5C211.5 100.833 198.167 96 182.5 96C166.833 96 147.833 101 125.5 111C128.833 118.333 130.5 125.167 130.5 131.5C130.5 150.167 122.333 189.667 106 250C146 239.333 178.167 224.667 202.5 206C227.167 187 239.5 167.167 239.5 146.5ZM445.484 342.5C467.484 322.833 486.318 298.667 501.984 270C517.651 241 525.484 213.667 525.484 188C525.484 162.333 520.484 141.5 510.484 125.5C500.818 109.5 489.318 101.5 475.984 101.5C462.651 101.5 445.984 111.833 425.984 132.5C405.984 153.167 387.984 180.333 371.984 214C355.984 247.333 347.984 279.333 347.984 310C347.984 328.333 351.984 343.333 359.984 355C367.984 366.333 377.318 372 387.984 372C404.651 372 423.818 362.167 445.484 342.5ZM384.984 411.5C362.984 411.5 343.651 400.667 326.984 379C310.651 357.333 302.484 335.333 302.484 313C302.484 282.667 307.984 251.833 318.984 220.5C330.318 189.167 344.318 161.833 360.984 138.5C377.984 115.167 396.651 96.1667 416.984 81.5C437.318 66.5 456.151 59 473.484 59C501.484 59 524.818 71.8333 543.484 97.5C562.151 122.833 571.484 151.5 571.484 183.5C571.484 215.5 562.651 249.167 544.984 284.5C527.318 319.5 503.651 349.5 473.984 374.5C444.651 399.167 414.984 411.5 384.984 411.5ZM632.125 412C627.125 412 621.458 408.333 615.125 401C608.792 393.667 605.625 386.333 605.625 379C605.625 371.333 614.792 335.167 633.125 270.5C651.458 205.833 661.958 156.667 664.625 123C660.292 120.333 656.458 116.167 653.125 110.5C649.792 104.833 648.125 99.8333 648.125 95.5C648.125 87.8333 659.458 80 682.125 72C704.792 63.6667 729.792 59.5 757.125 59.5C784.792 59.5 808.625 66.1667 828.625 79.5C848.958 92.5 859.125 111 859.125 135C859.125 151.333 854.458 166.667 845.125 181C836.125 195 824.958 206.5 811.625 215.5C798.625 224.5 785.625 232.5 772.625 239.5C759.625 246.5 748.458 252.333 739.125 257C730.125 261.333 725.625 264.5 725.625 266.5C725.625 273.833 731.292 283.333 742.625 295C754.292 306.667 762.458 314.667 767.125 319C771.792 323.333 777.958 329.167 785.625 336.5C793.292 343.5 800.458 349.833 807.125 355.5C814.125 361.167 819.625 365.833 823.625 369.5C827.958 373.167 832.292 377 836.625 381C844.958 388.667 849.125 394.833 849.125 399.5C849.125 407.5 843.625 411.5 832.625 411.5C812.625 411.5 784.125 394.167 747.125 359.5C710.125 324.5 687.458 294.833 679.125 270.5C663.458 322.5 654.458 352.667 652.125 361C649.792 369 647.125 377.333 644.125 386C638.792 403.333 634.792 412 632.125 412ZM707.625 136.5C707.625 158.167 700.625 194 686.625 244C692.292 239.667 703.125 233.333 719.125 225C735.125 216.333 749.458 208.5 762.125 201.5C775.125 194.167 786.958 184.5 797.625 172.5C808.292 160.5 813.625 148 813.625 135C813.625 114.333 795.625 104 759.625 104C743.292 104 724.292 108.167 702.625 116.5C705.958 123.833 707.625 130.5 707.625 136.5ZM1016.12 104L930.617 108C925.284 108 919.784 104.5 914.117 97.5C908.451 90.5 905.617 83.6667 905.617 77C905.617 71 915.117 67.1666 934.117 65.5C953.451 63.8333 995.617 63 1060.62 63C1094.28 63 1121.95 66.6666 1143.62 74C1165.62 81.3333 1176.62 89.5 1176.62 98.5C1176.62 104.833 1171.12 108 1160.12 108C1149.12 108 1133.78 107.333 1114.12 106C1094.45 104.667 1075.62 103.833 1057.62 103.5C1058.62 106.833 1059.12 110.5 1059.12 114.5C1059.12 126.833 1046.12 184.167 1020.12 286.5C1017.45 297.167 1013.45 313.833 1008.12 336.5C1002.78 359.167 998.784 375 996.117 384C991.451 401.667 987.284 410.5 983.617 410.5C978.617 410.5 972.951 406.833 966.617 399.5C960.617 391.833 957.617 384.167 957.617 376.5C957.617 368.833 966.617 329.5 984.617 258.5C1002.62 187.167 1013.12 135.667 1016.12 104ZM1240.2 263.5H1239.2C1238.53 266.833 1235.2 280.167 1229.2 303.5C1223.53 326.833 1219.86 342.167 1218.2 349.5C1216.53 356.5 1215.03 362.167 1213.7 366.5C1212.7 370.833 1211.53 375.833 1210.2 381.5C1208.86 386.833 1207.53 391.167 1206.2 394.5C1205.2 397.5 1204.2 400.5 1203.2 403.5C1201.2 409.167 1199.2 412 1197.2 412C1192.86 412 1187.2 407.333 1180.2 398C1173.2 388.333 1169.7 380.5 1169.7 374.5C1169.7 368.5 1179.2 326.833 1198.2 249.5C1217.53 172.167 1227.53 120.667 1228.2 95C1228.2 90 1229.36 86 1231.7 83C1235.03 76 1244.86 71 1261.2 68C1277.86 65 1302.03 63.5 1333.7 63.5C1365.7 63.5 1390.7 65.1666 1408.7 68.5C1427.03 71.8333 1436.2 76.5 1436.2 82.5C1436.2 86.5 1433.36 89.3333 1427.7 91C1422.03 92.6666 1417.03 94 1412.7 95C1408.36 95.6667 1402.7 96.5 1395.7 97.5C1388.7 98.1667 1382.2 98.8333 1376.2 99.5C1370.2 99.8333 1362.36 100.5 1352.7 101.5C1343.36 102.5 1334.7 103.5 1326.7 104.5C1318.7 105.167 1307.86 106.333 1294.2 108C1280.53 109.667 1271.7 110.667 1267.7 111C1268.03 112 1268.2 113.5 1268.2 115.5C1268.2 131.167 1261.7 167.167 1248.7 223.5C1269.36 224.5 1291.53 224 1315.2 222C1339.2 220 1353.86 219 1359.2 219C1371.86 219 1378.2 221.667 1378.2 227C1378.2 237.333 1363.7 246 1334.7 253C1306.03 260 1274.53 263.5 1240.2 263.5ZM174 842.5C196 822.833 214.833 798.667 230.5 770C246.167 741 254 713.667 254 688C254 662.333 249 641.5 239 625.5C229.333 609.5 217.833 601.5 204.5 601.5C191.167 601.5 174.5 611.833 154.5 632.5C134.5 653.167 116.5 680.333 100.5 714C84.5 747.333 76.5 779.333 76.5 810C76.5 828.333 80.5 843.333 88.5 855C96.5 866.333 105.833 872 116.5 872C133.167 872 152.333 862.167 174 842.5ZM113.5 911.5C91.5 911.5 72.1667 900.667 55.5 879C39.1667 857.333 31 835.333 31 813C31 782.667 36.5 751.833 47.5 720.5C58.8333 689.167 72.8333 661.833 89.5 638.5C106.5 615.167 125.167 596.167 145.5 581.5C165.833 566.5 184.667 559 202 559C230 559 253.333 571.833 272 597.5C290.667 622.833 300 651.5 300 683.5C300 715.5 291.167 749.167 273.5 784.5C255.833 819.5 232.167 849.5 202.5 874.5C173.167 899.167 143.5 911.5 113.5 911.5ZM410.141 572.5C410.141 567.167 410.807 563.333 412.141 561C413.807 558.667 416.974 557.5 421.641 557.5C426.641 557.5 432.807 561.667 440.141 570C447.474 578.333 451.141 587.167 451.141 596.5C451.141 619.833 436.807 678.833 408.141 773.5C393.807 819.5 386.641 847 386.641 856C386.641 865 390.974 869.5 399.641 869.5C437.307 869.5 478.641 863.333 523.641 851C537.974 847 546.474 845 549.141 845C552.141 845 554.141 845.667 555.141 847C556.141 848 556.641 850.167 556.641 853.5C556.641 867.5 539.474 880.667 505.141 893C471.141 905.333 436.474 911.5 401.141 911.5C385.141 911.5 371.141 906.833 359.141 897.5C347.474 888.167 341.641 877.167 341.641 864.5C341.641 851.5 352.974 805.333 375.641 726C398.641 646.667 410.141 595.5 410.141 572.5ZM643.09 910.5C639.09 910.5 633.757 906.5 627.09 898.5C620.757 890.5 617.59 883.167 617.59 876.5C617.59 869.833 627.423 823.333 647.09 737C667.09 650.333 677.257 596.667 677.59 576C677.59 570.333 678.257 566.5 679.59 564.5C681.257 562.167 684.423 561 689.09 561C694.09 561 700.423 566.167 708.09 576.5C716.09 586.833 720.09 598 720.09 610C720.09 621.667 708.09 676.333 684.09 774C681.757 783 678.59 796 674.59 813C670.59 829.667 667.423 842.5 665.09 851.5C662.757 860.5 660.257 870.333 657.59 881C651.923 900.667 647.09 910.5 643.09 910.5ZM908.375 842.5C930.375 822.833 949.208 798.667 964.875 770C980.542 741 988.375 713.667 988.375 688C988.375 662.333 983.375 641.5 973.375 625.5C963.708 609.5 952.208 601.5 938.875 601.5C925.542 601.5 908.875 611.833 888.875 632.5C868.875 653.167 850.875 680.333 834.875 714C818.875 747.333 810.875 779.333 810.875 810C810.875 828.333 814.875 843.333 822.875 855C830.875 866.333 840.208 872 850.875 872C867.542 872 886.708 862.167 908.375 842.5ZM847.875 911.5C825.875 911.5 806.542 900.667 789.875 879C773.542 857.333 765.375 835.333 765.375 813C765.375 782.667 770.875 751.833 781.875 720.5C793.208 689.167 807.208 661.833 823.875 638.5C840.875 615.167 859.542 596.167 879.875 581.5C900.208 566.5 919.042 559 936.375 559C964.375 559 987.708 571.833 1006.38 597.5C1025.04 622.833 1034.38 651.5 1034.38 683.5C1034.38 715.5 1025.54 749.167 1007.88 784.5C990.208 819.5 966.542 849.5 936.875 874.5C907.542 899.167 877.875 911.5 847.875 911.5Z" fill="white"/>
</g>
<defs>
<clipPath id="clip0">
<rect width="1440" height="854" fill="white" transform="translate(-2)"/>
</clipPath>
</defs>
</svg>
