<svg width="461" height="481" viewBox="0 0 461 481" fill="none" xmlns="http://www.w3.org/2000/svg">
<path d="M232.934 481C327.258 481 403.722 467.475 403.722 450.792C403.722 434.108 327.258 420.584 232.934 420.584C138.611 420.584 62.1463 434.108 62.1463 450.792C62.1463 467.475 138.611 481 232.934 481Z" fill="#3F3D56"/>
<path d="M90.6011 166.262C90.6011 122.254 155.13 86.5781 234.731 86.5781C314.332 86.5781 378.861 122.254 378.861 166.262" stroke="#3F3D56" stroke-width="2" stroke-miterlimit="10"/>
<path d="M280.05 117.259H162.793C139.601 78.1724 139.601 39.0862 162.793 0H280.05C247.623 39.0862 247.623 78.1724 280.05 117.259Z" fill="#E6E6E6"/>
<path d="M245.618 13.9594H179.544V22.335H245.618V13.9594Z" fill="#E54B4B"/>
<path d="M245.618 41.4128H158.14V44.2047H245.618V41.4128Z" fill="white"/>
<path d="M245.618 55.8374H158.14V58.6292H245.618V55.8374Z" fill="white"/>
<path d="M245.618 70.2621H158.14V73.054H245.618V70.2621Z" fill="white"/>
<path d="M326.865 376.818C326.865 414.006 350.195 444.098 379.027 444.098L326.865 376.818Z" fill="#3F3D56"/>
<path d="M379.027 444.098C379.027 406.492 405.061 376.062 437.234 376.062L379.027 444.098Z" fill="#E54B4B"/>
<path d="M345.764 380.19C345.764 415.514 360.642 444.098 379.027 444.098L345.764 380.19Z" fill="#E54B4B"/>
<path d="M379.027 444.097C379.027 396.045 409.118 357.162 446.305 357.162L379.027 444.097Z" fill="#3F3D56"/>
<path d="M368.053 444.573C368.053 444.573 375.45 444.345 377.679 442.758C379.908 441.17 389.058 439.275 389.611 441.821C390.164 444.367 400.727 454.483 392.376 454.55C384.025 454.618 372.971 453.25 370.746 451.894C368.522 450.539 368.053 444.573 368.053 444.573Z" fill="#A8A8A8"/>
<path opacity="0.2" d="M392.524 453.664C384.173 453.731 373.12 452.363 370.895 451.008C369.201 449.976 368.526 446.272 368.3 444.563C368.143 444.57 368.053 444.573 368.053 444.573C368.053 444.573 368.521 450.539 370.746 451.894C372.971 453.25 384.024 454.618 392.375 454.55C394.786 454.531 395.619 453.673 395.573 452.403C395.238 453.17 394.319 453.65 392.524 453.664Z" fill="black"/>
<path d="M207.867 91.6001C208.546 91.9115 209.363 91.4473 209.763 90.8166C211.288 88.4148 208.481 85.3179 209.089 82.5389C209.576 80.3125 212.106 78.9911 212.623 76.7715C213.126 74.6149 211.577 72.184 212.624 70.2326C213.444 68.7038 215.492 68.3015 217.206 68.5693C218.921 68.8372 220.547 69.5907 222.279 69.6962C224.587 69.8369 226.786 68.8211 229.043 68.3179C231.299 67.8146 234.051 68.0116 235.378 69.9043C237.083 72.3346 235.354 75.7187 235.947 78.6271C236.419 80.9366 238.352 82.8489 238.393 85.2056C238.408 86.0432 236.206 85.3684 236.323 86.198C236.44 87.0275 235.399 86.2971 236.231 86.1986C236.571 86.1153 236.876 85.9262 237.101 85.6585C237.326 85.3907 237.46 85.0583 237.483 84.7094C237.582 84.0184 238.881 83.7881 238.866 83.0903C238.831 81.4549 241.787 82.5576 242.274 80.9959C243.394 77.3554 243.164 73.4333 241.627 69.9484C240.964 68.4607 240.061 67.0527 239.741 65.4556C239.307 63.2872 239.99 60.9593 239.274 58.8671C238.308 56.0475 235.114 54.6101 232.148 54.3182C229.182 54.0262 226.168 54.5488 223.218 54.1183C220.577 53.7327 218.019 52.5877 215.354 52.7536C212.157 52.9527 209.375 55.0128 207.158 57.3259C204.942 59.6391 203.062 62.2995 200.544 64.2811C199.774 64.8114 199.063 65.4235 198.424 66.1068C197.142 67.6692 197.012 69.8949 197.368 71.8842C197.725 73.8736 198.501 75.7712 198.829 77.7655C199.137 79.6397 199.042 81.5545 199.174 83.4492C199.307 85.3439 199.7 87.2961 200.841 88.8144C201.298 89.4346 201.891 89.9424 202.573 90.2991C203.256 90.6558 204.011 90.852 204.781 90.8728C205.315 90.8851 205.765 90.4057 206.304 90.5307C206.977 90.687 207.27 91.3262 207.867 91.6001Z" fill="#2F2E41"/>
<path d="M185.048 229.292L187.025 241.441L190.98 236.072L188.72 227.879L185.048 229.292Z" fill="#A0616A"/>
<path d="M187.59 137.475L184.476 145.681C184.476 145.681 181.375 187.48 181.375 190.588C181.375 193.695 183.635 233.53 184.483 235.225C184.483 235.225 188.155 229.857 192.958 230.705C197.761 231.552 195.783 216.579 195.783 216.579L200.304 179.57L199.456 160.924L187.59 137.475Z" fill="#575A89"/>
<path opacity="0.1" d="M187.59 137.475L184.476 145.681C184.476 145.681 181.375 187.48 181.375 190.588C181.375 193.695 183.635 233.53 184.483 235.225C184.483 235.225 188.155 229.857 192.958 230.705C197.761 231.552 195.783 216.579 195.783 216.579L200.304 179.57L199.456 160.924L187.59 137.475Z" fill="black"/>
<path d="M206.8 92.2721C206.8 92.2721 216.123 116.003 210.755 120.524C205.387 125.044 240.702 112.896 240.702 112.896L239.855 109.788C239.855 109.788 228.271 105.268 233.922 92.2721C239.572 79.2764 206.8 92.2721 206.8 92.2721Z" fill="#A0616A"/>
<path opacity="0.1" d="M206.8 92.2721C206.8 92.2721 216.123 116.003 210.755 120.524C205.387 125.044 240.702 112.896 240.702 112.896L239.855 109.788C239.855 109.788 228.271 105.268 233.922 92.2721C239.572 79.2764 206.8 92.2721 206.8 92.2721Z" fill="black"/>
<path d="M192.11 409.255C192.11 409.255 188.155 408.125 185.895 410.951C183.635 413.776 175.159 420.839 175.159 420.839C175.159 420.839 158.773 419.144 156.513 427.337C154.253 435.53 182.222 435.53 189.003 433.552C195.783 431.574 197.196 433.552 197.196 433.552C197.196 433.552 218.102 435.247 218.102 431.857C218.102 428.467 216.124 416.883 216.124 416.883L192.11 409.255Z" fill="#575A89"/>
<path d="M258.501 428.183L254.828 439.484C254.828 439.484 243.81 454.74 250.025 457.847C256.24 460.955 278.276 464.062 278.276 455.87V440.331C278.276 440.331 276.016 429.313 273.756 428.183C271.496 427.053 258.501 428.183 258.501 428.183Z" fill="#575A89"/>
<path d="M196.111 225.158C196.111 225.158 184.2 235.507 184.483 236.92C184.765 238.333 190.415 329.02 190.415 329.02L193.523 387.783C193.523 387.783 189.568 401.626 191.545 404.733C193.523 407.841 188.72 408.689 188.72 408.689C188.72 408.689 209.061 427.052 217.537 419.142L225.447 316.589L247.2 391.173C247.2 391.173 250.873 430.725 255.11 430.725C259.348 430.725 276.581 431.572 276.299 429.312C276.016 427.052 277.146 409.819 275.169 399.648C273.191 389.478 259.913 308.961 259.913 308.961C259.913 308.961 258.772 239.936 261.744 233.484C264.716 227.032 260.196 220.252 260.196 220.252L240.42 212.624L216.689 215.449L196.111 225.158Z" fill="#2F2E41"/>
<path d="M220.079 101.878C231.001 101.878 239.855 93.0236 239.855 82.1015C239.855 71.1795 231.001 62.3254 220.079 62.3254C209.158 62.3254 200.304 71.1795 200.304 82.1015C200.304 93.0236 209.158 101.878 220.079 101.878Z" fill="#A0616A"/>
<path d="M268.106 124.761C267.129 121.997 265.482 119.518 263.313 117.546C261.144 115.574 258.52 114.171 255.675 113.461C249.977 112.027 244.403 110.138 239.007 107.81C239.007 107.81 218.949 117.416 214.994 117.416C211.039 117.416 211.039 114.873 211.039 114.873C211.039 114.873 200.868 125.609 195.5 126.739C190.133 127.869 182.222 141.147 185.048 148.493C186.966 153.202 189.745 157.513 193.24 161.206C193.24 161.206 192.11 200.758 195.783 208.104C195.783 208.104 186.743 225.337 195.218 226.467C203.693 227.597 236.182 223.642 241.832 227.597C247.483 231.552 257.936 226.75 259.348 232.117C260.761 237.485 263.868 238.615 263.868 238.615C263.868 238.615 268.671 230.987 265.846 226.467C263.021 221.947 268.106 124.761 268.106 124.761Z" fill="#575A89"/>
<path d="M247.2 230.987L242.68 233.812C242.68 233.812 247.483 250.481 249.46 251.046C251.438 251.611 256.093 236.793 256.093 236.793L247.2 230.987Z" fill="#A0616A"/>
<path d="M204.477 89.6224C205.156 89.9338 205.973 89.4696 206.373 88.8389C207.898 86.4372 205.091 83.3402 205.699 80.5612C206.186 78.3349 208.716 77.0134 209.233 74.7939C209.736 72.6373 208.187 70.2064 209.234 68.255C210.054 66.7262 212.102 66.3239 213.816 66.5917C215.53 66.8596 217.157 67.6131 218.889 67.7186C221.197 67.8593 223.396 66.8435 225.652 66.3403C227.909 65.837 230.661 66.034 231.988 67.9267C233.693 70.357 231.964 73.7411 232.557 76.6495C233.028 78.959 238.397 80.58 238.884 79.0183C240.004 75.3778 239.774 71.4557 238.237 67.9708C237.574 66.4831 236.671 65.0751 236.351 63.478C235.917 61.3096 236.6 58.9818 235.884 56.8895C234.918 54.0699 231.724 52.6326 228.758 52.3406C225.792 52.0487 222.777 52.5712 219.828 52.1408C217.187 51.7552 214.629 50.6102 211.964 50.7761C208.767 50.9751 205.984 53.0353 203.768 55.3484C201.552 57.6615 199.671 60.322 197.154 62.3036C196.384 62.8339 195.673 63.446 195.034 64.1292C193.751 65.6916 193.621 67.9173 193.978 69.9066C194.335 71.896 195.111 73.7936 195.439 75.7879C195.746 77.6621 195.651 79.5769 195.784 81.4716C195.917 83.3663 196.31 85.3184 197.451 86.8367C197.908 87.4569 198.5 87.9647 199.183 88.3214C199.866 88.6782 200.621 88.8744 201.391 88.8952C201.925 88.9075 202.375 88.4281 202.914 88.5531C203.587 88.7093 203.88 89.3485 204.477 89.6224Z" fill="#2F2E41"/>
<path opacity="0.1" d="M256.947 129.705L266.128 124.761C266.128 124.761 288.447 177.875 283.079 192.565C277.711 207.256 257.088 237.486 257.088 237.486C257.088 237.486 240.702 234.095 242.397 230.705C244.092 227.315 255.11 205.561 255.958 202.736C256.805 199.911 262.456 181.547 259.913 179.57C257.371 177.592 252.427 131.683 252.427 131.683L256.947 129.705Z" fill="black"/>
<path d="M256.805 121.654L268.106 124.761C268.106 124.761 290.424 177.874 285.057 192.565C279.689 207.256 259.066 237.485 259.066 237.485C259.066 237.485 242.68 234.095 244.375 230.705C246.07 227.314 257.088 205.561 257.935 202.736C258.783 199.91 264.433 181.547 261.891 179.569C259.348 177.592 247.2 128.717 247.2 128.717L256.805 121.654Z" fill="#575A89"/>
<path d="M378.861 166.262C378.861 212.401 314.332 249.804 234.731 249.804C155.13 249.804 90.6011 212.401 90.6011 166.262" stroke="#3F3D56" stroke-width="2" stroke-miterlimit="10"/>
<path d="M352.645 250.99C320.428 268.366 278.391 278.881 232.407 278.881C188.317 278.881 147.857 269.215 116.201 253.103" stroke="#3F3D56" stroke-width="2" stroke-miterlimit="10"/>
<path d="M306.709 65.0079C368.021 81.1232 411.687 116.571 415.748 158.321" stroke="#3F3D56" stroke-width="2" stroke-miterlimit="10"/>
<path d="M57.6051 131.185C67.9358 112.197 86.8081 95.4872 111.535 82.6497" stroke="#3F3D56" stroke-width="2" stroke-miterlimit="10"/>
<path d="M184.357 334.439H301.615C324.806 295.352 324.806 256.266 301.615 217.18H184.357C216.785 256.266 216.785 295.352 184.357 334.439Z" fill="#F2F2F2"/>
<path d="M289.229 239.515H223.155V247.891H289.229V239.515Z" fill="#E54B4B"/>
<path d="M305.514 264.641H218.037V267.433H305.514V264.641Z" fill="white"/>
<path d="M305.514 279.066H218.037V281.858H305.514V279.066Z" fill="white"/>
<path d="M134.651 254.848H17.3939C-5.79796 215.762 -5.79796 176.676 17.3939 137.59H134.651C102.224 176.676 102.224 215.762 134.651 254.848Z" fill="#F2F2F2"/>
<path d="M96.4962 151.549H30.4225V159.925H96.4962V151.549Z" fill="#E54B4B"/>
<path d="M103.476 174.815H15.9979V177.607H103.476V174.815Z" fill="white"/>
<path d="M103.476 189.24H15.9979V192.031H103.476V189.24Z" fill="white"/>
<path d="M103.476 203.664H15.9979V206.456H103.476V203.664Z" fill="white"/>
<path d="M103.476 218.089H15.9979V220.881H103.476V218.089Z" fill="white"/>
<path d="M326.348 200.836H443.606C466.798 161.749 466.798 122.663 443.606 83.5764H326.348C358.776 122.663 358.776 161.749 326.348 200.836Z" fill="#F2F2F2"/>
<path d="M429.825 95.2094H363.751V103.584H429.825V95.2094Z" fill="#E54B4B"/>
<path d="M444.249 118.475H356.772V121.266H444.249V118.475Z" fill="white"/>
</svg>
