<svg width="300" height="173" viewBox="0 0 300 173" fill="none" xmlns="http://www.w3.org/2000/svg">
<g clip-path="url(#clip0)">
<path d="M150 172.661C232.843 172.661 300 168.798 300 164.034C300 159.269 232.843 155.407 150 155.407C67.1573 155.407 0 159.269 0 164.034C0 168.798 67.1573 172.661 150 172.661Z" fill="#F2F2F2"/>
<path d="M273.115 0H47.7727V7.16914H273.115V0Z" fill="#F2F2F2"/>
<path d="M53.8028 5.33437C54.8275 5.33437 55.6582 4.50367 55.6582 3.47895C55.6582 2.45423 54.8275 1.62354 53.8028 1.62354C52.7781 1.62354 51.9474 2.45423 51.9474 3.47895C51.9474 4.50367 52.7781 5.33437 53.8028 5.33437Z" fill="#444140"/>
<path d="M59.8329 5.33437C60.8576 5.33437 61.6883 4.50367 61.6883 3.47895C61.6883 2.45423 60.8576 1.62354 59.8329 1.62354C58.8082 1.62354 57.9775 2.45423 57.9775 3.47895C57.9775 4.50367 58.8082 5.33437 59.8329 5.33437Z" fill="#444140"/>
<path d="M65.863 5.33437C66.8877 5.33437 67.7184 4.50367 67.7184 3.47895C67.7184 2.45423 66.8877 1.62354 65.863 1.62354C64.8383 1.62354 64.0076 2.45423 64.0076 3.47895C64.0076 4.50367 64.8383 5.33437 65.863 5.33437Z" fill="#444140"/>
<path d="M47.9323 113.386L47.7726 113.523V161.885H273.115V76.9363L270.43 77.14L47.9323 113.386Z" fill="#3F3D56"/>
<path d="M126.962 47.9565H64.0352V50.4939H126.962V47.9565Z" fill="#3F3D56"/>
<path d="M126.962 53.5388H64.0352V56.0762H126.962V53.5388Z" fill="#3F3D56"/>
<path d="M85.3492 59.1211H64.0352V61.6585H85.3492V59.1211Z" fill="#3F3D56"/>
<path d="M255.29 118.4H192.363V120.938H255.29V118.4Z" fill="white"/>
<path d="M255.29 123.982H192.363V126.52H255.29V123.982Z" fill="white"/>
<path d="M213.677 129.565H192.363V132.102H213.677V129.565Z" fill="white"/>
<path d="M153.266 159.545C154.633 159.545 155.741 158.437 155.741 157.07C155.741 155.703 154.633 154.595 153.266 154.595C151.899 154.595 150.79 155.703 150.79 157.07C150.79 158.437 151.899 159.545 153.266 159.545Z" fill="#F2F2F2"/>
<path d="M160.444 159.793C161.811 159.793 162.919 158.685 162.919 157.318C162.919 155.951 161.811 154.842 160.444 154.842C159.077 154.842 157.969 155.951 157.969 157.318C157.969 158.685 159.077 159.793 160.444 159.793Z" fill="#F2F2F2"/>
<path d="M167.622 160.04C168.989 160.04 170.098 158.932 170.098 157.565C170.098 156.198 168.989 155.09 167.622 155.09C166.255 155.09 165.147 156.198 165.147 157.565C165.147 158.932 166.255 160.04 167.622 160.04Z" fill="#F2F2F2"/>
<path d="M160.467 159.298C161.56 159.298 162.447 158.411 162.447 157.318C162.447 156.224 161.56 155.337 160.467 155.337C159.373 155.337 158.487 156.224 158.487 157.318C158.487 158.411 159.373 159.298 160.467 159.298Z" fill="#3F3D56"/>
<path d="M106.1 77.0002H84.786V81.8631H106.1V77.0002Z" fill="#3F3D56"/>
<path d="M232.789 142.802H211.475V147.665H232.789V142.802Z" fill="white"/>
<path opacity="0.3" d="M95.5631 94.2017C103.706 94.2017 110.307 87.6006 110.307 79.4577C110.307 71.3147 103.706 64.7136 95.5631 64.7136C87.4202 64.7136 80.8191 71.3147 80.8191 79.4577C80.8191 87.6006 87.4202 94.2017 95.5631 94.2017Z" fill="#444140"/>
<path opacity="0.3" d="M95.5631 89.2871C100.992 89.2871 105.393 84.8863 105.393 79.4577C105.393 74.0292 100.992 69.6284 95.5631 69.6284C90.1345 69.6284 85.7338 74.0292 85.7338 79.4577C85.7338 84.8863 90.1345 89.2871 95.5631 89.2871Z" fill="#444140"/>
<path d="M95.5631 86.2837C99.333 86.2837 102.389 83.2276 102.389 79.4578C102.389 75.6879 99.333 72.6318 95.5631 72.6318C91.7933 72.6318 88.7372 75.6879 88.7372 79.4578C88.7372 83.2276 91.7933 86.2837 95.5631 86.2837Z" fill="#444140"/>
<path opacity="0.3" d="M219.625 57.6614C227.767 57.6614 234.369 51.0603 234.369 42.9174C234.369 34.7745 227.767 28.1733 219.625 28.1733C211.482 28.1733 204.881 34.7745 204.881 42.9174C204.881 51.0603 211.482 57.6614 219.625 57.6614Z" fill="#444140"/>
<path opacity="0.3" d="M219.625 52.7468C225.053 52.7468 229.454 48.3461 229.454 42.9175C229.454 37.4889 225.053 33.0881 219.625 33.0881C214.196 33.0881 209.795 37.4889 209.795 42.9175C209.795 48.3461 214.196 52.7468 219.625 52.7468Z" fill="#444140"/>
<path d="M219.625 49.7434C223.394 49.7434 226.45 46.6874 226.45 42.9175C226.45 39.1476 223.394 36.0916 219.625 36.0916C215.855 36.0916 212.799 39.1476 212.799 42.9175C212.799 46.6874 215.855 49.7434 219.625 49.7434Z" fill="#444140"/>
<path opacity="0.3" d="M222.253 160.004C230.395 160.004 236.997 153.403 236.997 145.26C236.997 137.117 230.395 130.516 222.253 130.516C214.11 130.516 207.509 137.117 207.509 145.26C207.509 153.403 214.11 160.004 222.253 160.004Z" fill="#444140"/>
<path opacity="0.3" d="M222.253 155.089C227.681 155.089 232.082 150.688 232.082 145.26C232.082 139.831 227.681 135.43 222.253 135.43C216.824 135.43 212.423 139.831 212.423 145.26C212.423 150.688 216.824 155.089 222.253 155.089Z" fill="#444140"/>
<path d="M222.253 152.086C226.022 152.086 229.078 149.03 229.078 145.26C229.078 141.49 226.022 138.434 222.253 138.434C218.483 138.434 215.427 141.49 215.427 145.26C215.427 149.03 218.483 152.086 222.253 152.086Z" fill="#444140"/>
<path d="M24.5521 29.8596L30.6205 30.095L30.9231 22.2927L24.8547 22.0574L24.5521 29.8596Z" fill="#444140"/>
<path d="M52.2294 49.3826C52.2294 49.3826 60.6332 45.3674 60.4987 48.8351C60.3642 52.3027 52.0276 54.5841 52.0276 54.5841L52.2294 49.3826Z" fill="#FFB9B9"/>
<path d="M47.6186 78.7235C47.6186 78.7235 51.5834 88.4277 53.0483 95.4303C54.5132 102.433 56.7442 112.07 53.8745 118.904C51.0048 125.739 42.846 145.826 42.762 147.993C42.6779 150.16 43.4608 152.361 41.7269 152.294C39.9931 152.227 30.5579 149.256 30.1748 147.939C29.7918 146.622 33.3939 143.289 33.3939 143.289L42.2888 115.416L33.0084 97.2578L26.3145 124.347L25.0034 158.157C25.0034 158.157 18.5687 156.171 17.6346 157.871C17.6346 157.871 14.7516 153.852 14.3854 152.102C14.0192 150.351 15.7469 116.992 15.7469 116.992C15.7469 116.992 9.84047 78.995 14.6085 79.1799C19.3766 79.3648 38.0525 67.9339 47.6186 78.7235Z" fill="#2F2E41"/>
<path d="M41.7942 150.56C41.7942 150.56 46.1925 160.281 46.6091 160.731C47.0258 161.181 49.8919 165.634 47.7246 165.55C45.5573 165.466 40.4398 163.097 36.6732 159.478C32.9065 155.859 27.9403 149.589 28.3906 149.172C28.8409 148.755 31.9255 147.573 31.9255 147.573L41.7942 150.56Z" fill="#2F2E41"/>
<path d="M24.2205 155.956C24.2205 155.956 24.4859 160.307 25.2856 162.075C26.0853 163.842 25.9844 166.443 23.8171 166.359C21.6498 166.275 16.0485 165.189 16.0485 165.189C16.0485 165.189 15.7159 162.572 16.1661 162.155C16.6164 161.739 18.5351 157.038 17.7186 155.704C16.9021 154.37 24.2205 155.956 24.2205 155.956Z" fill="#2F2E41"/>
<path d="M21.0142 14.7456C21.0142 14.7456 16.3938 21.9463 14.5928 23.6129C12.7917 25.2795 17.8587 28.9489 17.8587 28.9489L26.9278 30.1688C26.9278 30.1688 26.8137 21.9163 27.2808 21.0662C27.7478 20.216 21.0142 14.7456 21.0142 14.7456Z" fill="#FFB9B9"/>
<path d="M28.8969 24.1678C28.8969 24.1678 27.0286 27.5682 25.2948 27.501C23.5609 27.4338 14.5928 23.6131 14.2097 22.2959C13.8267 20.9787 11.2392 31.7312 11.2392 31.7312L33.1836 70.3498L38.5364 66.6504L35.9428 43.976L33.8127 31.7383L28.8969 24.1678Z" fill="#444140"/>
<path d="M13.4003 58.7297C14.2757 60.5609 14.8224 62.4704 14.7466 64.4253C14.7432 64.512 14.7398 64.5987 14.7321 64.6852C14.5245 68.697 13.0466 73.3368 12.5163 76.711C12.1316 79.1314 12.2411 80.8982 13.6576 81.3134C17.0916 82.3148 13.1569 83.0305 26.4428 87.4527C39.7288 91.8749 42.0474 88.0578 42.081 87.1909C42.1146 86.3239 40.1994 79.738 40.6497 79.3214C41.1 78.9047 46.9499 84.775 48.7173 83.9753C50.4848 83.1756 48.919 78.7738 48.919 78.7738C48.919 78.7738 44.9374 69.5031 45.0215 67.3358C45.1055 65.1685 38.9902 54.9468 38.9902 54.9468L34.8308 27.8706C34.8308 27.8706 33.2315 24.3357 31.081 23.8182C28.9305 23.3007 27.1462 24.5339 27.1462 24.5339L30.7448 32.4874L34.5416 46.5262L33.9064 51.7109C33.9064 51.7109 29.4913 42.4233 26.5916 38.838C23.6918 35.2527 17.5093 26.7648 17.5093 26.7648C17.5093 26.7648 16.0659 21.8946 17.1555 20.4391C18.2453 18.9794 12.6104 18.7609 10.2077 24.7452C8.93435 27.917 6.86691 32.6467 5.57178 37.0505C4.4177 40.9518 3.87255 44.5989 5.01591 46.6836C6.76341 49.8682 11.1593 54.0542 13.4003 58.7297Z" fill="#575A89"/>
<path opacity="0.1" d="M5.01591 46.6838C6.76343 49.8684 11.1593 54.0544 13.4003 58.7299C13.9856 56.6211 14.6997 54.4392 14.6997 54.4392C14.6997 54.4392 17.4385 39.7856 9.33726 35.9986C7.99493 35.8688 6.65241 36.2439 5.57178 37.0507C4.4177 40.952 3.87255 44.5991 5.01591 46.6838Z" fill="black"/>
<path d="M37.1759 45.7603L44.044 47.763L53.5801 48.1328L54.5612 56.419L38.8894 57.5477C38.8894 57.5477 34.975 46.5431 37.1759 45.7603Z" fill="#575A89"/>
<path d="M25.9765 73.6208C25.9765 73.6208 35.1647 75.1453 33.0676 77.9102C30.9705 80.6752 22.8309 77.7683 22.8309 77.7683L25.9765 73.6208Z" fill="#FFB9B9"/>
<path opacity="0.1" d="M14.7322 64.6853C14.5245 68.6971 13.0466 73.3369 12.5164 76.7111C15.4434 79.4814 18.2268 81.9248 19.2757 81.9655C21.443 82.0495 24.9275 81.7505 26.2111 82.2344C27.4946 82.7183 28.2475 74.4994 28.2475 74.4994C28.2475 74.4994 27.4814 71.865 24.0642 70.4302C21.7576 69.4595 17.3362 66.8266 14.7322 64.6853Z" fill="black"/>
<path d="M9.43812 33.3976C9.43812 33.3976 2.10293 32.245 2.4992 44.4155C2.89547 56.5859 1.726 64.3546 4.67617 66.6395C7.62634 68.9245 17.2093 79.2806 19.3766 79.3647C21.5439 79.4487 25.0284 79.1497 26.3119 79.6336C27.5955 80.1175 28.3483 71.8986 28.3483 71.8986C28.3483 71.8986 27.5823 69.2642 24.165 67.8294C20.7478 66.3945 12.6969 61.3071 12.7642 59.5733C12.8314 57.8394 14.8006 51.8382 14.8006 51.8382C14.8006 51.8382 17.5394 37.1847 9.43812 33.3976Z" fill="#575A89"/>
<path d="M27.4824 25.4081C32.753 25.4081 37.0257 21.1354 37.0257 15.8648C37.0257 10.5942 32.753 6.32153 27.4824 6.32153C22.2118 6.32153 17.9391 10.5942 17.9391 15.8648C17.9391 21.1354 22.2118 25.4081 27.4824 25.4081Z" fill="#FFB9B9"/>
<path d="M33.9082 2.18662C34.1383 2.38494 34.414 2.52327 34.7106 2.58929C34.8595 2.61583 35.0128 2.58239 35.1371 2.49628C35.2614 2.41016 35.3466 2.27836 35.3741 2.12964C35.5925 2.58245 35.8388 3.06505 36.2846 3.2974C36.7304 3.52974 37.4197 3.33491 37.484 2.83633C37.549 3.21489 37.7165 3.56841 37.9682 3.85856C38.2448 4.12227 38.7464 4.18883 38.9879 3.89265C38.7926 4.95953 38.9131 6.0567 38.8518 7.13956C38.7905 8.22242 38.5018 9.37042 37.6836 10.0825C36.4905 11.1209 34.6963 10.8646 33.1268 10.6679C32.8895 10.6181 32.6432 10.6316 32.4127 10.707C31.8251 10.9573 31.8517 11.7754 31.8438 12.4141C31.7959 13.5348 31.3523 14.6023 30.5919 15.4269C29.8315 16.2516 28.8035 16.7801 27.6903 16.9185C27.0674 17.0147 26.4317 16.8596 25.9231 16.4872C25.4775 16.1095 25.2499 15.4939 24.7392 15.2102C23.9086 14.7486 22.9013 15.4217 22.294 16.1526C21.6867 16.8834 21.0882 17.7824 20.1475 17.9162C18.9033 18.0931 17.9556 16.8252 17.4907 15.6576C16.8492 14.0212 16.5419 12.2729 16.5869 10.5158C16.6318 8.75874 17.0281 7.02845 17.7523 5.42695C20.3503 -0.236138 29.2249 -1.13187 33.9082 2.18662Z" fill="#2F2E41"/>
<path d="M262.996 153.93C266.357 159.662 273.136 161.931 273.136 161.931C273.136 161.931 274.465 154.907 271.104 149.176C267.743 143.444 260.964 141.175 260.964 141.175C260.964 141.175 259.635 148.199 262.996 153.93Z" fill="#F2F2F2"/>
<path d="M265.093 151.93C270.906 155.149 273.341 161.87 273.341 161.87C273.341 161.87 266.352 163.371 260.539 160.152C254.727 156.933 252.292 150.212 252.292 150.212C252.292 150.212 259.281 148.711 265.093 151.93Z" fill="#444140"/>
</g>
<defs>
<clipPath id="clip0">
<rect width="300" height="172.661" fill="white"/>
</clipPath>
</defs>
</svg>
