<svg width="300" height="156" viewBox="0 0 300 156" fill="none" xmlns="http://www.w3.org/2000/svg">
<g clip-path="url(#clip0)">
<g opacity="0.7">
<path opacity="0.7" d="M228.036 0H71.6555C70.3152 0.00490604 69.0318 0.541813 68.0873 1.49269C67.1428 2.44357 66.6145 3.73058 66.6186 5.07082V112.701C66.6145 114.041 67.1428 115.328 68.0873 116.279C69.0318 117.23 70.3152 117.767 71.6555 117.772H125.44V136.35H122.988C122.651 136.351 122.318 136.419 122.007 136.549C121.697 136.679 121.415 136.869 121.178 137.107C120.941 137.346 120.753 137.63 120.625 137.941C120.497 138.252 120.432 138.586 120.434 138.923V142.65H125.44V144.855H174.252V142.65H179.258V138.923C179.259 138.586 179.194 138.252 179.066 137.941C178.938 137.63 178.751 137.346 178.513 137.107C178.276 136.869 177.994 136.679 177.684 136.549C177.373 136.419 177.04 136.351 176.704 136.35H174.397V136.19H174.239V117.772H228.036C229.376 117.767 230.659 117.23 231.604 116.279C232.548 115.328 233.077 114.041 233.073 112.701V5.07082C233.077 3.73058 232.548 2.44357 231.604 1.49269C230.659 0.541813 229.376 0.00490604 228.036 0Z" fill="url(#paint0_linear)"/>
</g>
<path d="M174.088 114.572H125.912V142.984H174.088V114.572Z" fill="#BDBDBD"/>
<g opacity="0.1">
<path opacity="0.1" d="M126.86 117.352H173.236C173.795 114.921 174.242 113.337 174.242 113.337H125.758C125.758 113.337 126.255 114.915 126.86 117.352Z" fill="black"/>
</g>
<path d="M72.8259 0.926514H227.174C228.493 0.926514 229.757 1.45035 230.69 2.38278C231.622 3.31521 232.146 4.57986 232.146 5.89851V100.984H67.8539V5.89851C67.8539 4.57986 68.3778 3.31521 69.3102 2.38278C70.2426 1.45035 71.5073 0.926514 72.8259 0.926514Z" fill="#535461"/>
<path d="M227.174 116.425H72.8259C71.5073 116.425 70.2426 115.901 69.3102 114.969C68.3778 114.036 67.8539 112.772 67.8539 111.453V100.984H232.146V111.453C232.146 112.772 231.622 114.036 230.69 114.969C229.757 115.901 228.493 116.425 227.174 116.425Z" fill="#BDBDBD"/>
<path d="M150 111.484C151.535 111.484 152.779 110.24 152.779 108.705C152.779 107.17 151.535 105.925 150 105.925C148.465 105.925 147.221 107.17 147.221 108.705C147.221 110.24 148.465 111.484 150 111.484Z" fill="#535461"/>
<path d="M123.494 134.646H176.506C177.175 134.646 177.817 134.911 178.29 135.384C178.763 135.858 179.029 136.499 179.029 137.169V140.822H120.971V137.169C120.971 136.837 121.036 136.509 121.163 136.203C121.29 135.897 121.476 135.619 121.71 135.384C121.944 135.15 122.222 134.964 122.528 134.838C122.835 134.711 123.163 134.646 123.494 134.646Z" fill="#BDBDBD"/>
<g opacity="0.5">
<path opacity="0.5" d="M199.566 21.9631H100.434C99.6669 21.9631 99.0447 22.5853 99.0447 23.3528V78.5575C99.0447 79.325 99.6669 79.9472 100.434 79.9472H199.566C200.333 79.9472 200.955 79.325 200.955 78.5575V23.3528C200.955 22.5853 200.333 21.9631 199.566 21.9631Z" fill="url(#paint1_linear)"/>
</g>
<path d="M198.259 22.3894H101.741C100.973 22.3894 100.351 23.0116 100.351 23.7791V77.8102C100.351 78.5777 100.973 79.1999 101.741 79.1999H198.259C199.027 79.1999 199.649 78.5777 199.649 77.8102V23.7791C199.649 23.0116 199.027 22.3894 198.259 22.3894Z" fill="white"/>
<g opacity="0.5">
<path opacity="0.5" d="M137.567 30.5454H129.402C128.634 30.5454 128.012 31.1676 128.012 31.9351V39.0071C128.012 39.7746 128.634 40.3968 129.402 40.3968H137.567C138.334 40.3968 138.957 39.7746 138.957 39.0071V31.9351C138.957 31.1676 138.334 30.5454 137.567 30.5454Z" fill="#444140"/>
</g>
<path d="M171.244 30.5454H142.786C142.484 30.5454 142.239 30.7901 142.239 31.092C142.239 31.3939 142.484 31.6386 142.786 31.6386H171.244C171.546 31.6386 171.79 31.3939 171.79 31.092C171.79 30.7901 171.546 30.5454 171.244 30.5454Z" fill="#E0E0E0"/>
<path d="M166.256 33.8313H142.786C142.484 33.8313 142.239 34.076 142.239 34.3779C142.239 34.6798 142.484 34.9245 142.786 34.9245H166.256C166.558 34.9245 166.803 34.6798 166.803 34.3779C166.803 34.076 166.558 33.8313 166.256 33.8313Z" fill="#E0E0E0"/>
<g opacity="0.5">
<path opacity="0.5" d="M137.567 45.8689H129.402C128.634 45.8689 128.012 46.4911 128.012 47.2586V54.3306C128.012 55.0981 128.634 55.7202 129.402 55.7202H137.567C138.334 55.7202 138.957 55.0981 138.957 54.3306V47.2586C138.957 46.4911 138.334 45.8689 137.567 45.8689Z" fill="#444140"/>
</g>
<path d="M171.244 45.8689H142.786C142.484 45.8689 142.239 46.1136 142.239 46.4155C142.239 46.7174 142.484 46.9621 142.786 46.9621H171.244C171.546 46.9621 171.79 46.7174 171.79 46.4155C171.79 46.1136 171.546 45.8689 171.244 45.8689Z" fill="#E0E0E0"/>
<path d="M171.244 49.1519H142.786C142.484 49.1519 142.239 49.3966 142.239 49.6985C142.239 50.0003 142.484 50.2451 142.786 50.2451H171.244C171.546 50.2451 171.79 50.0003 171.79 49.6985C171.79 49.3966 171.546 49.1519 171.244 49.1519Z" fill="#E0E0E0"/>
<g opacity="0.5">
<path opacity="0.5" d="M137.567 61.1926H129.402C128.634 61.1926 128.012 61.8148 128.012 62.5823V69.6543C128.012 70.4218 128.634 71.044 129.402 71.044H137.567C138.334 71.044 138.957 70.4218 138.957 69.6543V62.5823C138.957 61.8148 138.334 61.1926 137.567 61.1926Z" fill="#444140"/>
</g>
<path d="M171.244 61.1926H142.786C142.484 61.1926 142.239 61.4374 142.239 61.7392C142.239 62.0411 142.484 62.2859 142.786 62.2859H171.244C171.546 62.2859 171.79 62.0411 171.79 61.7392C171.79 61.4374 171.546 61.1926 171.244 61.1926Z" fill="#E0E0E0"/>
<path d="M171.497 64.4753H142.73C142.459 64.4753 142.239 64.6952 142.239 64.9664V65.0775C142.239 65.3487 142.459 65.5686 142.73 65.5686H171.497C171.768 65.5686 171.988 65.3487 171.988 65.0775V64.9664C171.988 64.6952 171.768 64.4753 171.497 64.4753Z" fill="#E0E0E0"/>
<path d="M150 12.9706V6.17651" stroke="#444140" stroke-width="2" stroke-miterlimit="10"/>
<path d="M150 24.3968V15.4812" stroke="#444140" stroke-width="2" stroke-miterlimit="10"/>
<path d="M150 25.6319C150.682 25.6319 151.235 25.0789 151.235 24.3967C151.235 23.7144 150.682 23.1614 150 23.1614C149.318 23.1614 148.765 23.7144 148.765 24.3967C148.765 25.0789 149.318 25.6319 150 25.6319Z" fill="#444140"/>
<path d="M150 15.441C150.682 15.441 151.235 14.888 151.235 14.2057C151.235 13.5235 150.682 12.9705 150 12.9705C149.318 12.9705 148.765 13.5235 148.765 14.2057C148.765 14.888 149.318 15.441 150 15.441Z" stroke="white" stroke-miterlimit="10"/>
<path d="M150 12.9706V6.17651" stroke="#444140" stroke-width="2" stroke-miterlimit="10"/>
<path d="M150 24.3968V15.4812" stroke="#444140" stroke-width="2" stroke-miterlimit="10"/>
<path d="M150 25.6319C150.682 25.6319 151.235 25.0789 151.235 24.3967C151.235 23.7144 150.682 23.1614 150 23.1614C149.318 23.1614 148.765 23.7144 148.765 24.3967C148.765 25.0789 149.318 25.6319 150 25.6319Z" fill="#444140"/>
<path d="M150 15.441C150.682 15.441 151.235 14.888 151.235 14.2057C151.235 13.5235 150.682 12.9705 150 12.9705C149.318 12.9705 148.765 13.5235 148.765 14.2057C148.765 14.888 149.318 15.441 150 15.441Z" stroke="white" stroke-miterlimit="10"/>
<path d="M150 86.1606V95.7341" stroke="#444140" stroke-width="2" stroke-miterlimit="10"/>
<path d="M150 77.5137V86.4293" stroke="#444140" stroke-width="2" stroke-miterlimit="10"/>
<path d="M150 78.7491C150.682 78.7491 151.235 78.1961 151.235 77.5138C151.235 76.8316 150.682 76.2786 150 76.2786C149.318 76.2786 148.765 76.8316 148.765 77.5138C148.765 78.1961 149.318 78.7491 150 78.7491Z" fill="#444140"/>
<path d="M94.4124 52.0361H84.6846" stroke="#444140" stroke-width="2" stroke-miterlimit="10"/>
<path d="M102.905 52.0361H93.9893" stroke="#444140" stroke-width="2" stroke-miterlimit="10"/>
<path d="M102.905 53.2713C103.587 53.2713 104.14 52.7183 104.14 52.0361C104.14 51.3538 103.587 50.8008 102.905 50.8008C102.223 50.8008 101.67 51.3538 101.67 52.0361C101.67 52.7183 102.223 53.2713 102.905 53.2713Z" fill="#444140"/>
<g opacity="0.1">
<path opacity="0.1" d="M174.242 134.491H126.066V135.417H174.242V134.491Z" fill="black"/>
</g>
<g opacity="0.7">
<path opacity="0.7" d="M55.3405 113.355H32.9819L33.2908 110.842C39.6092 105.169 43.6949 90.055 43.6949 90.055C43.6042 90.0676 43.5145 90.0862 43.4262 90.1105C39.7204 90.8579 37.0831 92.3804 35.2394 94.2117L36.0238 87.5226C47.6972 85.0088 52.3264 69.5678 52.3264 69.5678C44.8777 71.22 40.233 73.7771 37.3487 76.2044L38.4975 66.3777C46.3909 69.0861 54.5561 54.6982 54.5561 54.6982L54.2473 54.6333L54.4017 54.5345L54.167 54.6179C45.4428 52.7372 40.7796 57.7246 39.2664 59.7968L39.3807 58.8333C39.1501 59.4509 38.9257 60.0562 38.7075 60.6491V60.6738C38.0898 62.3476 37.5247 64.0009 37.0121 65.6335C36.5653 67.0273 36.1474 68.4067 35.7582 69.7717V69.7531C35.7582 69.7531 35.3969 60.9641 26.1292 58.6511C26.1292 58.6511 27.102 77.8195 34.4458 74.6819C33.7664 77.4613 33.2105 80.1357 32.7287 82.7328C32.422 84.4231 32.1543 86.0702 31.9258 87.674L31.8826 87.7234L31.9258 87.6863L31.9073 87.8129C31.7014 89.2685 31.5264 90.687 31.3823 92.0685C31.5243 89.4064 31.0395 81.7168 21.9787 74.4904C21.9787 74.4904 9.93472 95.657 30.4712 99.8137C30.5176 99.8538 30.5639 99.894 30.6071 99.931L30.5762 99.8353L30.7615 99.8754L30.8449 98.7884C30.5973 103.325 30.6211 107.873 30.9159 112.407C30.9376 112.716 30.9592 113.025 30.9808 113.318H8.36591C-0.262514 131.165 13.1588 140.945 13.1588 140.945H50.2172C64.6082 122.805 55.3405 113.355 55.3405 113.355Z" fill="url(#paint2_linear)"/>
</g>
<path opacity="0.6" d="M31.722 120.131C31.722 120.131 25.8544 94.4988 38.8248 61.4551" stroke="#535461" stroke-width="3" stroke-miterlimit="10"/>
<path d="M8.86929 112.41H54.2658C54.2658 112.41 63.2216 123.837 49.3247 140.822H13.5016C13.5016 140.822 0.531153 129.087 8.86929 112.41Z" fill="#444140"/>
<path d="M38.1733 63.1537C38.1733 63.1537 42.6851 55.1244 53.4938 57.595C53.4938 57.595 44.5596 72.8074 36.5087 67.8262L38.1733 63.1537Z" fill="#4DB6AC"/>
<path d="M35.3136 71.674C35.3136 71.674 34.9646 63.4625 26.0088 61.3008C26.0088 61.3008 26.9353 79.2123 34.0382 76.2786L35.3136 71.674Z" fill="#4DB6AC"/>
<path d="M32.3859 83.8013C32.3859 83.8013 34.0381 75.1975 51.332 71.4917C51.332 71.4917 45.8165 89.2859 31.5892 88.5725L32.3859 83.8013Z" fill="#4DB6AC"/>
<path d="M30.9839 93.4581C30.9839 93.4581 32.8028 84.4622 21.9942 76.124C21.9942 76.124 10.259 96.0954 30.4805 99.8507L30.9839 93.4581Z" fill="#4DB6AC"/>
<path d="M30.6596 105.823C30.6596 105.823 29.4058 93.1092 42.9939 90.6387C42.9939 90.6387 38.0312 108.393 30.6411 111.558L30.6596 105.823Z" fill="#4DB6AC"/>
<path opacity="0.3" d="M36.6631 67.9403C36.6631 67.9403 48.3983 58.9845 53.3394 57.4404" stroke="#535461" stroke-miterlimit="10"/>
<path opacity="0.3" d="M31.5676 88.4768C31.5676 88.4768 45.7733 73.3446 51.3321 71.4917" stroke="#535461" stroke-miterlimit="10"/>
<path opacity="0.3" d="M26.0088 61.3008C26.0088 61.3008 34.6558 73.0359 34.0382 76.1241" stroke="#535461" stroke-miterlimit="10"/>
<path opacity="0.3" d="M21.9942 76.124C21.9942 76.124 26.6265 97.1238 30.3323 99.9032" stroke="#535461" stroke-miterlimit="10"/>
<path opacity="0.3" d="M30.6411 111.638C30.6411 111.638 38.0528 91.2563 42.9939 90.6387" stroke="#535461" stroke-miterlimit="10"/>
<g opacity="0.1">
<path opacity="0.1" d="M54.2658 112.41H8.86933C8.76742 112.617 8.6686 112.824 8.56051 113.028H52.7217C52.7217 113.028 61.4583 124.18 48.2747 140.822H49.3247C63.2216 123.837 54.2658 112.41 54.2658 112.41Z" fill="black"/>
</g>
<path d="M300 140.698H0V150.868H300V140.698Z" fill="#E0E0E0"/>
<path d="M287.286 150.868H12.711V155.027H287.286V150.868Z" fill="#E0E0E0"/>
<path opacity="0.1" d="M287.286 150.868H12.711V152.254H287.286V150.868Z" fill="black"/>
<path d="M213.154 52.0361H215.007" stroke="#444140" stroke-width="2" stroke-miterlimit="10"/>
<path d="M196.786 52.0361H210.646" stroke="#444140" stroke-width="2" stroke-miterlimit="10"/>
<path d="M196.786 53.2713C197.468 53.2713 198.021 52.7183 198.021 52.0361C198.021 51.3538 197.468 50.8008 196.786 50.8008C196.104 50.8008 195.551 51.3538 195.551 52.0361C195.551 52.7183 196.104 53.2713 196.786 53.2713Z" fill="#444140"/>
<path d="M211.918 53.2713C212.601 53.2713 213.154 52.7183 213.154 52.0361C213.154 51.3538 212.601 50.8008 211.918 50.8008C211.236 50.8008 210.683 51.3538 210.683 52.0361C210.683 52.7183 211.236 53.2713 211.918 53.2713Z" stroke="white" stroke-miterlimit="10"/>
<g opacity="0.7">
<path opacity="0.7" d="M281.866 137.388L281.897 137.342C281.961 137.243 282.024 137.14 282.085 137.033L282.119 136.974C282.179 136.873 282.236 136.77 282.289 136.665L282.317 136.613C282.379 136.492 282.437 136.372 282.49 136.245C282.601 135.992 282.698 135.734 282.78 135.47L282.811 135.368C282.839 135.272 282.867 135.177 282.891 135.081L282.922 134.945C282.943 134.859 282.961 134.771 282.978 134.683C282.978 134.633 282.996 134.584 283.006 134.534C283.015 134.485 283.033 134.361 283.046 134.272C283.058 134.182 283.046 134.17 283.064 134.121C283.083 134.071 283.083 133.932 283.089 133.836C283.089 133.793 283.089 133.747 283.089 133.704C283.089 133.565 283.089 133.423 283.089 133.284V107.778H278.812V95.2771H273.562V107.778H269.943V89.8234H264.693V107.778H262.719V87.2571H257.469V107.778H252.837V133.287C252.837 137.45 256.299 140.822 260.558 140.822H275.381C276.593 140.827 277.789 140.548 278.874 140.009C279.959 139.47 280.904 138.684 281.631 137.715C281.708 137.606 281.786 137.497 281.866 137.388Z" fill="url(#paint3_linear)"/>
</g>
<path d="M263.028 99.1311H258.087V130.013H263.028V99.1311Z" fill="#535461"/>
<path d="M263.028 88.9402H258.087V99.1312H263.028V88.9402Z" fill="#3AD29F"/>
<path d="M269.822 101.602H264.881V132.484H269.822V101.602Z" fill="#535461"/>
<path d="M269.822 91.4106H264.881V101.602H269.822V91.4106Z" fill="#4D8AF0"/>
<path d="M278.16 106.852H273.219V137.734H278.16V106.852Z" fill="#535461"/>
<path d="M278.16 96.6606H273.219V106.852H278.16V96.6606Z" fill="#F55F44"/>
<path d="M253.763 108.705H282.175V133.256C282.175 135.181 281.41 137.026 280.049 138.387C278.688 139.748 276.842 140.513 274.918 140.513H261.021C259.096 140.513 257.25 139.748 255.889 138.387C254.528 137.026 253.763 135.181 253.763 133.256V108.705Z" fill="#444140"/>
<g opacity="0.1">
<path opacity="0.1" d="M253.763 108.705V109.94H280.94V134.491C280.942 136.114 280.398 137.69 279.396 138.966C280.262 138.288 280.963 137.421 281.445 136.432C281.926 135.442 282.176 134.356 282.175 133.256V108.705H253.763Z" fill="black"/>
</g>
</g>
<defs>
<linearGradient id="paint0_linear" x1="149.846" y1="144.852" x2="149.846" y2="0" gradientUnits="userSpaceOnUse">
<stop stop-color="#808080" stop-opacity="0.25"/>
<stop offset="0.54" stop-color="#808080" stop-opacity="0.12"/>
<stop offset="1" stop-color="#808080" stop-opacity="0.1"/>
</linearGradient>
<linearGradient id="paint1_linear" x1="49599" y1="15032.9" x2="49599" y2="4145.79" gradientUnits="userSpaceOnUse">
<stop stop-color="#808080" stop-opacity="0.25"/>
<stop offset="0.54" stop-color="#808080" stop-opacity="0.12"/>
<stop offset="1" stop-color="#808080" stop-opacity="0.1"/>
</linearGradient>
<linearGradient id="paint2_linear" x1="6975.67" y1="44727.1" x2="16005.2" y2="44727.1" gradientUnits="userSpaceOnUse">
<stop stop-color="#808080" stop-opacity="0.25"/>
<stop offset="0.54" stop-color="#808080" stop-opacity="0.12"/>
<stop offset="1" stop-color="#808080" stop-opacity="0.1"/>
</linearGradient>
<linearGradient id="paint3_linear" x1="28477.9" y1="30527.1" x2="31442.6" y2="30527.1" gradientUnits="userSpaceOnUse">
<stop stop-color="#808080" stop-opacity="0.25"/>
<stop offset="0.54" stop-color="#808080" stop-opacity="0.12"/>
<stop offset="1" stop-color="#808080" stop-opacity="0.1"/>
</linearGradient>
<clipPath id="clip0">
<rect width="300" height="155.028" fill="white"/>
</clipPath>
</defs>
</svg>
