<svg width="808" height="572" viewBox="0 0 808 572" fill="none" xmlns="http://www.w3.org/2000/svg">
<path d="M386.939 214.659L346.243 203.362L337.174 101.643H436.826L427.748 203.346L386.939 214.659Z" fill="#264DE4"/>
<path d="M419.975 196.87L427.733 109.959H387V206.011L419.975 196.87Z" fill="#2965F1"/>
<path d="M357.964 147.686L359.082 160.161H387V147.686H357.964Z" fill="#EBEBEB"/>
<path d="M355.718 122.436L356.852 134.911H387V122.436H355.718Z" fill="#EBEBEB"/>
<path d="M387 180.086L386.945 180.101L373.052 176.349L372.163 166.399H359.64L361.387 185.988L386.943 193.081L387 193.066V180.086Z" fill="#EBEBEB"/>
<path d="M360.627 74H375.736V80.3188H366.945V86.6375H375.737V92.9559H360.627V74Z" fill="black"/>
<path d="M378.758 74H393.868V79.4945H385.077V80.5934H393.868V93.2309H378.759V87.4609H387.55V86.3621H378.758V74H378.758Z" fill="black"/>
<path d="M396.89 74H412V79.4945H403.209V80.5934H412V93.2309H396.89V87.4609H405.681V86.3621H396.891V74H396.89Z" fill="black"/>
<path d="M415.956 147.686L418.208 122.436H386.957V134.911H404.536L403.401 147.686H386.957V160.161H402.319L400.871 176.341L386.957 180.096V193.075L412.532 185.987L412.72 183.88L415.652 151.036L415.956 147.686Z" fill="white"/>
<path d="M233.826 101.643L224.748 203.346L183.939 214.659L143.243 203.362L134.174 101.643H233.826Z" fill="#E44D26"/>
<path d="M184 206.012L216.975 196.87L224.733 109.96H184V206.012Z" fill="#F16529"/>
<path d="M166.352 134.911H184V122.436H152.718L153.016 125.782L156.082 160.161H184V147.686H167.492L166.352 134.911Z" fill="#EBEBEB"/>
<path d="M169.163 166.399H156.64L158.387 185.988L183.943 193.081L184 193.066V180.086L183.945 180.101L170.052 176.349L169.163 166.399Z" fill="#EBEBEB"/>
<path d="M143.445 74H149.785V80.2637H155.585V74H161.925V92.968H155.585V86.6164H149.786V92.968H143.446V74H143.445Z" fill="black"/>
<path d="M170.262 80.2902H164.681V74H182.187V80.2902H176.603V92.968H170.263V80.2902H170.263H170.262Z" fill="black"/>
<path d="M184.965 74H191.575L195.642 80.6648L199.704 74H206.318V92.968H200.004V83.5664L195.642 90.3105H195.532L191.168 83.5664V92.968H184.965V74Z" fill="black"/>
<path d="M209.473 74H215.814V86.6984H224.73V92.968H209.472V74H209.473Z" fill="black"/>
<path d="M183.957 160.161H199.319L197.871 176.341L183.957 180.097V193.075L209.532 185.988L209.72 183.88L212.652 151.036L212.956 147.686H183.957V160.161Z" fill="white"/>
<path d="M183.957 134.88V134.911H214.091L214.341 132.107L214.91 125.782L215.208 122.436H183.957V134.881V134.88Z" fill="white"/>
<path d="M546.25 101.25H633.75V188.75H546.25V101.25Z" fill="#F5DE19"/>
<path d="M605.028 169.609C605.774 171.123 606.932 172.396 608.369 173.281C609.807 174.166 611.465 174.626 613.153 174.609C616.559 174.609 618.738 172.906 618.738 170.547C618.738 167.734 616.5 166.728 612.75 165.087L610.694 164.206C604.756 161.678 600.819 158.512 600.819 151.818C600.819 145.653 605.506 140.956 612.859 140.956C615.24 140.784 617.618 141.317 619.698 142.488C621.777 143.659 623.466 145.416 624.553 147.54L618.125 151.65C617.706 150.596 616.977 149.695 616.035 149.066C615.092 148.436 613.98 148.108 612.847 148.125C612.352 148.075 611.853 148.129 611.381 148.283C610.908 148.437 610.473 148.688 610.103 149.02C609.733 149.352 609.436 149.757 609.231 150.209C609.026 150.662 608.917 151.153 608.913 151.65C608.913 154.115 610.441 155.115 613.969 156.65L616.025 157.531C623.013 160.528 626.963 163.581 626.963 170.447C626.963 177.85 621.147 181.906 613.338 181.906C610.295 182.1 607.261 181.409 604.602 179.917C601.943 178.425 599.773 176.195 598.353 173.497L605.028 169.609ZM575.981 170.322C577.272 172.612 578.447 174.55 581.272 174.55C583.972 174.55 585.678 173.493 585.678 169.384V141.425H593.9V169.493C593.9 178.006 588.9 181.881 581.622 181.881C579.049 182.022 576.494 181.38 574.293 180.042C572.091 178.703 570.346 176.73 569.288 174.381L575.981 170.322Z" fill="black"/>
<path d="M316.22 293.837C315.156 293.472 314.082 293.134 313.001 292.823C313.183 292.081 313.35 291.348 313.498 290.627C315.935 278.799 314.342 269.269 308.901 266.132C303.684 263.124 295.153 266.26 286.536 273.759C285.687 274.5 284.857 275.261 284.046 276.044C283.503 275.523 282.951 275.013 282.389 274.514C273.359 266.496 264.307 263.116 258.872 266.263C253.66 269.28 252.117 278.238 254.311 289.448C254.529 290.559 254.775 291.663 255.05 292.761C253.768 293.125 252.532 293.512 251.349 293.925C240.761 297.616 234 303.401 234 309.401C234 315.599 241.259 321.815 252.286 325.584C253.18 325.888 254.081 326.17 254.989 326.43C254.695 327.612 254.433 328.802 254.204 329.999C252.113 341.015 253.746 349.761 258.944 352.759C264.313 355.855 273.324 352.673 282.098 345.003C282.809 344.38 283.505 343.739 284.184 343.08C285.062 343.927 285.964 344.75 286.888 345.547C295.387 352.86 303.78 355.813 308.973 352.807C314.337 349.702 316.08 340.306 313.817 328.874C313.639 327.979 313.439 327.087 313.218 326.201C313.85 326.014 314.471 325.821 315.077 325.62C326.541 321.822 334 315.682 334 309.401C334 303.379 327.02 297.555 316.22 293.837ZM313.734 321.566C313.187 321.746 312.626 321.921 312.054 322.091C310.788 318.084 309.08 313.824 306.99 309.422C308.985 305.125 310.627 300.919 311.857 296.939C312.88 297.235 313.873 297.547 314.83 297.876C324.084 301.062 329.728 305.772 329.728 309.401C329.728 313.267 323.632 318.285 313.734 321.566ZM309.627 329.704C310.627 334.759 310.77 339.329 310.107 342.902C309.512 346.112 308.314 348.253 306.833 349.11C303.682 350.934 296.942 348.563 289.674 342.309C288.815 341.568 287.976 340.803 287.159 340.016C289.977 336.934 292.793 333.351 295.542 329.373C300.376 328.944 304.943 328.242 309.085 327.285C309.289 328.108 309.47 328.915 309.627 329.704ZM268.092 348.795C265.013 349.882 262.561 349.913 261.079 349.059C257.924 347.239 256.613 340.216 258.402 330.796C258.614 329.683 258.858 328.576 259.132 327.476C263.228 328.382 267.762 329.034 272.607 329.427C275.375 333.32 278.272 336.899 281.192 340.032C280.571 340.633 279.936 341.218 279.287 341.787C275.407 345.178 271.519 347.585 268.092 348.795ZM253.668 321.542C248.792 319.875 244.765 317.709 242.005 315.345C239.524 313.221 238.272 311.112 238.272 309.401C238.272 305.76 243.701 301.116 252.755 297.959C253.854 297.576 255.004 297.215 256.197 296.876C257.449 300.946 259.09 305.202 261.071 309.505C259.064 313.873 257.4 318.196 256.136 322.315C255.307 322.077 254.484 321.82 253.668 321.542ZM258.503 288.628C256.624 279.023 257.872 271.778 261.013 269.96C264.358 268.023 271.756 270.785 279.553 277.708C280.062 278.161 280.562 278.622 281.054 279.093C278.148 282.213 275.277 285.765 272.535 289.635C267.832 290.071 263.33 290.771 259.191 291.709C258.936 290.688 258.706 289.661 258.503 288.628V288.628ZM301.639 299.279C300.661 297.591 299.647 295.923 298.598 294.278C301.788 294.682 304.845 295.217 307.716 295.872C306.854 298.634 305.78 301.522 304.516 304.483C303.591 302.73 302.632 300.995 301.639 299.279ZM284.048 282.146C286.018 284.281 287.992 286.664 289.933 289.25C285.995 289.064 282.051 289.063 278.114 289.248C280.057 286.685 282.047 284.305 284.048 282.146ZM266.345 299.309C265.363 301.01 264.422 302.734 263.521 304.48C262.278 301.529 261.213 298.628 260.344 295.826C263.197 295.188 266.24 294.666 269.41 294.27C268.349 295.925 267.327 297.605 266.345 299.308V299.309ZM269.501 324.837C266.226 324.471 263.138 323.976 260.285 323.355C261.168 320.503 262.256 317.541 263.527 314.527C264.431 316.274 265.376 317.999 266.361 319.701C267.375 321.451 268.424 323.165 269.501 324.837ZM284.166 336.958C282.141 334.773 280.121 332.357 278.149 329.757C280.064 329.832 282.016 329.871 284 329.871C286.038 329.871 288.053 329.825 290.036 329.737C288.089 332.383 286.123 334.803 284.166 336.958ZM304.556 314.373C305.893 317.42 307.019 320.367 307.914 323.17C305.014 323.832 301.884 324.364 298.586 324.76C299.642 323.085 300.666 321.388 301.655 319.672C302.661 317.927 303.629 316.161 304.556 314.373ZM297.955 317.537C296.44 320.169 294.84 322.75 293.158 325.278C290.11 325.494 287.055 325.601 284 325.599C280.888 325.599 277.861 325.502 274.946 325.313C273.22 322.792 271.589 320.206 270.058 317.561H270.059C268.535 314.93 267.112 312.242 265.792 309.503C267.108 306.764 268.527 304.075 270.046 301.442L270.045 301.443C271.563 298.809 273.181 296.234 274.894 293.723C277.868 293.498 280.918 293.381 284 293.381H284C287.096 293.381 290.15 293.5 293.123 293.726C294.819 296.233 296.426 298.799 297.941 301.419C299.465 304.046 300.902 306.722 302.252 309.443C300.916 312.191 299.483 314.891 297.955 317.537ZM306.768 269.833C310.116 271.764 311.418 279.552 309.314 289.765C309.18 290.416 309.029 291.08 308.865 291.753C304.716 290.795 300.211 290.083 295.494 289.641C292.746 285.728 289.899 282.17 287.041 279.091C287.79 278.368 288.557 277.665 289.341 276.981C296.724 270.557 303.624 268.02 306.768 269.833ZM284 300.472C288.932 300.472 292.93 304.47 292.93 309.401C292.93 314.333 288.932 318.331 284 318.331C279.068 318.331 275.07 314.333 275.07 309.401C275.07 304.47 279.068 300.472 284 300.472Z" fill="#00D8FF"/>
<g clip-path="url(#clip0)">
<path d="M506.289 331.302C509.98 330.92 512.779 327.739 512.652 323.921C512.525 320.103 509.343 317.049 505.526 317.049H505.271C501.326 317.176 498.272 320.485 498.4 324.43C498.527 326.339 499.29 327.993 500.436 329.138C496.109 337.665 489.492 343.9 479.566 349.118C472.821 352.681 465.823 353.954 458.824 353.063C453.097 352.3 448.643 349.755 445.843 345.555C441.771 339.319 441.39 332.574 444.826 325.83C447.244 320.994 451.061 317.43 453.479 315.649C452.97 313.995 452.206 311.195 451.825 309.159C433.373 322.521 435.282 340.592 440.881 349.118C445.08 355.481 453.606 359.426 463.023 359.426C465.568 359.426 468.113 359.171 470.658 358.536C486.947 355.354 499.291 345.682 506.289 331.302ZM528.686 315.522C519.015 304.196 504.762 297.96 488.474 297.96H486.438C485.293 295.67 482.875 294.142 480.202 294.142H479.948C476.003 294.27 472.949 297.578 473.076 301.523C473.204 305.341 476.385 308.395 480.202 308.395H480.457C483.256 308.268 485.674 306.486 486.692 304.068H488.983C498.654 304.068 507.816 306.868 516.088 312.34C522.451 316.54 527.032 322.012 529.577 328.629C531.74 333.974 531.613 339.192 529.322 343.646C525.759 350.391 519.779 354.081 511.889 354.081C506.798 354.081 501.963 352.554 499.418 351.409C498.018 352.681 495.473 354.717 493.691 355.99C499.163 358.535 504.762 359.935 510.107 359.935C522.323 359.935 531.359 353.19 534.795 346.446C538.485 339.064 538.23 326.339 528.686 315.522ZM464.041 333.465C464.168 337.283 467.35 340.337 471.167 340.337H471.422C475.367 340.21 478.421 336.901 478.293 332.956C478.166 329.138 474.985 326.084 471.167 326.084H470.913C470.658 326.084 470.276 326.084 470.022 326.211C464.805 317.557 462.641 308.141 463.405 297.96C463.914 290.324 466.459 283.707 470.913 278.234C474.603 273.526 481.729 271.235 486.565 271.108C500.054 270.854 505.78 287.652 506.162 294.396C507.816 294.778 510.616 295.669 512.525 296.305C510.998 275.69 498.272 265 486.056 265C474.603 265 464.041 273.272 459.841 285.489C453.988 301.778 457.805 317.43 464.932 329.775C464.296 330.665 463.914 332.065 464.041 333.465V333.465Z" fill="#764ABC"/>
</g>
<g clip-path="url(#clip1)">
<path d="M395.667 470.666C404.871 470.666 412.333 463.204 412.333 454C412.333 444.795 404.871 437.333 395.667 437.333C386.462 437.333 379 444.795 379 454C379 463.204 386.462 470.666 395.667 470.666Z" fill="#19BCFE"/>
<path fill-rule="evenodd" clip-rule="evenodd" d="M362.333 504C366.754 504 370.993 502.244 374.118 499.119C377.244 495.993 379 491.754 379 487.334V470.667H362.333C357.913 470.667 353.674 472.423 350.548 475.549C347.423 478.674 345.667 482.913 345.667 487.334C345.667 491.754 347.423 495.993 350.548 499.119C353.674 502.244 357.913 504 362.333 504Z" fill="#09CF83"/>
<path fill-rule="evenodd" clip-rule="evenodd" d="M362.333 470.666H379V437.333H362.333C357.913 437.333 353.674 439.089 350.548 442.215C347.423 445.34 345.667 449.579 345.667 454C345.667 458.42 347.423 462.659 350.548 465.785C353.674 468.91 357.913 470.666 362.333 470.666Z" fill="#A259FF"/>
<path fill-rule="evenodd" clip-rule="evenodd" d="M362.333 437.333H379V404H362.333C357.913 404 353.674 405.756 350.548 408.882C347.423 412.007 345.667 416.246 345.667 420.667C345.667 425.087 347.423 429.326 350.548 432.452C353.674 435.577 357.913 437.333 362.333 437.333Z" fill="#F24E1E"/>
<path fill-rule="evenodd" clip-rule="evenodd" d="M395.667 437.333H379V404H395.667C400.087 404 404.326 405.756 407.452 408.882C410.577 412.007 412.333 416.246 412.333 420.667C412.333 425.087 410.577 429.326 407.452 432.452C404.326 435.577 400.087 437.333 395.667 437.333Z" fill="#FF7262"/>
</g>
<defs>
<clipPath id="clip0">
<rect width="100" height="95.3125" fill="white" transform="translate(437 265)"/>
</clipPath>
<clipPath id="clip1">
<rect width="100" height="100" fill="white" transform="translate(329 404)"/>
</clipPath>
</defs>
</svg>
