<svg width="1440" height="2569" viewBox="0 0 1440 2569" fill="none" xmlns="http://www.w3.org/2000/svg">
<g clip-path="url(#clip0)">
<path opacity="0.02" d="M198 84C206.667 84 215.5 89.5 224.5 100.5C233.833 111.5 238.5 120.667 238.5 128C238.5 135 237.167 138.5 234.5 138.5C232.167 138.5 227.5 137.333 220.5 135C213.5 132.333 207.167 131 201.5 131C188.5 131 172.667 137.667 154 151C135.667 164.333 118.167 180.833 101.5 200.5C85.1667 220.167 71.1667 242.667 59.5 268C47.8333 293 42 314.667 42 333C42 351.333 46.6667 364.833 56 373.5C65.6667 381.833 78.1667 386 93.5 386C108.833 386 124.667 383.833 141 379.5C157.333 374.833 170.667 369.667 181 364C207.667 349.667 222.333 342.5 225 342.5C230.667 342.5 233.5 346.333 233.5 354C233.5 361.333 225.833 371.333 210.5 384C195.167 396.333 176.167 407.5 153.5 417.5C130.833 427.5 110.5 432.5 92.5 432.5C69.1667 432.5 47.1667 422.5 26.5 402.5C5.83334 382.167 -4.5 359.833 -4.5 335.5C-4.5 304.167 5.66667 268.833 26 229.5C46.6667 189.833 73 155.667 105 127C137.333 98.3333 168.333 84 198 84ZM432.316 365.5C454.316 345.833 473.15 321.667 488.816 293C504.483 264 512.316 236.667 512.316 211C512.316 185.333 507.316 164.5 497.316 148.5C487.65 132.5 476.15 124.5 462.816 124.5C449.483 124.5 432.816 134.833 412.816 155.5C392.816 176.167 374.816 203.333 358.816 237C342.816 270.333 334.816 302.333 334.816 333C334.816 351.333 338.816 366.333 346.816 378C354.816 389.333 364.15 395 374.816 395C391.483 395 410.65 385.167 432.316 365.5ZM371.816 434.5C349.816 434.5 330.483 423.667 313.816 402C297.483 380.333 289.316 358.333 289.316 336C289.316 305.667 294.816 274.833 305.816 243.5C317.15 212.167 331.15 184.833 347.816 161.5C364.816 138.167 383.483 119.167 403.816 104.5C424.15 89.5 442.983 82 460.316 82C488.316 82 511.65 94.8333 530.316 120.5C548.983 145.833 558.316 174.5 558.316 206.5C558.316 238.5 549.483 272.167 531.816 307.5C514.15 342.5 490.483 372.5 460.816 397.5C431.483 422.167 401.816 434.5 371.816 434.5ZM849.957 103C850.624 88.6666 853.957 81.5 859.957 81.5C866.29 81.5 873.124 85.3333 880.457 93C887.79 100.667 891.457 107.5 891.457 113.5C891.457 140.833 887.124 179.667 878.457 230C870.124 280.333 858.79 327 844.457 370C830.457 413 817.124 434.5 804.457 434.5C800.124 434.5 795.124 432.333 789.457 428C784.124 423.667 779.957 418.333 776.957 412C766.957 388.667 737.457 314.667 688.457 190C678.457 228.667 667.29 272.5 654.957 321.5C642.957 370.167 634.957 401.167 630.957 414.5C626.957 427.833 623.457 434.5 620.457 434.5C616.124 434.5 610.79 430.833 604.457 423.5C598.457 415.833 595.457 408 595.457 400C595.457 392 606.29 345.167 627.957 259.5C649.624 173.5 660.79 119.833 661.457 98.5C661.457 87.8333 664.29 82.5 669.957 82.5C673.624 82.5 678.624 85.6667 684.957 92C691.624 98 696.457 104.667 699.457 112C753.124 251.333 787.124 336.667 801.457 368C823.124 310.667 837.624 242.167 844.957 162.5C848.29 125.833 849.957 106 849.957 103ZM1049.34 127L963.836 131C958.503 131 953.003 127.5 947.336 120.5C941.669 113.5 938.836 106.667 938.836 100C938.836 94 948.336 90.1666 967.336 88.5C986.669 86.8333 1028.84 86 1093.84 86C1127.5 86 1155.17 89.6666 1176.84 97C1198.84 104.333 1209.84 112.5 1209.84 121.5C1209.84 127.833 1204.34 131 1193.34 131C1182.34 131 1167 130.333 1147.34 129C1127.67 127.667 1108.84 126.833 1090.84 126.5C1091.84 129.833 1092.34 133.5 1092.34 137.5C1092.34 149.833 1079.34 207.167 1053.34 309.5C1050.67 320.167 1046.67 336.833 1041.34 359.5C1036 382.167 1032 398 1029.34 407C1024.67 424.667 1020.5 433.5 1016.84 433.5C1011.84 433.5 1006.17 429.833 999.836 422.5C993.836 414.833 990.836 407.167 990.836 399.5C990.836 391.833 999.836 352.5 1017.84 281.5C1035.84 210.167 1046.34 158.667 1049.34 127ZM1456.91 261.5C1456.91 267.833 1442.25 275.167 1412.91 283.5C1415.58 318.167 1416.91 347.667 1416.91 372C1416.91 414 1411.58 435 1400.91 435C1395.25 435 1390.75 431.5 1387.41 424.5C1384.08 417.5 1381.41 405.333 1379.41 388C1377.08 356 1374.58 324.667 1371.91 294C1356.91 298 1343.25 301.667 1330.91 305C1318.58 308 1299.91 313 1274.91 320C1245.58 396.667 1228.25 435 1222.91 435C1217.58 435 1211.75 431.833 1205.41 425.5C1199.41 418.833 1196.41 411.833 1196.41 404.5C1196.41 401.167 1205.91 377.5 1224.91 333.5H1221.41C1214.75 333.5 1208.75 331.333 1203.41 327C1198.41 322.667 1195.91 317.333 1195.91 311C1195.91 304.333 1212.41 295.667 1245.41 285C1250.75 273 1255.08 262.167 1258.41 252.5C1266.08 233.5 1276.75 207.5 1290.41 174.5C1304.08 141.5 1312.75 120.5 1316.41 111.5C1320.08 102.167 1326.41 94.3333 1335.41 88C1344.75 81.3333 1353.75 78 1362.41 78C1372.75 78 1381.91 94.5 1389.91 127.5C1398.25 160.5 1404.91 201.333 1409.91 250C1419.25 249 1427.41 248.5 1434.41 248.5C1449.41 248.5 1456.91 252.833 1456.91 261.5ZM1293.41 272C1317.08 265.667 1342.08 260.333 1368.41 256C1362.41 199 1356.58 156.167 1350.91 127.5C1335.91 161.833 1316.75 210 1293.41 272ZM1714.11 84C1722.78 84 1731.61 89.5 1740.61 100.5C1749.95 111.5 1754.61 120.667 1754.61 128C1754.61 135 1753.28 138.5 1750.61 138.5C1748.28 138.5 1743.61 137.333 1736.61 135C1729.61 132.333 1723.28 131 1717.61 131C1704.61 131 1688.78 137.667 1670.11 151C1651.78 164.333 1634.28 180.833 1617.61 200.5C1601.28 220.167 1587.28 242.667 1575.61 268C1563.95 293 1558.11 314.667 1558.11 333C1558.11 351.333 1562.78 364.833 1572.11 373.5C1581.78 381.833 1594.28 386 1609.61 386C1624.95 386 1640.78 383.833 1657.11 379.5C1673.45 374.833 1686.78 369.667 1697.11 364C1723.78 349.667 1738.45 342.5 1741.11 342.5C1746.78 342.5 1749.61 346.333 1749.61 354C1749.61 361.333 1741.95 371.333 1726.61 384C1711.28 396.333 1692.28 407.5 1669.61 417.5C1646.95 427.5 1626.61 432.5 1608.61 432.5C1585.28 432.5 1563.28 422.5 1542.61 402.5C1521.95 382.167 1511.61 359.833 1511.61 335.5C1511.61 304.167 1521.78 268.833 1542.11 229.5C1562.78 189.833 1589.11 155.667 1621.11 127C1653.45 98.3333 1684.45 84 1714.11 84ZM1920.43 127L1834.93 131C1829.6 131 1824.1 127.5 1818.43 120.5C1812.76 113.5 1809.93 106.667 1809.93 100C1809.93 94 1819.43 90.1666 1838.43 88.5C1857.76 86.8333 1899.93 86 1964.93 86C1998.6 86 2026.26 89.6666 2047.93 97C2069.93 104.333 2080.93 112.5 2080.93 121.5C2080.93 127.833 2075.43 131 2064.43 131C2053.43 131 2038.1 130.333 2018.43 129C1998.76 127.667 1979.93 126.833 1961.93 126.5C1962.93 129.833 1963.43 133.5 1963.43 137.5C1963.43 149.833 1950.43 207.167 1924.43 309.5C1921.76 320.167 1917.76 336.833 1912.43 359.5C1907.1 382.167 1903.1 398 1900.43 407C1895.76 424.667 1891.6 433.5 1887.93 433.5C1882.93 433.5 1877.26 429.833 1870.93 422.5C1864.93 414.833 1861.93 407.167 1861.93 399.5C1861.93 391.833 1870.93 352.5 1888.93 281.5C1906.93 210.167 1917.43 158.667 1920.43 127ZM55.5 599C55.5 593.333 56.1667 589.5 57.5 587.5C59.1667 585.167 62 584 66 584C70.3333 584 77.6667 588.5 88 597.5C98.3333 606.5 103.833 614.5 104.5 621.5C105.833 633.5 112.167 654.833 123.5 685.5C134.833 715.833 147.833 746.667 162.5 778C181.167 756 204.667 726.833 233 690.5C261.333 653.833 282.333 627.833 296 612.5C309.667 597.167 319.5 589.5 325.5 589.5C331.5 589.5 337.833 592.833 344.5 599.5C351.167 606.167 354.5 612.5 354.5 618.5C354.5 624.5 353.833 631.333 352.5 639C351.167 646.667 348.833 656.833 345.5 669.5C342.5 681.833 339.667 692.667 337 702C334.667 711 330.667 725.167 325 744.5C319.333 763.833 315 779.333 312 791C309 802.333 305.5 816.333 301.5 833C297.5 849.333 294.167 862.833 291.5 873.5C289.167 883.833 286.667 894 284 904C279 923.333 274.167 933 269.5 933C265.167 933 260.833 929 256.5 921C252.167 913 250 902.333 250 889C250 875.333 255.667 844.333 267 796C278.667 747.667 291.167 705.333 304.5 669C243.167 745.667 205.333 791.5 191 806.5C177 821.5 165.333 829 156 829C147 829 138.5 823.833 130.5 813.5C118.5 796.167 102.333 755.167 82 690.5C76.3333 725.5 70 755.5 63 780.5C56.3333 805.167 51.8333 821.667 49.5 830C47.5 838 45.6667 844.667 44 850C42.6667 855.333 41 861.667 39 869C37 876 35.1667 881.833 33.5 886.5C32.1667 891.167 30.6667 896.333 29 902C27.3333 907.333 25.8333 911.667 24.5 915C23.5 918.333 22.3333 921.5 21 924.5C18.3333 930.167 16.3333 933 15 933C11 933 6 928.667 4.76837e-07 920C-6 911.333 -9 903 -9 895C-9 887 1.66667 841 23 757C44.6667 673 55.5 620.333 55.5 599ZM461.531 776.5C443.531 833.5 434.531 868 434.531 880C434.531 884 435.698 887.333 438.031 890C440.698 892.333 444.031 893.5 448.031 893.5C486.365 893.5 528.698 887.333 575.031 875C590.031 871 598.698 869 601.031 869C606.031 869 608.531 872.5 608.531 879.5C608.531 891.5 590.031 903.833 553.031 916.5C516.365 929.167 480.865 935.5 446.531 935.5C431.198 935.5 417.698 931 406.031 922C394.698 913 389.031 901.667 389.031 888C389.031 874.333 393.865 851 403.531 818C413.531 785 423.531 749.833 433.531 712.5C443.531 675.167 448.531 643.667 448.531 618C448.531 614.333 449.198 610.5 450.531 606.5C456.198 594.167 492.531 588 559.531 588C626.531 588 660.031 592.833 660.031 602.5C660.031 609.167 652.865 613.667 638.531 616C626.531 618.333 610.531 620.5 590.531 622.5C570.865 624.167 557.031 625.5 549.031 626.5C541.031 627.167 521.698 630.167 491.031 635.5V637C491.031 659.667 484.865 693.833 472.531 739.5C474.531 739.833 481.198 740 492.531 740C504.198 740 519.698 739.167 539.031 737.5C558.365 735.833 572.865 735 582.531 735C592.531 735 597.531 737.333 597.531 742C597.531 753.667 583.865 762.333 556.531 768C529.198 773.667 497.531 776.5 461.531 776.5ZM198 1084C206.667 1084 215.5 1089.5 224.5 1100.5C233.833 1111.5 238.5 1120.67 238.5 1128C238.5 1135 237.167 1138.5 234.5 1138.5C232.167 1138.5 227.5 1137.33 220.5 1135C213.5 1132.33 207.167 1131 201.5 1131C188.5 1131 172.667 1137.67 154 1151C135.667 1164.33 118.167 1180.83 101.5 1200.5C85.1667 1220.17 71.1667 1242.67 59.5 1268C47.8333 1293 42 1314.67 42 1333C42 1351.33 46.6667 1364.83 56 1373.5C65.6667 1381.83 78.1667 1386 93.5 1386C108.833 1386 124.667 1383.83 141 1379.5C157.333 1374.83 170.667 1369.67 181 1364C207.667 1349.67 222.333 1342.5 225 1342.5C230.667 1342.5 233.5 1346.33 233.5 1354C233.5 1361.33 225.833 1371.33 210.5 1384C195.167 1396.33 176.167 1407.5 153.5 1417.5C130.833 1427.5 110.5 1432.5 92.5 1432.5C69.1667 1432.5 47.1667 1422.5 26.5 1402.5C5.83334 1382.17 -4.5 1359.83 -4.5 1335.5C-4.5 1304.17 5.66667 1268.83 26 1229.5C46.6667 1189.83 73 1155.67 105 1127C137.333 1098.33 168.333 1084 198 1084ZM432.316 1365.5C454.316 1345.83 473.15 1321.67 488.816 1293C504.483 1264 512.316 1236.67 512.316 1211C512.316 1185.33 507.316 1164.5 497.316 1148.5C487.65 1132.5 476.15 1124.5 462.816 1124.5C449.483 1124.5 432.816 1134.83 412.816 1155.5C392.816 1176.17 374.816 1203.33 358.816 1237C342.816 1270.33 334.816 1302.33 334.816 1333C334.816 1351.33 338.816 1366.33 346.816 1378C354.816 1389.33 364.15 1395 374.816 1395C391.483 1395 410.65 1385.17 432.316 1365.5ZM371.816 1434.5C349.816 1434.5 330.483 1423.67 313.816 1402C297.483 1380.33 289.316 1358.33 289.316 1336C289.316 1305.67 294.816 1274.83 305.816 1243.5C317.15 1212.17 331.15 1184.83 347.816 1161.5C364.816 1138.17 383.483 1119.17 403.816 1104.5C424.15 1089.5 442.983 1082 460.316 1082C488.316 1082 511.65 1094.83 530.316 1120.5C548.983 1145.83 558.316 1174.5 558.316 1206.5C558.316 1238.5 549.483 1272.17 531.816 1307.5C514.15 1342.5 490.483 1372.5 460.816 1397.5C431.483 1422.17 401.816 1434.5 371.816 1434.5ZM849.957 1103C850.624 1088.67 853.957 1081.5 859.957 1081.5C866.29 1081.5 873.124 1085.33 880.457 1093C887.79 1100.67 891.457 1107.5 891.457 1113.5C891.457 1140.83 887.124 1179.67 878.457 1230C870.124 1280.33 858.79 1327 844.457 1370C830.457 1413 817.124 1434.5 804.457 1434.5C800.124 1434.5 795.124 1432.33 789.457 1428C784.124 1423.67 779.957 1418.33 776.957 1412C766.957 1388.67 737.457 1314.67 688.457 1190C678.457 1228.67 667.29 1272.5 654.957 1321.5C642.957 1370.17 634.957 1401.17 630.957 1414.5C626.957 1427.83 623.457 1434.5 620.457 1434.5C616.124 1434.5 610.79 1430.83 604.457 1423.5C598.457 1415.83 595.457 1408 595.457 1400C595.457 1392 606.29 1345.17 627.957 1259.5C649.624 1173.5 660.79 1119.83 661.457 1098.5C661.457 1087.83 664.29 1082.5 669.957 1082.5C673.624 1082.5 678.624 1085.67 684.957 1092C691.624 1098 696.457 1104.67 699.457 1112C753.124 1251.33 787.124 1336.67 801.457 1368C823.124 1310.67 837.624 1242.17 844.957 1162.5C848.29 1125.83 849.957 1106 849.957 1103ZM1049.34 1127L963.836 1131C958.503 1131 953.003 1127.5 947.336 1120.5C941.669 1113.5 938.836 1106.67 938.836 1100C938.836 1094 948.336 1090.17 967.336 1088.5C986.669 1086.83 1028.84 1086 1093.84 1086C1127.5 1086 1155.17 1089.67 1176.84 1097C1198.84 1104.33 1209.84 1112.5 1209.84 1121.5C1209.84 1127.83 1204.34 1131 1193.34 1131C1182.34 1131 1167 1130.33 1147.34 1129C1127.67 1127.67 1108.84 1126.83 1090.84 1126.5C1091.84 1129.83 1092.34 1133.5 1092.34 1137.5C1092.34 1149.83 1079.34 1207.17 1053.34 1309.5C1050.67 1320.17 1046.67 1336.83 1041.34 1359.5C1036 1382.17 1032 1398 1029.34 1407C1024.67 1424.67 1020.5 1433.5 1016.84 1433.5C1011.84 1433.5 1006.17 1429.83 999.836 1422.5C993.836 1414.83 990.836 1407.17 990.836 1399.5C990.836 1391.83 999.836 1352.5 1017.84 1281.5C1035.84 1210.17 1046.34 1158.67 1049.34 1127ZM1456.91 1261.5C1456.91 1267.83 1442.25 1275.17 1412.91 1283.5C1415.58 1318.17 1416.91 1347.67 1416.91 1372C1416.91 1414 1411.58 1435 1400.91 1435C1395.25 1435 1390.75 1431.5 1387.41 1424.5C1384.08 1417.5 1381.41 1405.33 1379.41 1388C1377.08 1356 1374.58 1324.67 1371.91 1294C1356.91 1298 1343.25 1301.67 1330.91 1305C1318.58 1308 1299.91 1313 1274.91 1320C1245.58 1396.67 1228.25 1435 1222.91 1435C1217.58 1435 1211.75 1431.83 1205.41 1425.5C1199.41 1418.83 1196.41 1411.83 1196.41 1404.5C1196.41 1401.17 1205.91 1377.5 1224.91 1333.5H1221.41C1214.75 1333.5 1208.75 1331.33 1203.41 1327C1198.41 1322.67 1195.91 1317.33 1195.91 1311C1195.91 1304.33 1212.41 1295.67 1245.41 1285C1250.75 1273 1255.08 1262.17 1258.41 1252.5C1266.08 1233.5 1276.75 1207.5 1290.41 1174.5C1304.08 1141.5 1312.75 1120.5 1316.41 1111.5C1320.08 1102.17 1326.41 1094.33 1335.41 1088C1344.75 1081.33 1353.75 1078 1362.41 1078C1372.75 1078 1381.91 1094.5 1389.91 1127.5C1398.25 1160.5 1404.91 1201.33 1409.91 1250C1419.25 1249 1427.41 1248.5 1434.41 1248.5C1449.41 1248.5 1456.91 1252.83 1456.91 1261.5ZM1293.41 1272C1317.08 1265.67 1342.08 1260.33 1368.41 1256C1362.41 1199 1356.58 1156.17 1350.91 1127.5C1335.91 1161.83 1316.75 1210 1293.41 1272ZM1714.11 1084C1722.78 1084 1731.61 1089.5 1740.61 1100.5C1749.95 1111.5 1754.61 1120.67 1754.61 1128C1754.61 1135 1753.28 1138.5 1750.61 1138.5C1748.28 1138.5 1743.61 1137.33 1736.61 1135C1729.61 1132.33 1723.28 1131 1717.61 1131C1704.61 1131 1688.78 1137.67 1670.11 1151C1651.78 1164.33 1634.28 1180.83 1617.61 1200.5C1601.28 1220.17 1587.28 1242.67 1575.61 1268C1563.95 1293 1558.11 1314.67 1558.11 1333C1558.11 1351.33 1562.78 1364.83 1572.11 1373.5C1581.78 1381.83 1594.28 1386 1609.61 1386C1624.95 1386 1640.78 1383.83 1657.11 1379.5C1673.45 1374.83 1686.78 1369.67 1697.11 1364C1723.78 1349.67 1738.45 1342.5 1741.11 1342.5C1746.78 1342.5 1749.61 1346.33 1749.61 1354C1749.61 1361.33 1741.95 1371.33 1726.61 1384C1711.28 1396.33 1692.28 1407.5 1669.61 1417.5C1646.95 1427.5 1626.61 1432.5 1608.61 1432.5C1585.28 1432.5 1563.28 1422.5 1542.61 1402.5C1521.95 1382.17 1511.61 1359.83 1511.61 1335.5C1511.61 1304.17 1521.78 1268.83 1542.11 1229.5C1562.78 1189.83 1589.11 1155.67 1621.11 1127C1653.45 1098.33 1684.45 1084 1714.11 1084ZM1920.43 1127L1834.93 1131C1829.6 1131 1824.1 1127.5 1818.43 1120.5C1812.76 1113.5 1809.93 1106.67 1809.93 1100C1809.93 1094 1819.43 1090.17 1838.43 1088.5C1857.76 1086.83 1899.93 1086 1964.93 1086C1998.6 1086 2026.26 1089.67 2047.93 1097C2069.93 1104.33 2080.93 1112.5 2080.93 1121.5C2080.93 1127.83 2075.43 1131 2064.43 1131C2053.43 1131 2038.1 1130.33 2018.43 1129C1998.76 1127.67 1979.93 1126.83 1961.93 1126.5C1962.93 1129.83 1963.43 1133.5 1963.43 1137.5C1963.43 1149.83 1950.43 1207.17 1924.43 1309.5C1921.76 1320.17 1917.76 1336.83 1912.43 1359.5C1907.1 1382.17 1903.1 1398 1900.43 1407C1895.76 1424.67 1891.6 1433.5 1887.93 1433.5C1882.93 1433.5 1877.26 1429.83 1870.93 1422.5C1864.93 1414.83 1861.93 1407.17 1861.93 1399.5C1861.93 1391.83 1870.93 1352.5 1888.93 1281.5C1906.93 1210.17 1917.43 1158.67 1920.43 1127ZM55.5 1599C55.5 1593.33 56.1667 1589.5 57.5 1587.5C59.1667 1585.17 62 1584 66 1584C70.3333 1584 77.6667 1588.5 88 1597.5C98.3333 1606.5 103.833 1614.5 104.5 1621.5C105.833 1633.5 112.167 1654.83 123.5 1685.5C134.833 1715.83 147.833 1746.67 162.5 1778C181.167 1756 204.667 1726.83 233 1690.5C261.333 1653.83 282.333 1627.83 296 1612.5C309.667 1597.17 319.5 1589.5 325.5 1589.5C331.5 1589.5 337.833 1592.83 344.5 1599.5C351.167 1606.17 354.5 1612.5 354.5 1618.5C354.5 1624.5 353.833 1631.33 352.5 1639C351.167 1646.67 348.833 1656.83 345.5 1669.5C342.5 1681.83 339.667 1692.67 337 1702C334.667 1711 330.667 1725.17 325 1744.5C319.333 1763.83 315 1779.33 312 1791C309 1802.33 305.5 1816.33 301.5 1833C297.5 1849.33 294.167 1862.83 291.5 1873.5C289.167 1883.83 286.667 1894 284 1904C279 1923.33 274.167 1933 269.5 1933C265.167 1933 260.833 1929 256.5 1921C252.167 1913 250 1902.33 250 1889C250 1875.33 255.667 1844.33 267 1796C278.667 1747.67 291.167 1705.33 304.5 1669C243.167 1745.67 205.333 1791.5 191 1806.5C177 1821.5 165.333 1829 156 1829C147 1829 138.5 1823.83 130.5 1813.5C118.5 1796.17 102.333 1755.17 82 1690.5C76.3333 1725.5 70 1755.5 63 1780.5C56.3333 1805.17 51.8333 1821.67 49.5 1830C47.5 1838 45.6667 1844.67 44 1850C42.6667 1855.33 41 1861.67 39 1869C37 1876 35.1667 1881.83 33.5 1886.5C32.1667 1891.17 30.6667 1896.33 29 1902C27.3333 1907.33 25.8333 1911.67 24.5 1915C23.5 1918.33 22.3333 1921.5 21 1924.5C18.3333 1930.17 16.3333 1933 15 1933C11 1933 6 1928.67 4.76837e-07 1920C-6 1911.33 -9 1903 -9 1895C-9 1887 1.66667 1841 23 1757C44.6667 1673 55.5 1620.33 55.5 1599ZM461.531 1776.5C443.531 1833.5 434.531 1868 434.531 1880C434.531 1884 435.698 1887.33 438.031 1890C440.698 1892.33 444.031 1893.5 448.031 1893.5C486.365 1893.5 528.698 1887.33 575.031 1875C590.031 1871 598.698 1869 601.031 1869C606.031 1869 608.531 1872.5 608.531 1879.5C608.531 1891.5 590.031 1903.83 553.031 1916.5C516.365 1929.17 480.865 1935.5 446.531 1935.5C431.198 1935.5 417.698 1931 406.031 1922C394.698 1913 389.031 1901.67 389.031 1888C389.031 1874.33 393.865 1851 403.531 1818C413.531 1785 423.531 1749.83 433.531 1712.5C443.531 1675.17 448.531 1643.67 448.531 1618C448.531 1614.33 449.198 1610.5 450.531 1606.5C456.198 1594.17 492.531 1588 559.531 1588C626.531 1588 660.031 1592.83 660.031 1602.5C660.031 1609.17 652.865 1613.67 638.531 1616C626.531 1618.33 610.531 1620.5 590.531 1622.5C570.865 1624.17 557.031 1625.5 549.031 1626.5C541.031 1627.17 521.698 1630.17 491.031 1635.5V1637C491.031 1659.67 484.865 1693.83 472.531 1739.5C474.531 1739.83 481.198 1740 492.531 1740C504.198 1740 519.698 1739.17 539.031 1737.5C558.365 1735.83 572.865 1735 582.531 1735C592.531 1735 597.531 1737.33 597.531 1742C597.531 1753.67 583.865 1762.33 556.531 1768C529.198 1773.67 497.531 1776.5 461.531 1776.5ZM198 2084C206.667 2084 215.5 2089.5 224.5 2100.5C233.833 2111.5 238.5 2120.67 238.5 2128C238.5 2135 237.167 2138.5 234.5 2138.5C232.167 2138.5 227.5 2137.33 220.5 2135C213.5 2132.33 207.167 2131 201.5 2131C188.5 2131 172.667 2137.67 154 2151C135.667 2164.33 118.167 2180.83 101.5 2200.5C85.1667 2220.17 71.1667 2242.67 59.5 2268C47.8333 2293 42 2314.67 42 2333C42 2351.33 46.6667 2364.83 56 2373.5C65.6667 2381.83 78.1667 2386 93.5 2386C108.833 2386 124.667 2383.83 141 2379.5C157.333 2374.83 170.667 2369.67 181 2364C207.667 2349.67 222.333 2342.5 225 2342.5C230.667 2342.5 233.5 2346.33 233.5 2354C233.5 2361.33 225.833 2371.33 210.5 2384C195.167 2396.33 176.167 2407.5 153.5 2417.5C130.833 2427.5 110.5 2432.5 92.5 2432.5C69.1667 2432.5 47.1667 2422.5 26.5 2402.5C5.83334 2382.17 -4.5 2359.83 -4.5 2335.5C-4.5 2304.17 5.66667 2268.83 26 2229.5C46.6667 2189.83 73 2155.67 105 2127C137.333 2098.33 168.333 2084 198 2084ZM432.316 2365.5C454.316 2345.83 473.15 2321.67 488.816 2293C504.483 2264 512.316 2236.67 512.316 2211C512.316 2185.33 507.316 2164.5 497.316 2148.5C487.65 2132.5 476.15 2124.5 462.816 2124.5C449.483 2124.5 432.816 2134.83 412.816 2155.5C392.816 2176.17 374.816 2203.33 358.816 2237C342.816 2270.33 334.816 2302.33 334.816 2333C334.816 2351.33 338.816 2366.33 346.816 2378C354.816 2389.33 364.15 2395 374.816 2395C391.483 2395 410.65 2385.17 432.316 2365.5ZM371.816 2434.5C349.816 2434.5 330.483 2423.67 313.816 2402C297.483 2380.33 289.316 2358.33 289.316 2336C289.316 2305.67 294.816 2274.83 305.816 2243.5C317.15 2212.17 331.15 2184.83 347.816 2161.5C364.816 2138.17 383.483 2119.17 403.816 2104.5C424.15 2089.5 442.983 2082 460.316 2082C488.316 2082 511.65 2094.83 530.316 2120.5C548.983 2145.83 558.316 2174.5 558.316 2206.5C558.316 2238.5 549.483 2272.17 531.816 2307.5C514.15 2342.5 490.483 2372.5 460.816 2397.5C431.483 2422.17 401.816 2434.5 371.816 2434.5ZM849.957 2103C850.624 2088.67 853.957 2081.5 859.957 2081.5C866.29 2081.5 873.124 2085.33 880.457 2093C887.79 2100.67 891.457 2107.5 891.457 2113.5C891.457 2140.83 887.124 2179.67 878.457 2230C870.124 2280.33 858.79 2327 844.457 2370C830.457 2413 817.124 2434.5 804.457 2434.5C800.124 2434.5 795.124 2432.33 789.457 2428C784.124 2423.67 779.957 2418.33 776.957 2412C766.957 2388.67 737.457 2314.67 688.457 2190C678.457 2228.67 667.29 2272.5 654.957 2321.5C642.957 2370.17 634.957 2401.17 630.957 2414.5C626.957 2427.83 623.457 2434.5 620.457 2434.5C616.124 2434.5 610.79 2430.83 604.457 2423.5C598.457 2415.83 595.457 2408 595.457 2400C595.457 2392 606.29 2345.17 627.957 2259.5C649.624 2173.5 660.79 2119.83 661.457 2098.5C661.457 2087.83 664.29 2082.5 669.957 2082.5C673.624 2082.5 678.624 2085.67 684.957 2092C691.624 2098 696.457 2104.67 699.457 2112C753.124 2251.33 787.124 2336.67 801.457 2368C823.124 2310.67 837.624 2242.17 844.957 2162.5C848.29 2125.83 849.957 2106 849.957 2103ZM1049.34 2127L963.836 2131C958.503 2131 953.003 2127.5 947.336 2120.5C941.669 2113.5 938.836 2106.67 938.836 2100C938.836 2094 948.336 2090.17 967.336 2088.5C986.669 2086.83 1028.84 2086 1093.84 2086C1127.5 2086 1155.17 2089.67 1176.84 2097C1198.84 2104.33 1209.84 2112.5 1209.84 2121.5C1209.84 2127.83 1204.34 2131 1193.34 2131C1182.34 2131 1167 2130.33 1147.34 2129C1127.67 2127.67 1108.84 2126.83 1090.84 2126.5C1091.84 2129.83 1092.34 2133.5 1092.34 2137.5C1092.34 2149.83 1079.34 2207.17 1053.34 2309.5C1050.67 2320.17 1046.67 2336.83 1041.34 2359.5C1036 2382.17 1032 2398 1029.34 2407C1024.67 2424.67 1020.5 2433.5 1016.84 2433.5C1011.84 2433.5 1006.17 2429.83 999.836 2422.5C993.836 2414.83 990.836 2407.17 990.836 2399.5C990.836 2391.83 999.836 2352.5 1017.84 2281.5C1035.84 2210.17 1046.34 2158.67 1049.34 2127ZM1456.91 2261.5C1456.91 2267.83 1442.25 2275.17 1412.91 2283.5C1415.58 2318.17 1416.91 2347.67 1416.91 2372C1416.91 2414 1411.58 2435 1400.91 2435C1395.25 2435 1390.75 2431.5 1387.41 2424.5C1384.08 2417.5 1381.41 2405.33 1379.41 2388C1377.08 2356 1374.58 2324.67 1371.91 2294C1356.91 2298 1343.25 2301.67 1330.91 2305C1318.58 2308 1299.91 2313 1274.91 2320C1245.58 2396.67 1228.25 2435 1222.91 2435C1217.58 2435 1211.75 2431.83 1205.41 2425.5C1199.41 2418.83 1196.41 2411.83 1196.41 2404.5C1196.41 2401.17 1205.91 2377.5 1224.91 2333.5H1221.41C1214.75 2333.5 1208.75 2331.33 1203.41 2327C1198.41 2322.67 1195.91 2317.33 1195.91 2311C1195.91 2304.33 1212.41 2295.67 1245.41 2285C1250.75 2273 1255.08 2262.17 1258.41 2252.5C1266.08 2233.5 1276.75 2207.5 1290.41 2174.5C1304.08 2141.5 1312.75 2120.5 1316.41 2111.5C1320.08 2102.17 1326.41 2094.33 1335.41 2088C1344.75 2081.33 1353.75 2078 1362.41 2078C1372.75 2078 1381.91 2094.5 1389.91 2127.5C1398.25 2160.5 1404.91 2201.33 1409.91 2250C1419.25 2249 1427.41 2248.5 1434.41 2248.5C1449.41 2248.5 1456.91 2252.83 1456.91 2261.5ZM1293.41 2272C1317.08 2265.67 1342.08 2260.33 1368.41 2256C1362.41 2199 1356.58 2156.17 1350.91 2127.5C1335.91 2161.83 1316.75 2210 1293.41 2272ZM1714.11 2084C1722.78 2084 1731.61 2089.5 1740.61 2100.5C1749.95 2111.5 1754.61 2120.67 1754.61 2128C1754.61 2135 1753.28 2138.5 1750.61 2138.5C1748.28 2138.5 1743.61 2137.33 1736.61 2135C1729.61 2132.33 1723.28 2131 1717.61 2131C1704.61 2131 1688.78 2137.67 1670.11 2151C1651.78 2164.33 1634.28 2180.83 1617.61 2200.5C1601.28 2220.17 1587.28 2242.67 1575.61 2268C1563.95 2293 1558.11 2314.67 1558.11 2333C1558.11 2351.33 1562.78 2364.83 1572.11 2373.5C1581.78 2381.83 1594.28 2386 1609.61 2386C1624.95 2386 1640.78 2383.83 1657.11 2379.5C1673.45 2374.83 1686.78 2369.67 1697.11 2364C1723.78 2349.67 1738.45 2342.5 1741.11 2342.5C1746.78 2342.5 1749.61 2346.33 1749.61 2354C1749.61 2361.33 1741.95 2371.33 1726.61 2384C1711.28 2396.33 1692.28 2407.5 1669.61 2417.5C1646.95 2427.5 1626.61 2432.5 1608.61 2432.5C1585.28 2432.5 1563.28 2422.5 1542.61 2402.5C1521.95 2382.17 1511.61 2359.83 1511.61 2335.5C1511.61 2304.17 1521.78 2268.83 1542.11 2229.5C1562.78 2189.83 1589.11 2155.67 1621.11 2127C1653.45 2098.33 1684.45 2084 1714.11 2084ZM1920.43 2127L1834.93 2131C1829.6 2131 1824.1 2127.5 1818.43 2120.5C1812.76 2113.5 1809.93 2106.67 1809.93 2100C1809.93 2094 1819.43 2090.17 1838.43 2088.5C1857.76 2086.83 1899.93 2086 1964.93 2086C1998.6 2086 2026.26 2089.67 2047.93 2097C2069.93 2104.33 2080.93 2112.5 2080.93 2121.5C2080.93 2127.83 2075.43 2131 2064.43 2131C2053.43 2131 2038.1 2130.33 2018.43 2129C1998.76 2127.67 1979.93 2126.83 1961.93 2126.5C1962.93 2129.83 1963.43 2133.5 1963.43 2137.5C1963.43 2149.83 1950.43 2207.17 1924.43 2309.5C1921.76 2320.17 1917.76 2336.83 1912.43 2359.5C1907.1 2382.17 1903.1 2398 1900.43 2407C1895.76 2424.67 1891.6 2433.5 1887.93 2433.5C1882.93 2433.5 1877.26 2429.83 1870.93 2422.5C1864.93 2414.83 1861.93 2407.17 1861.93 2399.5C1861.93 2391.83 1870.93 2352.5 1888.93 2281.5C1906.93 2210.17 1917.43 2158.67 1920.43 2127ZM55.5 2599C55.5 2593.33 56.1667 2589.5 57.5 2587.5C59.1667 2585.17 62 2584 66 2584C70.3333 2584 77.6667 2588.5 88 2597.5C98.3333 2606.5 103.833 2614.5 104.5 2621.5C105.833 2633.5 112.167 2654.83 123.5 2685.5C134.833 2715.83 147.833 2746.67 162.5 2778C181.167 2756 204.667 2726.83 233 2690.5C261.333 2653.83 282.333 2627.83 296 2612.5C309.667 2597.17 319.5 2589.5 325.5 2589.5C331.5 2589.5 337.833 2592.83 344.5 2599.5C351.167 2606.17 354.5 2612.5 354.5 2618.5C354.5 2624.5 353.833 2631.33 352.5 2639C351.167 2646.67 348.833 2656.83 345.5 2669.5C342.5 2681.83 339.667 2692.67 337 2702C334.667 2711 330.667 2725.17 325 2744.5C319.333 2763.83 315 2779.33 312 2791C309 2802.33 305.5 2816.33 301.5 2833C297.5 2849.33 294.167 2862.83 291.5 2873.5C289.167 2883.83 286.667 2894 284 2904C279 2923.33 274.167 2933 269.5 2933C265.167 2933 260.833 2929 256.5 2921C252.167 2913 250 2902.33 250 2889C250 2875.33 255.667 2844.33 267 2796C278.667 2747.67 291.167 2705.33 304.5 2669C243.167 2745.67 205.333 2791.5 191 2806.5C177 2821.5 165.333 2829 156 2829C147 2829 138.5 2823.83 130.5 2813.5C118.5 2796.17 102.333 2755.17 82 2690.5C76.3333 2725.5 70 2755.5 63 2780.5C56.3333 2805.17 51.8333 2821.67 49.5 2830C47.5 2838 45.6667 2844.67 44 2850C42.6667 2855.33 41 2861.67 39 2869C37 2876 35.1667 2881.83 33.5 2886.5C32.1667 2891.17 30.6667 2896.33 29 2902C27.3333 2907.33 25.8333 2911.67 24.5 2915C23.5 2918.33 22.3333 2921.5 21 2924.5C18.3333 2930.17 16.3333 2933 15 2933C11 2933 6 2928.67 4.76837e-07 2920C-6 2911.33 -9 2903 -9 2895C-9 2887 1.66667 2841 23 2757C44.6667 2673 55.5 2620.33 55.5 2599ZM461.531 2776.5C443.531 2833.5 434.531 2868 434.531 2880C434.531 2884 435.698 2887.33 438.031 2890C440.698 2892.33 444.031 2893.5 448.031 2893.5C486.365 2893.5 528.698 2887.33 575.031 2875C590.031 2871 598.698 2869 601.031 2869C606.031 2869 608.531 2872.5 608.531 2879.5C608.531 2891.5 590.031 2903.83 553.031 2916.5C516.365 2929.17 480.865 2935.5 446.531 2935.5C431.198 2935.5 417.698 2931 406.031 2922C394.698 2913 389.031 2901.67 389.031 2888C389.031 2874.33 393.865 2851 403.531 2818C413.531 2785 423.531 2749.83 433.531 2712.5C443.531 2675.17 448.531 2643.67 448.531 2618C448.531 2614.33 449.198 2610.5 450.531 2606.5C456.198 2594.17 492.531 2588 559.531 2588C626.531 2588 660.031 2592.83 660.031 2602.5C660.031 2609.17 652.865 2613.67 638.531 2616C626.531 2618.33 610.531 2620.5 590.531 2622.5C570.865 2624.17 557.031 2625.5 549.031 2626.5C541.031 2627.17 521.698 2630.17 491.031 2635.5V2637C491.031 2659.67 484.865 2693.83 472.531 2739.5C474.531 2739.83 481.198 2740 492.531 2740C504.198 2740 519.698 2739.17 539.031 2737.5C558.365 2735.83 572.865 2735 582.531 2735C592.531 2735 597.531 2737.33 597.531 2742C597.531 2753.67 583.865 2762.33 556.531 2768C529.198 2773.67 497.531 2776.5 461.531 2776.5ZM198 3084C206.667 3084 215.5 3089.5 224.5 3100.5C233.833 3111.5 238.5 3120.67 238.5 3128C238.5 3135 237.167 3138.5 234.5 3138.5C232.167 3138.5 227.5 3137.33 220.5 3135C213.5 3132.33 207.167 3131 201.5 3131C188.5 3131 172.667 3137.67 154 3151C135.667 3164.33 118.167 3180.83 101.5 3200.5C85.1667 3220.17 71.1667 3242.67 59.5 3268C47.8333 3293 42 3314.67 42 3333C42 3351.33 46.6667 3364.83 56 3373.5C65.6667 3381.83 78.1667 3386 93.5 3386C108.833 3386 124.667 3383.83 141 3379.5C157.333 3374.83 170.667 3369.67 181 3364C207.667 3349.67 222.333 3342.5 225 3342.5C230.667 3342.5 233.5 3346.33 233.5 3354C233.5 3361.33 225.833 3371.33 210.5 3384C195.167 3396.33 176.167 3407.5 153.5 3417.5C130.833 3427.5 110.5 3432.5 92.5 3432.5C69.1667 3432.5 47.1667 3422.5 26.5 3402.5C5.83334 3382.17 -4.5 3359.83 -4.5 3335.5C-4.5 3304.17 5.66667 3268.83 26 3229.5C46.6667 3189.83 73 3155.67 105 3127C137.333 3098.33 168.333 3084 198 3084ZM432.316 3365.5C454.316 3345.83 473.15 3321.67 488.816 3293C504.483 3264 512.316 3236.67 512.316 3211C512.316 3185.33 507.316 3164.5 497.316 3148.5C487.65 3132.5 476.15 3124.5 462.816 3124.5C449.483 3124.5 432.816 3134.83 412.816 3155.5C392.816 3176.17 374.816 3203.33 358.816 3237C342.816 3270.33 334.816 3302.33 334.816 3333C334.816 3351.33 338.816 3366.33 346.816 3378C354.816 3389.33 364.15 3395 374.816 3395C391.483 3395 410.65 3385.17 432.316 3365.5ZM371.816 3434.5C349.816 3434.5 330.483 3423.67 313.816 3402C297.483 3380.33 289.316 3358.33 289.316 3336C289.316 3305.67 294.816 3274.83 305.816 3243.5C317.15 3212.17 331.15 3184.83 347.816 3161.5C364.816 3138.17 383.483 3119.17 403.816 3104.5C424.15 3089.5 442.983 3082 460.316 3082C488.316 3082 511.65 3094.83 530.316 3120.5C548.983 3145.83 558.316 3174.5 558.316 3206.5C558.316 3238.5 549.483 3272.17 531.816 3307.5C514.15 3342.5 490.483 3372.5 460.816 3397.5C431.483 3422.17 401.816 3434.5 371.816 3434.5ZM849.957 3103C850.624 3088.67 853.957 3081.5 859.957 3081.5C866.29 3081.5 873.124 3085.33 880.457 3093C887.79 3100.67 891.457 3107.5 891.457 3113.5C891.457 3140.83 887.124 3179.67 878.457 3230C870.124 3280.33 858.79 3327 844.457 3370C830.457 3413 817.124 3434.5 804.457 3434.5C800.124 3434.5 795.124 3432.33 789.457 3428C784.124 3423.67 779.957 3418.33 776.957 3412C766.957 3388.67 737.457 3314.67 688.457 3190C678.457 3228.67 667.29 3272.5 654.957 3321.5C642.957 3370.17 634.957 3401.17 630.957 3414.5C626.957 3427.83 623.457 3434.5 620.457 3434.5C616.124 3434.5 610.79 3430.83 604.457 3423.5C598.457 3415.83 595.457 3408 595.457 3400C595.457 3392 606.29 3345.17 627.957 3259.5C649.624 3173.5 660.79 3119.83 661.457 3098.5C661.457 3087.83 664.29 3082.5 669.957 3082.5C673.624 3082.5 678.624 3085.67 684.957 3092C691.624 3098 696.457 3104.67 699.457 3112C753.124 3251.33 787.124 3336.67 801.457 3368C823.124 3310.67 837.624 3242.17 844.957 3162.5C848.29 3125.83 849.957 3106 849.957 3103ZM1049.34 3127L963.836 3131C958.503 3131 953.003 3127.5 947.336 3120.5C941.669 3113.5 938.836 3106.67 938.836 3100C938.836 3094 948.336 3090.17 967.336 3088.5C986.669 3086.83 1028.84 3086 1093.84 3086C1127.5 3086 1155.17 3089.67 1176.84 3097C1198.84 3104.33 1209.84 3112.5 1209.84 3121.5C1209.84 3127.83 1204.34 3131 1193.34 3131C1182.34 3131 1167 3130.33 1147.34 3129C1127.67 3127.67 1108.84 3126.83 1090.84 3126.5C1091.84 3129.83 1092.34 3133.5 1092.34 3137.5C1092.34 3149.83 1079.34 3207.17 1053.34 3309.5C1050.67 3320.17 1046.67 3336.83 1041.34 3359.5C1036 3382.17 1032 3398 1029.34 3407C1024.67 3424.67 1020.5 3433.5 1016.84 3433.5C1011.84 3433.5 1006.17 3429.83 999.836 3422.5C993.836 3414.83 990.836 3407.17 990.836 3399.5C990.836 3391.83 999.836 3352.5 1017.84 3281.5C1035.84 3210.17 1046.34 3158.67 1049.34 3127ZM1456.91 3261.5C1456.91 3267.83 1442.25 3275.17 1412.91 3283.5C1415.58 3318.17 1416.91 3347.67 1416.91 3372C1416.91 3414 1411.58 3435 1400.91 3435C1395.25 3435 1390.75 3431.5 1387.41 3424.5C1384.08 3417.5 1381.41 3405.33 1379.41 3388C1377.08 3356 1374.58 3324.67 1371.91 3294C1356.91 3298 1343.25 3301.67 1330.91 3305C1318.58 3308 1299.91 3313 1274.91 3320C1245.58 3396.67 1228.25 3435 1222.91 3435C1217.58 3435 1211.75 3431.83 1205.41 3425.5C1199.41 3418.83 1196.41 3411.83 1196.41 3404.5C1196.41 3401.17 1205.91 3377.5 1224.91 3333.5H1221.41C1214.75 3333.5 1208.75 3331.33 1203.41 3327C1198.41 3322.67 1195.91 3317.33 1195.91 3311C1195.91 3304.33 1212.41 3295.67 1245.41 3285C1250.75 3273 1255.08 3262.17 1258.41 3252.5C1266.08 3233.5 1276.75 3207.5 1290.41 3174.5C1304.08 3141.5 1312.75 3120.5 1316.41 3111.5C1320.08 3102.17 1326.41 3094.33 1335.41 3088C1344.75 3081.33 1353.75 3078 1362.41 3078C1372.75 3078 1381.91 3094.5 1389.91 3127.5C1398.25 3160.5 1404.91 3201.33 1409.91 3250C1419.25 3249 1427.41 3248.5 1434.41 3248.5C1449.41 3248.5 1456.91 3252.83 1456.91 3261.5ZM1293.41 3272C1317.08 3265.67 1342.08 3260.33 1368.41 3256C1362.41 3199 1356.58 3156.17 1350.91 3127.5C1335.91 3161.83 1316.75 3210 1293.41 3272ZM1714.11 3084C1722.78 3084 1731.61 3089.5 1740.61 3100.5C1749.95 3111.5 1754.61 3120.67 1754.61 3128C1754.61 3135 1753.28 3138.5 1750.61 3138.5C1748.28 3138.5 1743.61 3137.33 1736.61 3135C1729.61 3132.33 1723.28 3131 1717.61 3131C1704.61 3131 1688.78 3137.67 1670.11 3151C1651.78 3164.33 1634.28 3180.83 1617.61 3200.5C1601.28 3220.17 1587.28 3242.67 1575.61 3268C1563.95 3293 1558.11 3314.67 1558.11 3333C1558.11 3351.33 1562.78 3364.83 1572.11 3373.5C1581.78 3381.83 1594.28 3386 1609.61 3386C1624.95 3386 1640.78 3383.83 1657.11 3379.5C1673.45 3374.83 1686.78 3369.67 1697.11 3364C1723.78 3349.67 1738.45 3342.5 1741.11 3342.5C1746.78 3342.5 1749.61 3346.33 1749.61 3354C1749.61 3361.33 1741.95 3371.33 1726.61 3384C1711.28 3396.33 1692.28 3407.5 1669.61 3417.5C1646.95 3427.5 1626.61 3432.5 1608.61 3432.5C1585.28 3432.5 1563.28 3422.5 1542.61 3402.5C1521.95 3382.17 1511.61 3359.83 1511.61 3335.5C1511.61 3304.17 1521.78 3268.83 1542.11 3229.5C1562.78 3189.83 1589.11 3155.67 1621.11 3127C1653.45 3098.33 1684.45 3084 1714.11 3084ZM1920.43 3127L1834.93 3131C1829.6 3131 1824.1 3127.5 1818.43 3120.5C1812.76 3113.5 1809.93 3106.67 1809.93 3100C1809.93 3094 1819.43 3090.17 1838.43 3088.5C1857.76 3086.83 1899.93 3086 1964.93 3086C1998.6 3086 2026.26 3089.67 2047.93 3097C2069.93 3104.33 2080.93 3112.5 2080.93 3121.5C2080.93 3127.83 2075.43 3131 2064.43 3131C2053.43 3131 2038.1 3130.33 2018.43 3129C1998.76 3127.67 1979.93 3126.83 1961.93 3126.5C1962.93 3129.83 1963.43 3133.5 1963.43 3137.5C1963.43 3149.83 1950.43 3207.17 1924.43 3309.5C1921.76 3320.17 1917.76 3336.83 1912.43 3359.5C1907.1 3382.17 1903.1 3398 1900.43 3407C1895.76 3424.67 1891.6 3433.5 1887.93 3433.5C1882.93 3433.5 1877.26 3429.83 1870.93 3422.5C1864.93 3414.83 1861.93 3407.17 1861.93 3399.5C1861.93 3391.83 1870.93 3352.5 1888.93 3281.5C1906.93 3210.17 1917.43 3158.67 1920.43 3127ZM55.5 3599C55.5 3593.33 56.1667 3589.5 57.5 3587.5C59.1667 3585.17 62 3584 66 3584C70.3333 3584 77.6667 3588.5 88 3597.5C98.3333 3606.5 103.833 3614.5 104.5 3621.5C105.833 3633.5 112.167 3654.83 123.5 3685.5C134.833 3715.83 147.833 3746.67 162.5 3778C181.167 3756 204.667 3726.83 233 3690.5C261.333 3653.83 282.333 3627.83 296 3612.5C309.667 3597.17 319.5 3589.5 325.5 3589.5C331.5 3589.5 337.833 3592.83 344.5 3599.5C351.167 3606.17 354.5 3612.5 354.5 3618.5C354.5 3624.5 353.833 3631.33 352.5 3639C351.167 3646.67 348.833 3656.83 345.5 3669.5C342.5 3681.83 339.667 3692.67 337 3702C334.667 3711 330.667 3725.17 325 3744.5C319.333 3763.83 315 3779.33 312 3791C309 3802.33 305.5 3816.33 301.5 3833C297.5 3849.33 294.167 3862.83 291.5 3873.5C289.167 3883.83 286.667 3894 284 3904C279 3923.33 274.167 3933 269.5 3933C265.167 3933 260.833 3929 256.5 3921C252.167 3913 250 3902.33 250 3889C250 3875.33 255.667 3844.33 267 3796C278.667 3747.67 291.167 3705.33 304.5 3669C243.167 3745.67 205.333 3791.5 191 3806.5C177 3821.5 165.333 3829 156 3829C147 3829 138.5 3823.83 130.5 3813.5C118.5 3796.17 102.333 3755.17 82 3690.5C76.3333 3725.5 70 3755.5 63 3780.5C56.3333 3805.17 51.8333 3821.67 49.5 3830C47.5 3838 45.6667 3844.67 44 3850C42.6667 3855.33 41 3861.67 39 3869C37 3876 35.1667 3881.83 33.5 3886.5C32.1667 3891.17 30.6667 3896.33 29 3902C27.3333 3907.33 25.8333 3911.67 24.5 3915C23.5 3918.33 22.3333 3921.5 21 3924.5C18.3333 3930.17 16.3333 3933 15 3933C11 3933 6 3928.67 4.76837e-07 3920C-6 3911.33 -9 3903 -9 3895C-9 3887 1.66667 3841 23 3757C44.6667 3673 55.5 3620.33 55.5 3599ZM461.531 3776.5C443.531 3833.5 434.531 3868 434.531 3880C434.531 3884 435.698 3887.33 438.031 3890C440.698 3892.33 444.031 3893.5 448.031 3893.5C486.365 3893.5 528.698 3887.33 575.031 3875C590.031 3871 598.698 3869 601.031 3869C606.031 3869 608.531 3872.5 608.531 3879.5C608.531 3891.5 590.031 3903.83 553.031 3916.5C516.365 3929.17 480.865 3935.5 446.531 3935.5C431.198 3935.5 417.698 3931 406.031 3922C394.698 3913 389.031 3901.67 389.031 3888C389.031 3874.33 393.865 3851 403.531 3818C413.531 3785 423.531 3749.83 433.531 3712.5C443.531 3675.17 448.531 3643.67 448.531 3618C448.531 3614.33 449.198 3610.5 450.531 3606.5C456.198 3594.17 492.531 3588 559.531 3588C626.531 3588 660.031 3592.83 660.031 3602.5C660.031 3609.17 652.865 3613.67 638.531 3616C626.531 3618.33 610.531 3620.5 590.531 3622.5C570.865 3624.17 557.031 3625.5 549.031 3626.5C541.031 3627.17 521.698 3630.17 491.031 3635.5V3637C491.031 3659.67 484.865 3693.83 472.531 3739.5C474.531 3739.83 481.198 3740 492.531 3740C504.198 3740 519.698 3739.17 539.031 3737.5C558.365 3735.83 572.865 3735 582.531 3735C592.531 3735 597.531 3737.33 597.531 3742C597.531 3753.67 583.865 3762.33 556.531 3768C529.198 3773.67 497.531 3776.5 461.531 3776.5ZM198 4084C206.667 4084 215.5 4089.5 224.5 4100.5C233.833 4111.5 238.5 4120.67 238.5 4128C238.5 4135 237.167 4138.5 234.5 4138.5C232.167 4138.5 227.5 4137.33 220.5 4135C213.5 4132.33 207.167 4131 201.5 4131C188.5 4131 172.667 4137.67 154 4151C135.667 4164.33 118.167 4180.83 101.5 4200.5C85.1667 4220.17 71.1667 4242.67 59.5 4268C47.8333 4293 42 4314.67 42 4333C42 4351.33 46.6667 4364.83 56 4373.5C65.6667 4381.83 78.1667 4386 93.5 4386C108.833 4386 124.667 4383.83 141 4379.5C157.333 4374.83 170.667 4369.67 181 4364C207.667 4349.67 222.333 4342.5 225 4342.5C230.667 4342.5 233.5 4346.33 233.5 4354C233.5 4361.33 225.833 4371.33 210.5 4384C195.167 4396.33 176.167 4407.5 153.5 4417.5C130.833 4427.5 110.5 4432.5 92.5 4432.5C69.1667 4432.5 47.1667 4422.5 26.5 4402.5C5.83334 4382.17 -4.5 4359.83 -4.5 4335.5C-4.5 4304.17 5.66667 4268.83 26 4229.5C46.6667 4189.83 73 4155.67 105 4127C137.333 4098.33 168.333 4084 198 4084ZM432.316 4365.5C454.316 4345.83 473.15 4321.67 488.816 4293C504.483 4264 512.316 4236.67 512.316 4211C512.316 4185.33 507.316 4164.5 497.316 4148.5C487.65 4132.5 476.15 4124.5 462.816 4124.5C449.483 4124.5 432.816 4134.83 412.816 4155.5C392.816 4176.17 374.816 4203.33 358.816 4237C342.816 4270.33 334.816 4302.33 334.816 4333C334.816 4351.33 338.816 4366.33 346.816 4378C354.816 4389.33 364.15 4395 374.816 4395C391.483 4395 410.65 4385.17 432.316 4365.5ZM371.816 4434.5C349.816 4434.5 330.483 4423.67 313.816 4402C297.483 4380.33 289.316 4358.33 289.316 4336C289.316 4305.67 294.816 4274.83 305.816 4243.5C317.15 4212.17 331.15 4184.83 347.816 4161.5C364.816 4138.17 383.483 4119.17 403.816 4104.5C424.15 4089.5 442.983 4082 460.316 4082C488.316 4082 511.65 4094.83 530.316 4120.5C548.983 4145.83 558.316 4174.5 558.316 4206.5C558.316 4238.5 549.483 4272.17 531.816 4307.5C514.15 4342.5 490.483 4372.5 460.816 4397.5C431.483 4422.17 401.816 4434.5 371.816 4434.5ZM849.957 4103C850.624 4088.67 853.957 4081.5 859.957 4081.5C866.29 4081.5 873.124 4085.33 880.457 4093C887.79 4100.67 891.457 4107.5 891.457 4113.5C891.457 4140.83 887.124 4179.67 878.457 4230C870.124 4280.33 858.79 4327 844.457 4370C830.457 4413 817.124 4434.5 804.457 4434.5C800.124 4434.5 795.124 4432.33 789.457 4428C784.124 4423.67 779.957 4418.33 776.957 4412C766.957 4388.67 737.457 4314.67 688.457 4190C678.457 4228.67 667.29 4272.5 654.957 4321.5C642.957 4370.17 634.957 4401.17 630.957 4414.5C626.957 4427.83 623.457 4434.5 620.457 4434.5C616.124 4434.5 610.79 4430.83 604.457 4423.5C598.457 4415.83 595.457 4408 595.457 4400C595.457 4392 606.29 4345.17 627.957 4259.5C649.624 4173.5 660.79 4119.83 661.457 4098.5C661.457 4087.83 664.29 4082.5 669.957 4082.5C673.624 4082.5 678.624 4085.67 684.957 4092C691.624 4098 696.457 4104.67 699.457 4112C753.124 4251.33 787.124 4336.67 801.457 4368C823.124 4310.67 837.624 4242.17 844.957 4162.5C848.29 4125.83 849.957 4106 849.957 4103ZM1049.34 4127L963.836 4131C958.503 4131 953.003 4127.5 947.336 4120.5C941.669 4113.5 938.836 4106.67 938.836 4100C938.836 4094 948.336 4090.17 967.336 4088.5C986.669 4086.83 1028.84 4086 1093.84 4086C1127.5 4086 1155.17 4089.67 1176.84 4097C1198.84 4104.33 1209.84 4112.5 1209.84 4121.5C1209.84 4127.83 1204.34 4131 1193.34 4131C1182.34 4131 1167 4130.33 1147.34 4129C1127.67 4127.67 1108.84 4126.83 1090.84 4126.5C1091.84 4129.83 1092.34 4133.5 1092.34 4137.5C1092.34 4149.83 1079.34 4207.17 1053.34 4309.5C1050.67 4320.17 1046.67 4336.83 1041.34 4359.5C1036 4382.17 1032 4398 1029.34 4407C1024.67 4424.67 1020.5 4433.5 1016.84 4433.5C1011.84 4433.5 1006.17 4429.83 999.836 4422.5C993.836 4414.83 990.836 4407.17 990.836 4399.5C990.836 4391.83 999.836 4352.5 1017.84 4281.5C1035.84 4210.17 1046.34 4158.67 1049.34 4127ZM1456.91 4261.5C1456.91 4267.83 1442.25 4275.17 1412.91 4283.5C1415.58 4318.17 1416.91 4347.67 1416.91 4372C1416.91 4414 1411.58 4435 1400.91 4435C1395.25 4435 1390.75 4431.5 1387.41 4424.5C1384.08 4417.5 1381.41 4405.33 1379.41 4388C1377.08 4356 1374.58 4324.67 1371.91 4294C1356.91 4298 1343.25 4301.67 1330.91 4305C1318.58 4308 1299.91 4313 1274.91 4320C1245.58 4396.67 1228.25 4435 1222.91 4435C1217.58 4435 1211.75 4431.83 1205.41 4425.5C1199.41 4418.83 1196.41 4411.83 1196.41 4404.5C1196.41 4401.17 1205.91 4377.5 1224.91 4333.5H1221.41C1214.75 4333.5 1208.75 4331.33 1203.41 4327C1198.41 4322.67 1195.91 4317.33 1195.91 4311C1195.91 4304.33 1212.41 4295.67 1245.41 4285C1250.75 4273 1255.08 4262.17 1258.41 4252.5C1266.08 4233.5 1276.75 4207.5 1290.41 4174.5C1304.08 4141.5 1312.75 4120.5 1316.41 4111.5C1320.08 4102.17 1326.41 4094.33 1335.41 4088C1344.75 4081.33 1353.75 4078 1362.41 4078C1372.75 4078 1381.91 4094.5 1389.91 4127.5C1398.25 4160.5 1404.91 4201.33 1409.91 4250C1419.25 4249 1427.41 4248.5 1434.41 4248.5C1449.41 4248.5 1456.91 4252.83 1456.91 4261.5ZM1293.41 4272C1317.08 4265.67 1342.08 4260.33 1368.41 4256C1362.41 4199 1356.58 4156.17 1350.91 4127.5C1335.91 4161.83 1316.75 4210 1293.41 4272ZM1714.11 4084C1722.78 4084 1731.61 4089.5 1740.61 4100.5C1749.95 4111.5 1754.61 4120.67 1754.61 4128C1754.61 4135 1753.28 4138.5 1750.61 4138.5C1748.28 4138.5 1743.61 4137.33 1736.61 4135C1729.61 4132.33 1723.28 4131 1717.61 4131C1704.61 4131 1688.78 4137.67 1670.11 4151C1651.78 4164.33 1634.28 4180.83 1617.61 4200.5C1601.28 4220.17 1587.28 4242.67 1575.61 4268C1563.95 4293 1558.11 4314.67 1558.11 4333C1558.11 4351.33 1562.78 4364.83 1572.11 4373.5C1581.78 4381.83 1594.28 4386 1609.61 4386C1624.95 4386 1640.78 4383.83 1657.11 4379.5C1673.45 4374.83 1686.78 4369.67 1697.11 4364C1723.78 4349.67 1738.45 4342.5 1741.11 4342.5C1746.78 4342.5 1749.61 4346.33 1749.61 4354C1749.61 4361.33 1741.95 4371.33 1726.61 4384C1711.28 4396.33 1692.28 4407.5 1669.61 4417.5C1646.95 4427.5 1626.61 4432.5 1608.61 4432.5C1585.28 4432.5 1563.28 4422.5 1542.61 4402.5C1521.95 4382.17 1511.61 4359.83 1511.61 4335.5C1511.61 4304.17 1521.78 4268.83 1542.11 4229.5C1562.78 4189.83 1589.11 4155.67 1621.11 4127C1653.45 4098.33 1684.45 4084 1714.11 4084ZM1920.43 4127L1834.93 4131C1829.6 4131 1824.1 4127.5 1818.43 4120.5C1812.76 4113.5 1809.93 4106.67 1809.93 4100C1809.93 4094 1819.43 4090.17 1838.43 4088.5C1857.76 4086.83 1899.93 4086 1964.93 4086C1998.6 4086 2026.26 4089.67 2047.93 4097C2069.93 4104.33 2080.93 4112.5 2080.93 4121.5C2080.93 4127.83 2075.43 4131 2064.43 4131C2053.43 4131 2038.1 4130.33 2018.43 4129C1998.76 4127.67 1979.93 4126.83 1961.93 4126.5C1962.93 4129.83 1963.43 4133.5 1963.43 4137.5C1963.43 4149.83 1950.43 4207.17 1924.43 4309.5C1921.76 4320.17 1917.76 4336.83 1912.43 4359.5C1907.1 4382.17 1903.1 4398 1900.43 4407C1895.76 4424.67 1891.6 4433.5 1887.93 4433.5C1882.93 4433.5 1877.26 4429.83 1870.93 4422.5C1864.93 4414.83 1861.93 4407.17 1861.93 4399.5C1861.93 4391.83 1870.93 4352.5 1888.93 4281.5C1906.93 4210.17 1917.43 4158.67 1920.43 4127ZM55.5 4599C55.5 4593.33 56.1667 4589.5 57.5 4587.5C59.1667 4585.17 62 4584 66 4584C70.3333 4584 77.6667 4588.5 88 4597.5C98.3333 4606.5 103.833 4614.5 104.5 4621.5C105.833 4633.5 112.167 4654.83 123.5 4685.5C134.833 4715.83 147.833 4746.67 162.5 4778C181.167 4756 204.667 4726.83 233 4690.5C261.333 4653.83 282.333 4627.83 296 4612.5C309.667 4597.17 319.5 4589.5 325.5 4589.5C331.5 4589.5 337.833 4592.83 344.5 4599.5C351.167 4606.17 354.5 4612.5 354.5 4618.5C354.5 4624.5 353.833 4631.33 352.5 4639C351.167 4646.67 348.833 4656.83 345.5 4669.5C342.5 4681.83 339.667 4692.67 337 4702C334.667 4711 330.667 4725.17 325 4744.5C319.333 4763.83 315 4779.33 312 4791C309 4802.33 305.5 4816.33 301.5 4833C297.5 4849.33 294.167 4862.83 291.5 4873.5C289.167 4883.83 286.667 4894 284 4904C279 4923.33 274.167 4933 269.5 4933C265.167 4933 260.833 4929 256.5 4921C252.167 4913 250 4902.33 250 4889C250 4875.33 255.667 4844.33 267 4796C278.667 4747.67 291.167 4705.33 304.5 4669C243.167 4745.67 205.333 4791.5 191 4806.5C177 4821.5 165.333 4829 156 4829C147 4829 138.5 4823.83 130.5 4813.5C118.5 4796.17 102.333 4755.17 82 4690.5C76.3333 4725.5 70 4755.5 63 4780.5C56.3333 4805.17 51.8333 4821.67 49.5 4830C47.5 4838 45.6667 4844.67 44 4850C42.6667 4855.33 41 4861.67 39 4869C37 4876 35.1667 4881.83 33.5 4886.5C32.1667 4891.17 30.6667 4896.33 29 4902C27.3333 4907.33 25.8333 4911.67 24.5 4915C23.5 4918.33 22.3333 4921.5 21 4924.5C18.3333 4930.17 16.3333 4933 15 4933C11 4933 6 4928.67 4.76837e-07 4920C-6 4911.33 -9 4903 -9 4895C-9 4887 1.66667 4841 23 4757C44.6667 4673 55.5 4620.33 55.5 4599ZM461.531 4776.5C443.531 4833.5 434.531 4868 434.531 4880C434.531 4884 435.698 4887.33 438.031 4890C440.698 4892.33 444.031 4893.5 448.031 4893.5C486.365 4893.5 528.698 4887.33 575.031 4875C590.031 4871 598.698 4869 601.031 4869C606.031 4869 608.531 4872.5 608.531 4879.5C608.531 4891.5 590.031 4903.83 553.031 4916.5C516.365 4929.17 480.865 4935.5 446.531 4935.5C431.198 4935.5 417.698 4931 406.031 4922C394.698 4913 389.031 4901.67 389.031 4888C389.031 4874.33 393.865 4851 403.531 4818C413.531 4785 423.531 4749.83 433.531 4712.5C443.531 4675.17 448.531 4643.67 448.531 4618C448.531 4614.33 449.198 4610.5 450.531 4606.5C456.198 4594.17 492.531 4588 559.531 4588C626.531 4588 660.031 4592.83 660.031 4602.5C660.031 4609.17 652.865 4613.67 638.531 4616C626.531 4618.33 610.531 4620.5 590.531 4622.5C570.865 4624.17 557.031 4625.5 549.031 4626.5C541.031 4627.17 521.698 4630.17 491.031 4635.5V4637C491.031 4659.67 484.865 4693.83 472.531 4739.5C474.531 4739.83 481.198 4740 492.531 4740C504.198 4740 519.698 4739.17 539.031 4737.5C558.365 4735.83 572.865 4735 582.531 4735C592.531 4735 597.531 4737.33 597.531 4742C597.531 4753.67 583.865 4762.33 556.531 4768C529.198 4773.67 497.531 4776.5 461.531 4776.5ZM198 5084C206.667 5084 215.5 5089.5 224.5 5100.5C233.833 5111.5 238.5 5120.67 238.5 5128C238.5 5135 237.167 5138.5 234.5 5138.5C232.167 5138.5 227.5 5137.33 220.5 5135C213.5 5132.33 207.167 5131 201.5 5131C188.5 5131 172.667 5137.67 154 5151C135.667 5164.33 118.167 5180.83 101.5 5200.5C85.1667 5220.17 71.1667 5242.67 59.5 5268C47.8333 5293 42 5314.67 42 5333C42 5351.33 46.6667 5364.83 56 5373.5C65.6667 5381.83 78.1667 5386 93.5 5386C108.833 5386 124.667 5383.83 141 5379.5C157.333 5374.83 170.667 5369.67 181 5364C207.667 5349.67 222.333 5342.5 225 5342.5C230.667 5342.5 233.5 5346.33 233.5 5354C233.5 5361.33 225.833 5371.33 210.5 5384C195.167 5396.33 176.167 5407.5 153.5 5417.5C130.833 5427.5 110.5 5432.5 92.5 5432.5C69.1667 5432.5 47.1667 5422.5 26.5 5402.5C5.83334 5382.17 -4.5 5359.83 -4.5 5335.5C-4.5 5304.17 5.66667 5268.83 26 5229.5C46.6667 5189.83 73 5155.67 105 5127C137.333 5098.33 168.333 5084 198 5084ZM432.316 5365.5C454.316 5345.83 473.15 5321.67 488.816 5293C504.483 5264 512.316 5236.67 512.316 5211C512.316 5185.33 507.316 5164.5 497.316 5148.5C487.65 5132.5 476.15 5124.5 462.816 5124.5C449.483 5124.5 432.816 5134.83 412.816 5155.5C392.816 5176.17 374.816 5203.33 358.816 5237C342.816 5270.33 334.816 5302.33 334.816 5333C334.816 5351.33 338.816 5366.33 346.816 5378C354.816 5389.33 364.15 5395 374.816 5395C391.483 5395 410.65 5385.17 432.316 5365.5ZM371.816 5434.5C349.816 5434.5 330.483 5423.67 313.816 5402C297.483 5380.33 289.316 5358.33 289.316 5336C289.316 5305.67 294.816 5274.83 305.816 5243.5C317.15 5212.17 331.15 5184.83 347.816 5161.5C364.816 5138.17 383.483 5119.17 403.816 5104.5C424.15 5089.5 442.983 5082 460.316 5082C488.316 5082 511.65 5094.83 530.316 5120.5C548.983 5145.83 558.316 5174.5 558.316 5206.5C558.316 5238.5 549.483 5272.17 531.816 5307.5C514.15 5342.5 490.483 5372.5 460.816 5397.5C431.483 5422.17 401.816 5434.5 371.816 5434.5ZM849.957 5103C850.624 5088.67 853.957 5081.5 859.957 5081.5C866.29 5081.5 873.124 5085.33 880.457 5093C887.79 5100.67 891.457 5107.5 891.457 5113.5C891.457 5140.83 887.124 5179.67 878.457 5230C870.124 5280.33 858.79 5327 844.457 5370C830.457 5413 817.124 5434.5 804.457 5434.5C800.124 5434.5 795.124 5432.33 789.457 5428C784.124 5423.67 779.957 5418.33 776.957 5412C766.957 5388.67 737.457 5314.67 688.457 5190C678.457 5228.67 667.29 5272.5 654.957 5321.5C642.957 5370.17 634.957 5401.17 630.957 5414.5C626.957 5427.83 623.457 5434.5 620.457 5434.5C616.124 5434.5 610.79 5430.83 604.457 5423.5C598.457 5415.83 595.457 5408 595.457 5400C595.457 5392 606.29 5345.17 627.957 5259.5C649.624 5173.5 660.79 5119.83 661.457 5098.5C661.457 5087.83 664.29 5082.5 669.957 5082.5C673.624 5082.5 678.624 5085.67 684.957 5092C691.624 5098 696.457 5104.67 699.457 5112C753.124 5251.33 787.124 5336.67 801.457 5368C823.124 5310.67 837.624 5242.17 844.957 5162.5C848.29 5125.83 849.957 5106 849.957 5103ZM1049.34 5127L963.836 5131C958.503 5131 953.003 5127.5 947.336 5120.5C941.669 5113.5 938.836 5106.67 938.836 5100C938.836 5094 948.336 5090.17 967.336 5088.5C986.669 5086.83 1028.84 5086 1093.84 5086C1127.5 5086 1155.17 5089.67 1176.84 5097C1198.84 5104.33 1209.84 5112.5 1209.84 5121.5C1209.84 5127.83 1204.34 5131 1193.34 5131C1182.34 5131 1167 5130.33 1147.34 5129C1127.67 5127.67 1108.84 5126.83 1090.84 5126.5C1091.84 5129.83 1092.34 5133.5 1092.34 5137.5C1092.34 5149.83 1079.34 5207.17 1053.34 5309.5C1050.67 5320.17 1046.67 5336.83 1041.34 5359.5C1036 5382.17 1032 5398 1029.34 5407C1024.67 5424.67 1020.5 5433.5 1016.84 5433.5C1011.84 5433.5 1006.17 5429.83 999.836 5422.5C993.836 5414.83 990.836 5407.17 990.836 5399.5C990.836 5391.83 999.836 5352.5 1017.84 5281.5C1035.84 5210.17 1046.34 5158.67 1049.34 5127ZM1456.91 5261.5C1456.91 5267.83 1442.25 5275.17 1412.91 5283.5C1415.58 5318.17 1416.91 5347.67 1416.91 5372C1416.91 5414 1411.58 5435 1400.91 5435C1395.25 5435 1390.75 5431.5 1387.41 5424.5C1384.08 5417.5 1381.41 5405.33 1379.41 5388C1377.08 5356 1374.58 5324.67 1371.91 5294C1356.91 5298 1343.25 5301.67 1330.91 5305C1318.58 5308 1299.91 5313 1274.91 5320C1245.58 5396.67 1228.25 5435 1222.91 5435C1217.58 5435 1211.75 5431.83 1205.41 5425.5C1199.41 5418.83 1196.41 5411.83 1196.41 5404.5C1196.41 5401.17 1205.91 5377.5 1224.91 5333.5H1221.41C1214.75 5333.5 1208.75 5331.33 1203.41 5327C1198.41 5322.67 1195.91 5317.33 1195.91 5311C1195.91 5304.33 1212.41 5295.67 1245.41 5285C1250.75 5273 1255.08 5262.17 1258.41 5252.5C1266.08 5233.5 1276.75 5207.5 1290.41 5174.5C1304.08 5141.5 1312.75 5120.5 1316.41 5111.5C1320.08 5102.17 1326.41 5094.33 1335.41 5088C1344.75 5081.33 1353.75 5078 1362.41 5078C1372.75 5078 1381.91 5094.5 1389.91 5127.5C1398.25 5160.5 1404.91 5201.33 1409.91 5250C1419.25 5249 1427.41 5248.5 1434.41 5248.5C1449.41 5248.5 1456.91 5252.83 1456.91 5261.5ZM1293.41 5272C1317.08 5265.67 1342.08 5260.33 1368.41 5256C1362.41 5199 1356.58 5156.17 1350.91 5127.5C1335.91 5161.83 1316.75 5210 1293.41 5272ZM1714.11 5084C1722.78 5084 1731.61 5089.5 1740.61 5100.5C1749.95 5111.5 1754.61 5120.67 1754.61 5128C1754.61 5135 1753.28 5138.5 1750.61 5138.5C1748.28 5138.5 1743.61 5137.33 1736.61 5135C1729.61 5132.33 1723.28 5131 1717.61 5131C1704.61 5131 1688.78 5137.67 1670.11 5151C1651.78 5164.33 1634.28 5180.83 1617.61 5200.5C1601.28 5220.17 1587.28 5242.67 1575.61 5268C1563.95 5293 1558.11 5314.67 1558.11 5333C1558.11 5351.33 1562.78 5364.83 1572.11 5373.5C1581.78 5381.83 1594.28 5386 1609.61 5386C1624.95 5386 1640.78 5383.83 1657.11 5379.5C1673.45 5374.83 1686.78 5369.67 1697.11 5364C1723.78 5349.67 1738.45 5342.5 1741.11 5342.5C1746.78 5342.5 1749.61 5346.33 1749.61 5354C1749.61 5361.33 1741.95 5371.33 1726.61 5384C1711.28 5396.33 1692.28 5407.5 1669.61 5417.5C1646.95 5427.5 1626.61 5432.5 1608.61 5432.5C1585.28 5432.5 1563.28 5422.5 1542.61 5402.5C1521.95 5382.17 1511.61 5359.83 1511.61 5335.5C1511.61 5304.17 1521.78 5268.83 1542.11 5229.5C1562.78 5189.83 1589.11 5155.67 1621.11 5127C1653.45 5098.33 1684.45 5084 1714.11 5084ZM1920.43 5127L1834.93 5131C1829.6 5131 1824.1 5127.5 1818.43 5120.5C1812.76 5113.5 1809.93 5106.67 1809.93 5100C1809.93 5094 1819.43 5090.17 1838.43 5088.5C1857.76 5086.83 1899.93 5086 1964.93 5086C1998.6 5086 2026.26 5089.67 2047.93 5097C2069.93 5104.33 2080.93 5112.5 2080.93 5121.5C2080.93 5127.83 2075.43 5131 2064.43 5131C2053.43 5131 2038.1 5130.33 2018.43 5129C1998.76 5127.67 1979.93 5126.83 1961.93 5126.5C1962.93 5129.83 1963.43 5133.5 1963.43 5137.5C1963.43 5149.83 1950.43 5207.17 1924.43 5309.5C1921.76 5320.17 1917.76 5336.83 1912.43 5359.5C1907.1 5382.17 1903.1 5398 1900.43 5407C1895.76 5424.67 1891.6 5433.5 1887.93 5433.5C1882.93 5433.5 1877.26 5429.83 1870.93 5422.5C1864.93 5414.83 1861.93 5407.17 1861.93 5399.5C1861.93 5391.83 1870.93 5352.5 1888.93 5281.5C1906.93 5210.17 1917.43 5158.67 1920.43 5127ZM55.5 5599C55.5 5593.33 56.1667 5589.5 57.5 5587.5C59.1667 5585.17 62 5584 66 5584C70.3333 5584 77.6667 5588.5 88 5597.5C98.3333 5606.5 103.833 5614.5 104.5 5621.5C105.833 5633.5 112.167 5654.83 123.5 5685.5C134.833 5715.83 147.833 5746.67 162.5 5778C181.167 5756 204.667 5726.83 233 5690.5C261.333 5653.83 282.333 5627.83 296 5612.5C309.667 5597.17 319.5 5589.5 325.5 5589.5C331.5 5589.5 337.833 5592.83 344.5 5599.5C351.167 5606.17 354.5 5612.5 354.5 5618.5C354.5 5624.5 353.833 5631.33 352.5 5639C351.167 5646.67 348.833 5656.83 345.5 5669.5C342.5 5681.83 339.667 5692.67 337 5702C334.667 5711 330.667 5725.17 325 5744.5C319.333 5763.83 315 5779.33 312 5791C309 5802.33 305.5 5816.33 301.5 5833C297.5 5849.33 294.167 5862.83 291.5 5873.5C289.167 5883.83 286.667 5894 284 5904C279 5923.33 274.167 5933 269.5 5933C265.167 5933 260.833 5929 256.5 5921C252.167 5913 250 5902.33 250 5889C250 5875.33 255.667 5844.33 267 5796C278.667 5747.67 291.167 5705.33 304.5 5669C243.167 5745.67 205.333 5791.5 191 5806.5C177 5821.5 165.333 5829 156 5829C147 5829 138.5 5823.83 130.5 5813.5C118.5 5796.17 102.333 5755.17 82 5690.5C76.3333 5725.5 70 5755.5 63 5780.5C56.3333 5805.17 51.8333 5821.67 49.5 5830C47.5 5838 45.6667 5844.67 44 5850C42.6667 5855.33 41 5861.67 39 5869C37 5876 35.1667 5881.83 33.5 5886.5C32.1667 5891.17 30.6667 5896.33 29 5902C27.3333 5907.33 25.8333 5911.67 24.5 5915C23.5 5918.33 22.3333 5921.5 21 5924.5C18.3333 5930.17 16.3333 5933 15 5933C11 5933 6 5928.67 4.76837e-07 5920C-6 5911.33 -9 5903 -9 5895C-9 5887 1.66667 5841 23 5757C44.6667 5673 55.5 5620.33 55.5 5599ZM461.531 5776.5C443.531 5833.5 434.531 5868 434.531 5880C434.531 5884 435.698 5887.33 438.031 5890C440.698 5892.33 444.031 5893.5 448.031 5893.5C486.365 5893.5 528.698 5887.33 575.031 5875C590.031 5871 598.698 5869 601.031 5869C606.031 5869 608.531 5872.5 608.531 5879.5C608.531 5891.5 590.031 5903.83 553.031 5916.5C516.365 5929.17 480.865 5935.5 446.531 5935.5C431.198 5935.5 417.698 5931 406.031 5922C394.698 5913 389.031 5901.67 389.031 5888C389.031 5874.33 393.865 5851 403.531 5818C413.531 5785 423.531 5749.83 433.531 5712.5C443.531 5675.17 448.531 5643.67 448.531 5618C448.531 5614.33 449.198 5610.5 450.531 5606.5C456.198 5594.17 492.531 5588 559.531 5588C626.531 5588 660.031 5592.83 660.031 5602.5C660.031 5609.17 652.865 5613.67 638.531 5616C626.531 5618.33 610.531 5620.5 590.531 5622.5C570.865 5624.17 557.031 5625.5 549.031 5626.5C541.031 5627.17 521.698 5630.17 491.031 5635.5V5637C491.031 5659.67 484.865 5693.83 472.531 5739.5C474.531 5739.83 481.198 5740 492.531 5740C504.198 5740 519.698 5739.17 539.031 5737.5C558.365 5735.83 572.865 5735 582.531 5735C592.531 5735 597.531 5737.33 597.531 5742C597.531 5753.67 583.865 5762.33 556.531 5768C529.198 5773.67 497.531 5776.5 461.531 5776.5Z" fill="white"/>
</g>
<defs>
<clipPath id="clip0">
<rect width="1440" height="2569" fill="white"/>
</clipPath>
</defs>
</svg>
