<svg width="1438" height="1443" viewBox="0 0 1438 1443" fill="none" xmlns="http://www.w3.org/2000/svg">
<g clip-path="url(#clip0)">
<path opacity="0.01" d="M167.648 299.396C167.648 320.497 158.127 338.253 139.084 352.664C120.041 366.817 98.168 373.894 73.464 373.894C49.0173 373.894 28.8167 367.589 12.862 354.98C-3.09267 342.113 -11.07 330.019 -11.07 318.696C-11.07 310.976 -8.754 307.116 -4.122 307.116C-0.00466621 307.116 8.10133 313.292 20.196 325.644C24.828 330.019 31.004 334.136 38.724 337.996C46.7013 341.856 55.0647 343.786 63.814 343.786C81.8273 343.786 97.782 339.154 111.678 329.89C125.831 320.626 132.908 310.59 132.908 299.782C132.908 292.834 128.276 283.956 119.012 273.148C109.748 262.34 99.4547 252.175 88.132 242.654C77.0667 232.875 66.902 222.453 57.638 211.388C48.374 200.323 43.742 191.573 43.742 185.14C43.742 178.707 45.0287 171.887 47.602 164.682C50.1753 157.477 53.006 152.201 56.094 148.856C66.13 137.791 81.6987 127.626 102.8 118.362C124.159 109.098 142.043 104.466 156.454 104.466C163.917 104.466 170.221 106.911 175.368 111.8C180.515 116.689 183.088 121.836 183.088 127.24C183.088 129.813 180.386 131.872 174.982 133.416C169.578 134.96 161.343 137.019 150.278 139.592C139.47 141.908 129.82 144.739 121.328 148.084C91.7347 159.407 76.938 170.343 76.938 180.894C76.938 186.555 91.992 202.381 122.1 228.372C133.68 238.408 144.102 250.117 153.366 263.498C162.887 276.622 167.648 288.588 167.648 299.396ZM272.351 253.462C258.455 297.466 251.507 324.1 251.507 333.364C251.507 336.452 252.407 339.025 254.209 341.084C256.267 342.885 258.841 343.786 261.929 343.786C291.522 343.786 324.203 339.025 359.973 329.504C371.553 326.416 378.243 324.872 380.045 324.872C383.905 324.872 385.835 327.574 385.835 332.978C385.835 342.242 371.553 351.763 342.989 361.542C314.682 371.321 287.276 376.21 260.771 376.21C248.933 376.21 238.511 372.736 229.505 365.788C220.755 358.84 216.381 350.091 216.381 339.54C216.381 328.989 220.112 310.976 227.575 285.5C235.295 260.024 243.015 232.875 250.735 204.054C258.455 175.233 262.315 150.915 262.315 131.1C262.315 128.269 262.829 125.31 263.859 122.222C268.233 112.701 296.283 107.94 348.007 107.94C399.731 107.94 425.593 111.671 425.593 119.134C425.593 124.281 420.06 127.755 408.995 129.556C399.731 131.357 387.379 133.03 371.939 134.574C356.756 135.861 346.077 136.89 339.901 137.662C333.725 138.177 318.799 140.493 295.125 144.61V145.768C295.125 163.267 290.364 189.643 280.843 224.898C282.387 225.155 287.533 225.284 296.283 225.284C305.289 225.284 317.255 224.641 332.181 223.354C347.106 222.067 358.3 221.424 365.763 221.424C373.483 221.424 377.343 223.225 377.343 226.828C377.343 235.835 366.792 242.525 345.691 246.9C324.589 251.275 300.143 253.462 272.351 253.462ZM456.457 375.824C452.597 375.824 448.223 372.993 443.333 367.332C438.444 361.671 435.999 356.009 435.999 350.348C435.999 344.429 443.076 316.509 457.229 266.586C471.383 216.663 479.489 178.707 481.547 152.716C478.202 150.657 475.243 147.441 472.669 143.066C470.096 138.691 468.809 134.831 468.809 131.486C468.809 125.567 477.559 119.52 495.057 113.344C512.556 106.911 531.856 103.694 552.957 103.694C574.316 103.694 592.715 108.841 608.155 119.134C623.853 129.17 631.701 143.452 631.701 161.98C631.701 174.589 628.099 186.427 620.893 197.492C613.945 208.3 605.325 217.178 595.031 224.126C584.995 231.074 574.959 237.25 564.923 242.654C554.887 248.058 546.267 252.561 539.061 256.164C532.113 259.509 528.639 261.954 528.639 263.498C528.639 269.159 533.014 276.493 541.763 285.5C550.77 294.507 557.075 300.683 560.677 304.028C564.28 307.373 569.041 311.877 574.959 317.538C580.878 322.942 586.411 327.831 591.557 332.206C596.961 336.581 601.207 340.183 604.295 343.014C607.641 345.845 610.986 348.804 614.331 351.892C620.765 357.811 623.981 362.571 623.981 366.174C623.981 372.35 619.735 375.438 611.243 375.438C595.803 375.438 573.801 362.057 545.237 335.294C516.673 308.274 499.175 285.371 492.741 266.586C480.647 306.73 473.699 330.019 471.897 336.452C470.096 342.628 468.037 349.061 465.721 355.752C461.604 369.133 458.516 375.824 456.457 375.824ZM514.743 163.138C514.743 179.865 509.339 207.528 498.531 246.128C502.906 242.783 511.269 237.893 523.621 231.46C535.973 224.769 547.039 218.722 556.817 213.318C566.853 207.657 575.989 200.194 584.223 190.93C592.458 181.666 596.575 172.016 596.575 161.98C596.575 146.025 582.679 138.048 554.887 138.048C542.278 138.048 527.61 141.265 510.883 147.698C513.457 153.359 514.743 158.506 514.743 163.138ZM853.645 104.852C857.763 104.852 861.88 106.396 865.997 109.484C870.115 112.315 872.173 115.917 872.173 120.292C872.173 124.409 869.729 131.1 864.839 140.364C860.207 149.628 852.101 164.553 840.521 185.14C828.941 205.469 819.034 223.869 810.799 240.338C802.565 256.807 794.716 273.019 787.253 288.974C780.048 304.671 774.258 317.281 769.883 326.802C765.766 336.066 761.649 344.944 757.531 353.436C749.297 369.133 742.477 376.982 737.073 376.982C733.985 376.982 730.254 374.537 725.879 369.648C721.505 364.501 718.031 358.711 715.457 352.278C708.509 335.037 699.117 295.15 687.279 232.618C675.699 170.086 669.909 131.486 669.909 116.818C669.909 108.841 672.097 104.852 676.471 104.852C681.875 104.852 687.408 107.683 693.069 113.344C698.731 118.748 703.234 125.696 706.579 134.188C708.123 138.82 711.855 164.553 717.773 211.388C723.949 257.965 730.897 295.922 738.617 325.258C755.087 278.681 776.317 230.302 802.307 180.122C828.298 129.942 845.411 104.852 853.645 104.852ZM894.649 374.666C891.561 374.666 887.444 371.578 882.297 365.402C877.408 359.226 874.963 353.565 874.963 348.418C874.963 343.271 882.554 307.373 897.737 240.724C913.177 173.817 921.026 132.387 921.283 116.432C921.283 112.057 921.798 109.098 922.827 107.554C924.114 105.753 926.558 104.852 930.161 104.852C934.021 104.852 938.91 108.841 944.829 116.818C951.005 124.795 954.093 133.416 954.093 142.68C954.093 151.687 944.829 193.889 926.301 269.288C924.5 276.236 922.055 286.272 918.967 299.396C915.879 312.263 913.434 322.17 911.633 329.118C909.832 336.066 907.902 343.657 905.843 351.892C901.468 367.075 897.737 374.666 894.649 374.666ZM1149.63 104.852C1156.32 104.852 1163.14 109.098 1170.09 117.59C1177.29 126.082 1180.89 133.159 1180.89 138.82C1180.89 144.224 1179.87 146.926 1177.81 146.926C1176.01 146.926 1172.4 146.025 1167 144.224C1161.59 142.165 1156.71 141.136 1152.33 141.136C1142.29 141.136 1130.07 146.283 1115.66 156.576C1101.51 166.869 1088 179.607 1075.13 194.79C1062.52 209.973 1051.71 227.343 1042.71 246.9C1033.7 266.2 1029.2 282.927 1029.2 297.08C1029.2 311.233 1032.8 321.655 1040 328.346C1047.47 334.779 1057.12 337.996 1068.95 337.996C1080.79 337.996 1093.02 336.323 1105.62 332.978C1118.23 329.375 1128.53 325.387 1136.5 321.012C1157.09 309.947 1168.41 304.414 1170.47 304.414C1174.85 304.414 1177.03 307.373 1177.03 313.292C1177.03 318.953 1171.12 326.673 1159.28 336.452C1147.44 345.973 1132.77 354.594 1115.27 362.314C1097.78 370.034 1082.08 373.894 1068.18 373.894C1050.17 373.894 1033.19 366.174 1017.23 350.734C1001.28 335.037 993.299 317.795 993.299 299.01C993.299 274.821 1001.15 247.543 1016.84 217.178C1032.8 186.555 1053.13 160.179 1077.83 138.048C1102.79 115.917 1126.73 104.852 1149.63 104.852ZM1279.57 253.462C1265.67 297.466 1258.73 324.1 1258.73 333.364C1258.73 336.452 1259.63 339.025 1261.43 341.084C1263.49 342.885 1266.06 343.786 1269.15 343.786C1298.74 343.786 1331.42 339.025 1367.19 329.504C1378.77 326.416 1385.46 324.872 1387.26 324.872C1391.12 324.872 1393.05 327.574 1393.05 332.978C1393.05 342.242 1378.77 351.763 1350.21 361.542C1321.9 371.321 1294.49 376.21 1267.99 376.21C1256.15 376.21 1245.73 372.736 1236.72 365.788C1227.97 358.84 1223.6 350.091 1223.6 339.54C1223.6 328.989 1227.33 310.976 1234.79 285.5C1242.51 260.024 1250.23 232.875 1257.95 204.054C1265.67 175.233 1269.53 150.915 1269.53 131.1C1269.53 128.269 1270.05 125.31 1271.08 122.222C1275.45 112.701 1303.5 107.94 1355.23 107.94C1406.95 107.94 1432.81 111.671 1432.81 119.134C1432.81 124.281 1427.28 127.755 1416.21 129.556C1406.95 131.357 1394.6 133.03 1379.16 134.574C1363.97 135.861 1353.3 136.89 1347.12 137.662C1340.94 138.177 1326.02 140.493 1302.34 144.61V145.768C1302.34 163.267 1297.58 189.643 1288.06 224.898C1289.61 225.155 1294.75 225.284 1303.5 225.284C1312.51 225.284 1324.47 224.641 1339.4 223.354C1354.32 222.067 1365.52 221.424 1372.98 221.424C1380.7 221.424 1384.56 223.225 1384.56 226.828C1384.56 235.835 1374.01 242.525 1352.91 246.9C1331.81 251.275 1307.36 253.462 1279.57 253.462ZM1605.72 299.396C1605.72 320.497 1596.2 338.253 1577.16 352.664C1558.12 366.817 1536.24 373.894 1511.54 373.894C1487.09 373.894 1466.89 367.589 1450.94 354.98C1434.98 342.113 1427.01 330.019 1427.01 318.696C1427.01 310.976 1429.32 307.116 1433.95 307.116C1438.07 307.116 1446.18 313.292 1458.27 325.644C1462.9 330.019 1469.08 334.136 1476.8 337.996C1484.78 341.856 1493.14 343.786 1501.89 343.786C1519.9 343.786 1535.86 339.154 1549.75 329.89C1563.91 320.626 1570.98 310.59 1570.98 299.782C1570.98 292.834 1566.35 283.956 1557.09 273.148C1547.82 262.34 1537.53 252.175 1526.21 242.654C1515.14 232.875 1504.98 222.453 1495.71 211.388C1486.45 200.323 1481.82 191.573 1481.82 185.14C1481.82 178.707 1483.1 171.887 1485.68 164.682C1488.25 157.477 1491.08 152.201 1494.17 148.856C1504.21 137.791 1519.77 127.626 1540.88 118.362C1562.23 109.098 1580.12 104.466 1594.53 104.466C1601.99 104.466 1608.3 106.911 1613.44 111.8C1618.59 116.689 1621.16 121.836 1621.16 127.24C1621.16 129.813 1618.46 131.872 1613.06 133.416C1607.65 134.96 1599.42 137.019 1588.35 139.592C1577.55 141.908 1567.9 144.739 1559.4 148.084C1529.81 159.407 1515.01 170.343 1515.01 180.894C1515.01 186.555 1530.07 202.381 1560.18 228.372C1571.76 238.408 1582.18 250.117 1591.44 263.498C1600.96 276.622 1605.72 288.588 1605.72 299.396ZM167.648 799.396C167.648 820.497 158.127 838.253 139.084 852.664C120.041 866.817 98.168 873.894 73.464 873.894C49.0173 873.894 28.8167 867.589 12.862 854.98C-3.09267 842.113 -11.07 830.019 -11.07 818.696C-11.07 810.976 -8.754 807.116 -4.122 807.116C-0.00466621 807.116 8.10133 813.292 20.196 825.644C24.828 830.019 31.004 834.136 38.724 837.996C46.7013 841.856 55.0647 843.786 63.814 843.786C81.8273 843.786 97.782 839.154 111.678 829.89C125.831 820.626 132.908 810.59 132.908 799.782C132.908 792.834 128.276 783.956 119.012 773.148C109.748 762.34 99.4547 752.175 88.132 742.654C77.0667 732.875 66.902 722.453 57.638 711.388C48.374 700.323 43.742 691.573 43.742 685.14C43.742 678.707 45.0287 671.887 47.602 664.682C50.1753 657.477 53.006 652.201 56.094 648.856C66.13 637.791 81.6987 627.626 102.8 618.362C124.159 609.098 142.043 604.466 156.454 604.466C163.917 604.466 170.221 606.911 175.368 611.8C180.515 616.689 183.088 621.836 183.088 627.24C183.088 629.813 180.386 631.872 174.982 633.416C169.578 634.96 161.343 637.019 150.278 639.592C139.47 641.908 129.82 644.739 121.328 648.084C91.7347 659.407 76.938 670.343 76.938 680.894C76.938 686.555 91.992 702.381 122.1 728.372C133.68 738.408 144.102 750.117 153.366 763.498C162.887 776.622 167.648 788.588 167.648 799.396ZM272.351 753.462C258.455 797.466 251.507 824.1 251.507 833.364C251.507 836.452 252.407 839.025 254.209 841.084C256.267 842.885 258.841 843.786 261.929 843.786C291.522 843.786 324.203 839.025 359.973 829.504C371.553 826.416 378.243 824.872 380.045 824.872C383.905 824.872 385.835 827.574 385.835 832.978C385.835 842.242 371.553 851.763 342.989 861.542C314.682 871.321 287.276 876.21 260.771 876.21C248.933 876.21 238.511 872.736 229.505 865.788C220.755 858.84 216.381 850.091 216.381 839.54C216.381 828.989 220.112 810.976 227.575 785.5C235.295 760.024 243.015 732.875 250.735 704.054C258.455 675.233 262.315 650.915 262.315 631.1C262.315 628.269 262.829 625.31 263.859 622.222C268.233 612.701 296.283 607.94 348.007 607.94C399.731 607.94 425.593 611.671 425.593 619.134C425.593 624.281 420.06 627.755 408.995 629.556C399.731 631.357 387.379 633.03 371.939 634.574C356.756 635.861 346.077 636.89 339.901 637.662C333.725 638.177 318.799 640.493 295.125 644.61V645.768C295.125 663.267 290.364 689.643 280.843 724.898C282.387 725.155 287.533 725.284 296.283 725.284C305.289 725.284 317.255 724.641 332.181 723.354C347.106 722.067 358.3 721.424 365.763 721.424C373.483 721.424 377.343 723.225 377.343 726.828C377.343 735.835 366.792 742.525 345.691 746.9C324.589 751.275 300.143 753.462 272.351 753.462ZM456.457 875.824C452.597 875.824 448.223 872.993 443.333 867.332C438.444 861.671 435.999 856.009 435.999 850.348C435.999 844.429 443.076 816.509 457.229 766.586C471.383 716.663 479.489 678.707 481.547 652.716C478.202 650.657 475.243 647.441 472.669 643.066C470.096 638.691 468.809 634.831 468.809 631.486C468.809 625.567 477.559 619.52 495.057 613.344C512.556 606.911 531.856 603.694 552.957 603.694C574.316 603.694 592.715 608.841 608.155 619.134C623.853 629.17 631.701 643.452 631.701 661.98C631.701 674.589 628.099 686.427 620.893 697.492C613.945 708.3 605.325 717.178 595.031 724.126C584.995 731.074 574.959 737.25 564.923 742.654C554.887 748.058 546.267 752.561 539.061 756.164C532.113 759.509 528.639 761.954 528.639 763.498C528.639 769.159 533.014 776.493 541.763 785.5C550.77 794.507 557.075 800.683 560.677 804.028C564.28 807.373 569.041 811.877 574.959 817.538C580.878 822.942 586.411 827.831 591.557 832.206C596.961 836.581 601.207 840.183 604.295 843.014C607.641 845.845 610.986 848.804 614.331 851.892C620.765 857.811 623.981 862.571 623.981 866.174C623.981 872.35 619.735 875.438 611.243 875.438C595.803 875.438 573.801 862.057 545.237 835.294C516.673 808.274 499.175 785.371 492.741 766.586C480.647 806.73 473.699 830.019 471.897 836.452C470.096 842.628 468.037 849.061 465.721 855.752C461.604 869.133 458.516 875.824 456.457 875.824ZM514.743 663.138C514.743 679.865 509.339 707.528 498.531 746.128C502.906 742.783 511.269 737.893 523.621 731.46C535.973 724.769 547.039 718.722 556.817 713.318C566.853 707.657 575.989 700.194 584.223 690.93C592.458 681.666 596.575 672.016 596.575 661.98C596.575 646.025 582.679 638.048 554.887 638.048C542.278 638.048 527.61 641.265 510.883 647.698C513.457 653.359 514.743 658.506 514.743 663.138ZM853.645 604.852C857.763 604.852 861.88 606.396 865.997 609.484C870.115 612.315 872.173 615.917 872.173 620.292C872.173 624.409 869.729 631.1 864.839 640.364C860.207 649.628 852.101 664.553 840.521 685.14C828.941 705.469 819.034 723.869 810.799 740.338C802.565 756.807 794.716 773.019 787.253 788.974C780.048 804.671 774.258 817.281 769.883 826.802C765.766 836.066 761.649 844.944 757.531 853.436C749.297 869.133 742.477 876.982 737.073 876.982C733.985 876.982 730.254 874.537 725.879 869.648C721.505 864.501 718.031 858.711 715.457 852.278C708.509 835.037 699.117 795.15 687.279 732.618C675.699 670.086 669.909 631.486 669.909 616.818C669.909 608.841 672.097 604.852 676.471 604.852C681.875 604.852 687.408 607.683 693.069 613.344C698.731 618.748 703.234 625.696 706.579 634.188C708.123 638.82 711.855 664.553 717.773 711.388C723.949 757.965 730.897 795.922 738.617 825.258C755.087 778.681 776.317 730.302 802.307 680.122C828.298 629.942 845.411 604.852 853.645 604.852ZM894.649 874.666C891.561 874.666 887.444 871.578 882.297 865.402C877.408 859.226 874.963 853.565 874.963 848.418C874.963 843.271 882.554 807.373 897.737 740.724C913.177 673.817 921.026 632.387 921.283 616.432C921.283 612.057 921.798 609.098 922.827 607.554C924.114 605.753 926.558 604.852 930.161 604.852C934.021 604.852 938.91 608.841 944.829 616.818C951.005 624.795 954.093 633.416 954.093 642.68C954.093 651.687 944.829 693.889 926.301 769.288C924.5 776.236 922.055 786.272 918.967 799.396C915.879 812.263 913.434 822.17 911.633 829.118C909.832 836.066 907.902 843.657 905.843 851.892C901.468 867.075 897.737 874.666 894.649 874.666ZM1149.63 604.852C1156.32 604.852 1163.14 609.098 1170.09 617.59C1177.29 626.082 1180.89 633.159 1180.89 638.82C1180.89 644.224 1179.87 646.926 1177.81 646.926C1176.01 646.926 1172.4 646.025 1167 644.224C1161.59 642.165 1156.71 641.136 1152.33 641.136C1142.29 641.136 1130.07 646.283 1115.66 656.576C1101.51 666.869 1088 679.607 1075.13 694.79C1062.52 709.973 1051.71 727.343 1042.71 746.9C1033.7 766.2 1029.2 782.927 1029.2 797.08C1029.2 811.233 1032.8 821.655 1040 828.346C1047.47 834.779 1057.12 837.996 1068.95 837.996C1080.79 837.996 1093.02 836.323 1105.62 832.978C1118.23 829.375 1128.53 825.387 1136.5 821.012C1157.09 809.947 1168.41 804.414 1170.47 804.414C1174.85 804.414 1177.03 807.373 1177.03 813.292C1177.03 818.953 1171.12 826.673 1159.28 836.452C1147.44 845.973 1132.77 854.594 1115.27 862.314C1097.78 870.034 1082.08 873.894 1068.18 873.894C1050.17 873.894 1033.19 866.174 1017.23 850.734C1001.28 835.037 993.299 817.795 993.299 799.01C993.299 774.821 1001.15 747.543 1016.84 717.178C1032.8 686.555 1053.13 660.179 1077.83 638.048C1102.79 615.917 1126.73 604.852 1149.63 604.852ZM1279.57 753.462C1265.67 797.466 1258.73 824.1 1258.73 833.364C1258.73 836.452 1259.63 839.025 1261.43 841.084C1263.49 842.885 1266.06 843.786 1269.15 843.786C1298.74 843.786 1331.42 839.025 1367.19 829.504C1378.77 826.416 1385.46 824.872 1387.26 824.872C1391.12 824.872 1393.05 827.574 1393.05 832.978C1393.05 842.242 1378.77 851.763 1350.21 861.542C1321.9 871.321 1294.49 876.21 1267.99 876.21C1256.15 876.21 1245.73 872.736 1236.72 865.788C1227.97 858.84 1223.6 850.091 1223.6 839.54C1223.6 828.989 1227.33 810.976 1234.79 785.5C1242.51 760.024 1250.23 732.875 1257.95 704.054C1265.67 675.233 1269.53 650.915 1269.53 631.1C1269.53 628.269 1270.05 625.31 1271.08 622.222C1275.45 612.701 1303.5 607.94 1355.23 607.94C1406.95 607.94 1432.81 611.671 1432.81 619.134C1432.81 624.281 1427.28 627.755 1416.21 629.556C1406.95 631.357 1394.6 633.03 1379.16 634.574C1363.97 635.861 1353.3 636.89 1347.12 637.662C1340.94 638.177 1326.02 640.493 1302.34 644.61V645.768C1302.34 663.267 1297.58 689.643 1288.06 724.898C1289.61 725.155 1294.75 725.284 1303.5 725.284C1312.51 725.284 1324.47 724.641 1339.4 723.354C1354.32 722.067 1365.52 721.424 1372.98 721.424C1380.7 721.424 1384.56 723.225 1384.56 726.828C1384.56 735.835 1374.01 742.525 1352.91 746.9C1331.81 751.275 1307.36 753.462 1279.57 753.462ZM167.648 1299.4C167.648 1320.5 158.127 1338.25 139.084 1352.66C120.041 1366.82 98.168 1373.89 73.464 1373.89C49.0173 1373.89 28.8167 1367.59 12.862 1354.98C-3.09267 1342.11 -11.07 1330.02 -11.07 1318.7C-11.07 1310.98 -8.754 1307.12 -4.122 1307.12C-0.00466621 1307.12 8.10133 1313.29 20.196 1325.64C24.828 1330.02 31.004 1334.14 38.724 1338C46.7013 1341.86 55.0647 1343.79 63.814 1343.79C81.8273 1343.79 97.782 1339.15 111.678 1329.89C125.831 1320.63 132.908 1310.59 132.908 1299.78C132.908 1292.83 128.276 1283.96 119.012 1273.15C109.748 1262.34 99.4547 1252.18 88.132 1242.65C77.0667 1232.88 66.902 1222.45 57.638 1211.39C48.374 1200.32 43.742 1191.57 43.742 1185.14C43.742 1178.71 45.0287 1171.89 47.602 1164.68C50.1753 1157.48 53.006 1152.2 56.094 1148.86C66.13 1137.79 81.6987 1127.63 102.8 1118.36C124.159 1109.1 142.043 1104.47 156.454 1104.47C163.917 1104.47 170.221 1106.91 175.368 1111.8C180.515 1116.69 183.088 1121.84 183.088 1127.24C183.088 1129.81 180.386 1131.87 174.982 1133.42C169.578 1134.96 161.343 1137.02 150.278 1139.59C139.47 1141.91 129.82 1144.74 121.328 1148.08C91.7347 1159.41 76.938 1170.34 76.938 1180.89C76.938 1186.56 91.992 1202.38 122.1 1228.37C133.68 1238.41 144.102 1250.12 153.366 1263.5C162.887 1276.62 167.648 1288.59 167.648 1299.4ZM272.351 1253.46C258.455 1297.47 251.507 1324.1 251.507 1333.36C251.507 1336.45 252.407 1339.03 254.209 1341.08C256.267 1342.89 258.841 1343.79 261.929 1343.79C291.522 1343.79 324.203 1339.03 359.973 1329.5C371.553 1326.42 378.243 1324.87 380.045 1324.87C383.905 1324.87 385.835 1327.57 385.835 1332.98C385.835 1342.24 371.553 1351.76 342.989 1361.54C314.682 1371.32 287.276 1376.21 260.771 1376.21C248.933 1376.21 238.511 1372.74 229.505 1365.79C220.755 1358.84 216.381 1350.09 216.381 1339.54C216.381 1328.99 220.112 1310.98 227.575 1285.5C235.295 1260.02 243.015 1232.88 250.735 1204.05C258.455 1175.23 262.315 1150.91 262.315 1131.1C262.315 1128.27 262.829 1125.31 263.859 1122.22C268.233 1112.7 296.283 1107.94 348.007 1107.94C399.731 1107.94 425.593 1111.67 425.593 1119.13C425.593 1124.28 420.06 1127.75 408.995 1129.56C399.731 1131.36 387.379 1133.03 371.939 1134.57C356.756 1135.86 346.077 1136.89 339.901 1137.66C333.725 1138.18 318.799 1140.49 295.125 1144.61V1145.77C295.125 1163.27 290.364 1189.64 280.843 1224.9C282.387 1225.16 287.533 1225.28 296.283 1225.28C305.289 1225.28 317.255 1224.64 332.181 1223.35C347.106 1222.07 358.3 1221.42 365.763 1221.42C373.483 1221.42 377.343 1223.23 377.343 1226.83C377.343 1235.83 366.792 1242.53 345.691 1246.9C324.589 1251.27 300.143 1253.46 272.351 1253.46ZM456.457 1375.82C452.597 1375.82 448.223 1372.99 443.333 1367.33C438.444 1361.67 435.999 1356.01 435.999 1350.35C435.999 1344.43 443.076 1316.51 457.229 1266.59C471.383 1216.66 479.489 1178.71 481.547 1152.72C478.202 1150.66 475.243 1147.44 472.669 1143.07C470.096 1138.69 468.809 1134.83 468.809 1131.49C468.809 1125.57 477.559 1119.52 495.057 1113.34C512.556 1106.91 531.856 1103.69 552.957 1103.69C574.316 1103.69 592.715 1108.84 608.155 1119.13C623.853 1129.17 631.701 1143.45 631.701 1161.98C631.701 1174.59 628.099 1186.43 620.893 1197.49C613.945 1208.3 605.325 1217.18 595.031 1224.13C584.995 1231.07 574.959 1237.25 564.923 1242.65C554.887 1248.06 546.267 1252.56 539.061 1256.16C532.113 1259.51 528.639 1261.95 528.639 1263.5C528.639 1269.16 533.014 1276.49 541.763 1285.5C550.77 1294.51 557.075 1300.68 560.677 1304.03C564.28 1307.37 569.041 1311.88 574.959 1317.54C580.878 1322.94 586.411 1327.83 591.557 1332.21C596.961 1336.58 601.207 1340.18 604.295 1343.01C607.641 1345.84 610.986 1348.8 614.331 1351.89C620.765 1357.81 623.981 1362.57 623.981 1366.17C623.981 1372.35 619.735 1375.44 611.243 1375.44C595.803 1375.44 573.801 1362.06 545.237 1335.29C516.673 1308.27 499.175 1285.37 492.741 1266.59C480.647 1306.73 473.699 1330.02 471.897 1336.45C470.096 1342.63 468.037 1349.06 465.721 1355.75C461.604 1369.13 458.516 1375.82 456.457 1375.82ZM514.743 1163.14C514.743 1179.86 509.339 1207.53 498.531 1246.13C502.906 1242.78 511.269 1237.89 523.621 1231.46C535.973 1224.77 547.039 1218.72 556.817 1213.32C566.853 1207.66 575.989 1200.19 584.223 1190.93C592.458 1181.67 596.575 1172.02 596.575 1161.98C596.575 1146.03 582.679 1138.05 554.887 1138.05C542.278 1138.05 527.61 1141.26 510.883 1147.7C513.457 1153.36 514.743 1158.51 514.743 1163.14ZM853.645 1104.85C857.763 1104.85 861.88 1106.4 865.997 1109.48C870.115 1112.31 872.173 1115.92 872.173 1120.29C872.173 1124.41 869.729 1131.1 864.839 1140.36C860.207 1149.63 852.101 1164.55 840.521 1185.14C828.941 1205.47 819.034 1223.87 810.799 1240.34C802.565 1256.81 794.716 1273.02 787.253 1288.97C780.048 1304.67 774.258 1317.28 769.883 1326.8C765.766 1336.07 761.649 1344.94 757.531 1353.44C749.297 1369.13 742.477 1376.98 737.073 1376.98C733.985 1376.98 730.254 1374.54 725.879 1369.65C721.505 1364.5 718.031 1358.71 715.457 1352.28C708.509 1335.04 699.117 1295.15 687.279 1232.62C675.699 1170.09 669.909 1131.49 669.909 1116.82C669.909 1108.84 672.097 1104.85 676.471 1104.85C681.875 1104.85 687.408 1107.68 693.069 1113.34C698.731 1118.75 703.234 1125.7 706.579 1134.19C708.123 1138.82 711.855 1164.55 717.773 1211.39C723.949 1257.97 730.897 1295.92 738.617 1325.26C755.087 1278.68 776.317 1230.3 802.307 1180.12C828.298 1129.94 845.411 1104.85 853.645 1104.85ZM894.649 1374.67C891.561 1374.67 887.444 1371.58 882.297 1365.4C877.408 1359.23 874.963 1353.56 874.963 1348.42C874.963 1343.27 882.554 1307.37 897.737 1240.72C913.177 1173.82 921.026 1132.39 921.283 1116.43C921.283 1112.06 921.798 1109.1 922.827 1107.55C924.114 1105.75 926.558 1104.85 930.161 1104.85C934.021 1104.85 938.91 1108.84 944.829 1116.82C951.005 1124.8 954.093 1133.42 954.093 1142.68C954.093 1151.69 944.829 1193.89 926.301 1269.29C924.5 1276.24 922.055 1286.27 918.967 1299.4C915.879 1312.26 913.434 1322.17 911.633 1329.12C909.832 1336.07 907.902 1343.66 905.843 1351.89C901.468 1367.07 897.737 1374.67 894.649 1374.67ZM1149.63 1104.85C1156.32 1104.85 1163.14 1109.1 1170.09 1117.59C1177.29 1126.08 1180.89 1133.16 1180.89 1138.82C1180.89 1144.22 1179.87 1146.93 1177.81 1146.93C1176.01 1146.93 1172.4 1146.03 1167 1144.22C1161.59 1142.17 1156.71 1141.14 1152.33 1141.14C1142.29 1141.14 1130.07 1146.28 1115.66 1156.58C1101.51 1166.87 1088 1179.61 1075.13 1194.79C1062.52 1209.97 1051.71 1227.34 1042.71 1246.9C1033.7 1266.2 1029.2 1282.93 1029.2 1297.08C1029.2 1311.23 1032.8 1321.66 1040 1328.35C1047.47 1334.78 1057.12 1338 1068.95 1338C1080.79 1338 1093.02 1336.32 1105.62 1332.98C1118.23 1329.38 1128.53 1325.39 1136.5 1321.01C1157.09 1309.95 1168.41 1304.41 1170.47 1304.41C1174.85 1304.41 1177.03 1307.37 1177.03 1313.29C1177.03 1318.95 1171.12 1326.67 1159.28 1336.45C1147.44 1345.97 1132.77 1354.59 1115.27 1362.31C1097.78 1370.03 1082.08 1373.89 1068.18 1373.89C1050.17 1373.89 1033.19 1366.17 1017.23 1350.73C1001.28 1335.04 993.299 1317.8 993.299 1299.01C993.299 1274.82 1001.15 1247.54 1016.84 1217.18C1032.8 1186.56 1053.13 1160.18 1077.83 1138.05C1102.79 1115.92 1126.73 1104.85 1149.63 1104.85ZM1279.57 1253.46C1265.67 1297.47 1258.73 1324.1 1258.73 1333.36C1258.73 1336.45 1259.63 1339.03 1261.43 1341.08C1263.49 1342.89 1266.06 1343.79 1269.15 1343.79C1298.74 1343.79 1331.42 1339.03 1367.19 1329.5C1378.77 1326.42 1385.46 1324.87 1387.26 1324.87C1391.12 1324.87 1393.05 1327.57 1393.05 1332.98C1393.05 1342.24 1378.77 1351.76 1350.21 1361.54C1321.9 1371.32 1294.49 1376.21 1267.99 1376.21C1256.15 1376.21 1245.73 1372.74 1236.72 1365.79C1227.97 1358.84 1223.6 1350.09 1223.6 1339.54C1223.6 1328.99 1227.33 1310.98 1234.79 1285.5C1242.51 1260.02 1250.23 1232.88 1257.95 1204.05C1265.67 1175.23 1269.53 1150.91 1269.53 1131.1C1269.53 1128.27 1270.05 1125.31 1271.08 1122.22C1275.45 1112.7 1303.5 1107.94 1355.23 1107.94C1406.95 1107.94 1432.81 1111.67 1432.81 1119.13C1432.81 1124.28 1427.28 1127.75 1416.21 1129.56C1406.95 1131.36 1394.6 1133.03 1379.16 1134.57C1363.97 1135.86 1353.3 1136.89 1347.12 1137.66C1340.94 1138.18 1326.02 1140.49 1302.34 1144.61V1145.77C1302.34 1163.27 1297.58 1189.64 1288.06 1224.9C1289.61 1225.16 1294.75 1225.28 1303.5 1225.28C1312.51 1225.28 1324.47 1224.64 1339.4 1223.35C1354.32 1222.07 1365.52 1221.42 1372.98 1221.42C1380.7 1221.42 1384.56 1223.23 1384.56 1226.83C1384.56 1235.83 1374.01 1242.53 1352.91 1246.9C1331.81 1251.27 1307.36 1253.46 1279.57 1253.46ZM1605.72 1299.4C1605.72 1320.5 1596.2 1338.25 1577.16 1352.66C1558.12 1366.82 1536.24 1373.89 1511.54 1373.89C1487.09 1373.89 1466.89 1367.59 1450.94 1354.98C1434.98 1342.11 1427.01 1330.02 1427.01 1318.7C1427.01 1310.98 1429.32 1307.12 1433.95 1307.12C1438.07 1307.12 1446.18 1313.29 1458.27 1325.64C1462.9 1330.02 1469.08 1334.14 1476.8 1338C1484.78 1341.86 1493.14 1343.79 1501.89 1343.79C1519.9 1343.79 1535.86 1339.15 1549.75 1329.89C1563.91 1320.63 1570.98 1310.59 1570.98 1299.78C1570.98 1292.83 1566.35 1283.96 1557.09 1273.15C1547.82 1262.34 1537.53 1252.18 1526.21 1242.65C1515.14 1232.88 1504.98 1222.45 1495.71 1211.39C1486.45 1200.32 1481.82 1191.57 1481.82 1185.14C1481.82 1178.71 1483.1 1171.89 1485.68 1164.68C1488.25 1157.48 1491.08 1152.2 1494.17 1148.86C1504.21 1137.79 1519.77 1127.63 1540.88 1118.36C1562.23 1109.1 1580.12 1104.47 1594.53 1104.47C1601.99 1104.47 1608.3 1106.91 1613.44 1111.8C1618.59 1116.69 1621.16 1121.84 1621.16 1127.24C1621.16 1129.81 1618.46 1131.87 1613.06 1133.42C1607.65 1134.96 1599.42 1137.02 1588.35 1139.59C1577.55 1141.91 1567.9 1144.74 1559.4 1148.08C1529.81 1159.41 1515.01 1170.34 1515.01 1180.89C1515.01 1186.56 1530.07 1202.38 1560.18 1228.37C1571.76 1238.41 1582.18 1250.12 1591.44 1263.5C1600.96 1276.62 1605.72 1288.59 1605.72 1299.4ZM167.648 1799.4C167.648 1820.5 158.127 1838.25 139.084 1852.66C120.041 1866.82 98.168 1873.89 73.464 1873.89C49.0173 1873.89 28.8167 1867.59 12.862 1854.98C-3.09267 1842.11 -11.07 1830.02 -11.07 1818.7C-11.07 1810.98 -8.754 1807.12 -4.122 1807.12C-0.00466621 1807.12 8.10133 1813.29 20.196 1825.64C24.828 1830.02 31.004 1834.14 38.724 1838C46.7013 1841.86 55.0647 1843.79 63.814 1843.79C81.8273 1843.79 97.782 1839.15 111.678 1829.89C125.831 1820.63 132.908 1810.59 132.908 1799.78C132.908 1792.83 128.276 1783.96 119.012 1773.15C109.748 1762.34 99.4547 1752.18 88.132 1742.65C77.0667 1732.88 66.902 1722.45 57.638 1711.39C48.374 1700.32 43.742 1691.57 43.742 1685.14C43.742 1678.71 45.0287 1671.89 47.602 1664.68C50.1753 1657.48 53.006 1652.2 56.094 1648.86C66.13 1637.79 81.6987 1627.63 102.8 1618.36C124.159 1609.1 142.043 1604.47 156.454 1604.47C163.917 1604.47 170.221 1606.91 175.368 1611.8C180.515 1616.69 183.088 1621.84 183.088 1627.24C183.088 1629.81 180.386 1631.87 174.982 1633.42C169.578 1634.96 161.343 1637.02 150.278 1639.59C139.47 1641.91 129.82 1644.74 121.328 1648.08C91.7347 1659.41 76.938 1670.34 76.938 1680.89C76.938 1686.56 91.992 1702.38 122.1 1728.37C133.68 1738.41 144.102 1750.12 153.366 1763.5C162.887 1776.62 167.648 1788.59 167.648 1799.4ZM272.351 1753.46C258.455 1797.47 251.507 1824.1 251.507 1833.36C251.507 1836.45 252.407 1839.03 254.209 1841.08C256.267 1842.89 258.841 1843.79 261.929 1843.79C291.522 1843.79 324.203 1839.03 359.973 1829.5C371.553 1826.42 378.243 1824.87 380.045 1824.87C383.905 1824.87 385.835 1827.57 385.835 1832.98C385.835 1842.24 371.553 1851.76 342.989 1861.54C314.682 1871.32 287.276 1876.21 260.771 1876.21C248.933 1876.21 238.511 1872.74 229.505 1865.79C220.755 1858.84 216.381 1850.09 216.381 1839.54C216.381 1828.99 220.112 1810.98 227.575 1785.5C235.295 1760.02 243.015 1732.88 250.735 1704.05C258.455 1675.23 262.315 1650.91 262.315 1631.1C262.315 1628.27 262.829 1625.31 263.859 1622.22C268.233 1612.7 296.283 1607.94 348.007 1607.94C399.731 1607.94 425.593 1611.67 425.593 1619.13C425.593 1624.28 420.06 1627.75 408.995 1629.56C399.731 1631.36 387.379 1633.03 371.939 1634.57C356.756 1635.86 346.077 1636.89 339.901 1637.66C333.725 1638.18 318.799 1640.49 295.125 1644.61V1645.77C295.125 1663.27 290.364 1689.64 280.843 1724.9C282.387 1725.16 287.533 1725.28 296.283 1725.28C305.289 1725.28 317.255 1724.64 332.181 1723.35C347.106 1722.07 358.3 1721.42 365.763 1721.42C373.483 1721.42 377.343 1723.23 377.343 1726.83C377.343 1735.83 366.792 1742.53 345.691 1746.9C324.589 1751.27 300.143 1753.46 272.351 1753.46ZM456.457 1875.82C452.597 1875.82 448.223 1872.99 443.333 1867.33C438.444 1861.67 435.999 1856.01 435.999 1850.35C435.999 1844.43 443.076 1816.51 457.229 1766.59C471.383 1716.66 479.489 1678.71 481.547 1652.72C478.202 1650.66 475.243 1647.44 472.669 1643.07C470.096 1638.69 468.809 1634.83 468.809 1631.49C468.809 1625.57 477.559 1619.52 495.057 1613.34C512.556 1606.91 531.856 1603.69 552.957 1603.69C574.316 1603.69 592.715 1608.84 608.155 1619.13C623.853 1629.17 631.701 1643.45 631.701 1661.98C631.701 1674.59 628.099 1686.43 620.893 1697.49C613.945 1708.3 605.325 1717.18 595.031 1724.13C584.995 1731.07 574.959 1737.25 564.923 1742.65C554.887 1748.06 546.267 1752.56 539.061 1756.16C532.113 1759.51 528.639 1761.95 528.639 1763.5C528.639 1769.16 533.014 1776.49 541.763 1785.5C550.77 1794.51 557.075 1800.68 560.677 1804.03C564.28 1807.37 569.041 1811.88 574.959 1817.54C580.878 1822.94 586.411 1827.83 591.557 1832.21C596.961 1836.58 601.207 1840.18 604.295 1843.01C607.641 1845.84 610.986 1848.8 614.331 1851.89C620.765 1857.81 623.981 1862.57 623.981 1866.17C623.981 1872.35 619.735 1875.44 611.243 1875.44C595.803 1875.44 573.801 1862.06 545.237 1835.29C516.673 1808.27 499.175 1785.37 492.741 1766.59C480.647 1806.73 473.699 1830.02 471.897 1836.45C470.096 1842.63 468.037 1849.06 465.721 1855.75C461.604 1869.13 458.516 1875.82 456.457 1875.82ZM514.743 1663.14C514.743 1679.86 509.339 1707.53 498.531 1746.13C502.906 1742.78 511.269 1737.89 523.621 1731.46C535.973 1724.77 547.039 1718.72 556.817 1713.32C566.853 1707.66 575.989 1700.19 584.223 1690.93C592.458 1681.67 596.575 1672.02 596.575 1661.98C596.575 1646.03 582.679 1638.05 554.887 1638.05C542.278 1638.05 527.61 1641.26 510.883 1647.7C513.457 1653.36 514.743 1658.51 514.743 1663.14ZM853.645 1604.85C857.763 1604.85 861.88 1606.4 865.997 1609.48C870.115 1612.31 872.173 1615.92 872.173 1620.29C872.173 1624.41 869.729 1631.1 864.839 1640.36C860.207 1649.63 852.101 1664.55 840.521 1685.14C828.941 1705.47 819.034 1723.87 810.799 1740.34C802.565 1756.81 794.716 1773.02 787.253 1788.97C780.048 1804.67 774.258 1817.28 769.883 1826.8C765.766 1836.07 761.649 1844.94 757.531 1853.44C749.297 1869.13 742.477 1876.98 737.073 1876.98C733.985 1876.98 730.254 1874.54 725.879 1869.65C721.505 1864.5 718.031 1858.71 715.457 1852.28C708.509 1835.04 699.117 1795.15 687.279 1732.62C675.699 1670.09 669.909 1631.49 669.909 1616.82C669.909 1608.84 672.097 1604.85 676.471 1604.85C681.875 1604.85 687.408 1607.68 693.069 1613.34C698.731 1618.75 703.234 1625.7 706.579 1634.19C708.123 1638.82 711.855 1664.55 717.773 1711.39C723.949 1757.97 730.897 1795.92 738.617 1825.26C755.087 1778.68 776.317 1730.3 802.307 1680.12C828.298 1629.94 845.411 1604.85 853.645 1604.85ZM894.649 1874.67C891.561 1874.67 887.444 1871.58 882.297 1865.4C877.408 1859.23 874.963 1853.56 874.963 1848.42C874.963 1843.27 882.554 1807.37 897.737 1740.72C913.177 1673.82 921.026 1632.39 921.283 1616.43C921.283 1612.06 921.798 1609.1 922.827 1607.55C924.114 1605.75 926.558 1604.85 930.161 1604.85C934.021 1604.85 938.91 1608.84 944.829 1616.82C951.005 1624.8 954.093 1633.42 954.093 1642.68C954.093 1651.69 944.829 1693.89 926.301 1769.29C924.5 1776.24 922.055 1786.27 918.967 1799.4C915.879 1812.26 913.434 1822.17 911.633 1829.12C909.832 1836.07 907.902 1843.66 905.843 1851.89C901.468 1867.07 897.737 1874.67 894.649 1874.67ZM1149.63 1604.85C1156.32 1604.85 1163.14 1609.1 1170.09 1617.59C1177.29 1626.08 1180.89 1633.16 1180.89 1638.82C1180.89 1644.22 1179.87 1646.93 1177.81 1646.93C1176.01 1646.93 1172.4 1646.03 1167 1644.22C1161.59 1642.17 1156.71 1641.14 1152.33 1641.14C1142.29 1641.14 1130.07 1646.28 1115.66 1656.58C1101.51 1666.87 1088 1679.61 1075.13 1694.79C1062.52 1709.97 1051.71 1727.34 1042.71 1746.9C1033.7 1766.2 1029.2 1782.93 1029.2 1797.08C1029.2 1811.23 1032.8 1821.66 1040 1828.35C1047.47 1834.78 1057.12 1838 1068.95 1838C1080.79 1838 1093.02 1836.32 1105.62 1832.98C1118.23 1829.38 1128.53 1825.39 1136.5 1821.01C1157.09 1809.95 1168.41 1804.41 1170.47 1804.41C1174.85 1804.41 1177.03 1807.37 1177.03 1813.29C1177.03 1818.95 1171.12 1826.67 1159.28 1836.45C1147.44 1845.97 1132.77 1854.59 1115.27 1862.31C1097.78 1870.03 1082.08 1873.89 1068.18 1873.89C1050.17 1873.89 1033.19 1866.17 1017.23 1850.73C1001.28 1835.04 993.299 1817.8 993.299 1799.01C993.299 1774.82 1001.15 1747.54 1016.84 1717.18C1032.8 1686.56 1053.13 1660.18 1077.83 1638.05C1102.79 1615.92 1126.73 1604.85 1149.63 1604.85ZM1279.57 1753.46C1265.67 1797.47 1258.73 1824.1 1258.73 1833.36C1258.73 1836.45 1259.63 1839.03 1261.43 1841.08C1263.49 1842.89 1266.06 1843.79 1269.15 1843.79C1298.74 1843.79 1331.42 1839.03 1367.19 1829.5C1378.77 1826.42 1385.46 1824.87 1387.26 1824.87C1391.12 1824.87 1393.05 1827.57 1393.05 1832.98C1393.05 1842.24 1378.77 1851.76 1350.21 1861.54C1321.9 1871.32 1294.49 1876.21 1267.99 1876.21C1256.15 1876.21 1245.73 1872.74 1236.72 1865.79C1227.97 1858.84 1223.6 1850.09 1223.6 1839.54C1223.6 1828.99 1227.33 1810.98 1234.79 1785.5C1242.51 1760.02 1250.23 1732.88 1257.95 1704.05C1265.67 1675.23 1269.53 1650.91 1269.53 1631.1C1269.53 1628.27 1270.05 1625.31 1271.08 1622.22C1275.45 1612.7 1303.5 1607.94 1355.23 1607.94C1406.95 1607.94 1432.81 1611.67 1432.81 1619.13C1432.81 1624.28 1427.28 1627.75 1416.21 1629.56C1406.95 1631.36 1394.6 1633.03 1379.16 1634.57C1363.97 1635.86 1353.3 1636.89 1347.12 1637.66C1340.94 1638.18 1326.02 1640.49 1302.34 1644.61V1645.77C1302.34 1663.27 1297.58 1689.64 1288.06 1724.9C1289.61 1725.16 1294.75 1725.28 1303.5 1725.28C1312.51 1725.28 1324.47 1724.64 1339.4 1723.35C1354.32 1722.07 1365.52 1721.42 1372.98 1721.42C1380.7 1721.42 1384.56 1723.23 1384.56 1726.83C1384.56 1735.83 1374.01 1742.53 1352.91 1746.9C1331.81 1751.27 1307.36 1753.46 1279.57 1753.46ZM167.648 2299.4C167.648 2320.5 158.127 2338.25 139.084 2352.66C120.041 2366.82 98.168 2373.89 73.464 2373.89C49.0173 2373.89 28.8167 2367.59 12.862 2354.98C-3.09267 2342.11 -11.07 2330.02 -11.07 2318.7C-11.07 2310.98 -8.754 2307.12 -4.122 2307.12C-0.00466621 2307.12 8.10133 2313.29 20.196 2325.64C24.828 2330.02 31.004 2334.14 38.724 2338C46.7013 2341.86 55.0647 2343.79 63.814 2343.79C81.8273 2343.79 97.782 2339.15 111.678 2329.89C125.831 2320.63 132.908 2310.59 132.908 2299.78C132.908 2292.83 128.276 2283.96 119.012 2273.15C109.748 2262.34 99.4547 2252.18 88.132 2242.65C77.0667 2232.88 66.902 2222.45 57.638 2211.39C48.374 2200.32 43.742 2191.57 43.742 2185.14C43.742 2178.71 45.0287 2171.89 47.602 2164.68C50.1753 2157.48 53.006 2152.2 56.094 2148.86C66.13 2137.79 81.6987 2127.63 102.8 2118.36C124.159 2109.1 142.043 2104.47 156.454 2104.47C163.917 2104.47 170.221 2106.91 175.368 2111.8C180.515 2116.69 183.088 2121.84 183.088 2127.24C183.088 2129.81 180.386 2131.87 174.982 2133.42C169.578 2134.96 161.343 2137.02 150.278 2139.59C139.47 2141.91 129.82 2144.74 121.328 2148.08C91.7347 2159.41 76.938 2170.34 76.938 2180.89C76.938 2186.56 91.992 2202.38 122.1 2228.37C133.68 2238.41 144.102 2250.12 153.366 2263.5C162.887 2276.62 167.648 2288.59 167.648 2299.4ZM272.351 2253.46C258.455 2297.47 251.507 2324.1 251.507 2333.36C251.507 2336.45 252.407 2339.03 254.209 2341.08C256.267 2342.89 258.841 2343.79 261.929 2343.79C291.522 2343.79 324.203 2339.03 359.973 2329.5C371.553 2326.42 378.243 2324.87 380.045 2324.87C383.905 2324.87 385.835 2327.57 385.835 2332.98C385.835 2342.24 371.553 2351.76 342.989 2361.54C314.682 2371.32 287.276 2376.21 260.771 2376.21C248.933 2376.21 238.511 2372.74 229.505 2365.79C220.755 2358.84 216.381 2350.09 216.381 2339.54C216.381 2328.99 220.112 2310.98 227.575 2285.5C235.295 2260.02 243.015 2232.88 250.735 2204.05C258.455 2175.23 262.315 2150.91 262.315 2131.1C262.315 2128.27 262.829 2125.31 263.859 2122.22C268.233 2112.7 296.283 2107.94 348.007 2107.94C399.731 2107.94 425.593 2111.67 425.593 2119.13C425.593 2124.28 420.06 2127.75 408.995 2129.56C399.731 2131.36 387.379 2133.03 371.939 2134.57C356.756 2135.86 346.077 2136.89 339.901 2137.66C333.725 2138.18 318.799 2140.49 295.125 2144.61V2145.77C295.125 2163.27 290.364 2189.64 280.843 2224.9C282.387 2225.16 287.533 2225.28 296.283 2225.28C305.289 2225.28 317.255 2224.64 332.181 2223.35C347.106 2222.07 358.3 2221.42 365.763 2221.42C373.483 2221.42 377.343 2223.23 377.343 2226.83C377.343 2235.83 366.792 2242.53 345.691 2246.9C324.589 2251.27 300.143 2253.46 272.351 2253.46ZM456.457 2375.82C452.597 2375.82 448.223 2372.99 443.333 2367.33C438.444 2361.67 435.999 2356.01 435.999 2350.35C435.999 2344.43 443.076 2316.51 457.229 2266.59C471.383 2216.66 479.489 2178.71 481.547 2152.72C478.202 2150.66 475.243 2147.44 472.669 2143.07C470.096 2138.69 468.809 2134.83 468.809 2131.49C468.809 2125.57 477.559 2119.52 495.057 2113.34C512.556 2106.91 531.856 2103.69 552.957 2103.69C574.316 2103.69 592.715 2108.84 608.155 2119.13C623.853 2129.17 631.701 2143.45 631.701 2161.98C631.701 2174.59 628.099 2186.43 620.893 2197.49C613.945 2208.3 605.325 2217.18 595.031 2224.13C584.995 2231.07 574.959 2237.25 564.923 2242.65C554.887 2248.06 546.267 2252.56 539.061 2256.16C532.113 2259.51 528.639 2261.95 528.639 2263.5C528.639 2269.16 533.014 2276.49 541.763 2285.5C550.77 2294.51 557.075 2300.68 560.677 2304.03C564.28 2307.37 569.041 2311.88 574.959 2317.54C580.878 2322.94 586.411 2327.83 591.557 2332.21C596.961 2336.58 601.207 2340.18 604.295 2343.01C607.641 2345.84 610.986 2348.8 614.331 2351.89C620.765 2357.81 623.981 2362.57 623.981 2366.17C623.981 2372.35 619.735 2375.44 611.243 2375.44C595.803 2375.44 573.801 2362.06 545.237 2335.29C516.673 2308.27 499.175 2285.37 492.741 2266.59C480.647 2306.73 473.699 2330.02 471.897 2336.45C470.096 2342.63 468.037 2349.06 465.721 2355.75C461.604 2369.13 458.516 2375.82 456.457 2375.82ZM514.743 2163.14C514.743 2179.86 509.339 2207.53 498.531 2246.13C502.906 2242.78 511.269 2237.89 523.621 2231.46C535.973 2224.77 547.039 2218.72 556.817 2213.32C566.853 2207.66 575.989 2200.19 584.223 2190.93C592.458 2181.67 596.575 2172.02 596.575 2161.98C596.575 2146.03 582.679 2138.05 554.887 2138.05C542.278 2138.05 527.61 2141.26 510.883 2147.7C513.457 2153.36 514.743 2158.51 514.743 2163.14ZM853.645 2104.85C857.763 2104.85 861.88 2106.4 865.997 2109.48C870.115 2112.31 872.173 2115.92 872.173 2120.29C872.173 2124.41 869.729 2131.1 864.839 2140.36C860.207 2149.63 852.101 2164.55 840.521 2185.14C828.941 2205.47 819.034 2223.87 810.799 2240.34C802.565 2256.81 794.716 2273.02 787.253 2288.97C780.048 2304.67 774.258 2317.28 769.883 2326.8C765.766 2336.07 761.649 2344.94 757.531 2353.44C749.297 2369.13 742.477 2376.98 737.073 2376.98C733.985 2376.98 730.254 2374.54 725.879 2369.65C721.505 2364.5 718.031 2358.71 715.457 2352.28C708.509 2335.04 699.117 2295.15 687.279 2232.62C675.699 2170.09 669.909 2131.49 669.909 2116.82C669.909 2108.84 672.097 2104.85 676.471 2104.85C681.875 2104.85 687.408 2107.68 693.069 2113.34C698.731 2118.75 703.234 2125.7 706.579 2134.19C708.123 2138.82 711.855 2164.55 717.773 2211.39C723.949 2257.97 730.897 2295.92 738.617 2325.26C755.087 2278.68 776.317 2230.3 802.307 2180.12C828.298 2129.94 845.411 2104.85 853.645 2104.85ZM894.649 2374.67C891.561 2374.67 887.444 2371.58 882.297 2365.4C877.408 2359.23 874.963 2353.56 874.963 2348.42C874.963 2343.27 882.554 2307.37 897.737 2240.72C913.177 2173.82 921.026 2132.39 921.283 2116.43C921.283 2112.06 921.798 2109.1 922.827 2107.55C924.114 2105.75 926.558 2104.85 930.161 2104.85C934.021 2104.85 938.91 2108.84 944.829 2116.82C951.005 2124.8 954.093 2133.42 954.093 2142.68C954.093 2151.69 944.829 2193.89 926.301 2269.29C924.5 2276.24 922.055 2286.27 918.967 2299.4C915.879 2312.26 913.434 2322.17 911.633 2329.12C909.832 2336.07 907.902 2343.66 905.843 2351.89C901.468 2367.07 897.737 2374.67 894.649 2374.67ZM1149.63 2104.85C1156.32 2104.85 1163.14 2109.1 1170.09 2117.59C1177.29 2126.08 1180.89 2133.16 1180.89 2138.82C1180.89 2144.22 1179.87 2146.93 1177.81 2146.93C1176.01 2146.93 1172.4 2146.03 1167 2144.22C1161.59 2142.17 1156.71 2141.14 1152.33 2141.14C1142.29 2141.14 1130.07 2146.28 1115.66 2156.58C1101.51 2166.87 1088 2179.61 1075.13 2194.79C1062.52 2209.97 1051.71 2227.34 1042.71 2246.9C1033.7 2266.2 1029.2 2282.93 1029.2 2297.08C1029.2 2311.23 1032.8 2321.66 1040 2328.35C1047.47 2334.78 1057.12 2338 1068.95 2338C1080.79 2338 1093.02 2336.32 1105.62 2332.98C1118.23 2329.38 1128.53 2325.39 1136.5 2321.01C1157.09 2309.95 1168.41 2304.41 1170.47 2304.41C1174.85 2304.41 1177.03 2307.37 1177.03 2313.29C1177.03 2318.95 1171.12 2326.67 1159.28 2336.45C1147.44 2345.97 1132.77 2354.59 1115.27 2362.31C1097.78 2370.03 1082.08 2373.89 1068.18 2373.89C1050.17 2373.89 1033.19 2366.17 1017.23 2350.73C1001.28 2335.04 993.299 2317.8 993.299 2299.01C993.299 2274.82 1001.15 2247.54 1016.84 2217.18C1032.8 2186.56 1053.13 2160.18 1077.83 2138.05C1102.79 2115.92 1126.73 2104.85 1149.63 2104.85ZM1279.57 2253.46C1265.67 2297.47 1258.73 2324.1 1258.73 2333.36C1258.73 2336.45 1259.63 2339.03 1261.43 2341.08C1263.49 2342.89 1266.06 2343.79 1269.15 2343.79C1298.74 2343.79 1331.42 2339.03 1367.19 2329.5C1378.77 2326.42 1385.46 2324.87 1387.26 2324.87C1391.12 2324.87 1393.05 2327.57 1393.05 2332.98C1393.05 2342.24 1378.77 2351.76 1350.21 2361.54C1321.9 2371.32 1294.49 2376.21 1267.99 2376.21C1256.15 2376.21 1245.73 2372.74 1236.72 2365.79C1227.97 2358.84 1223.6 2350.09 1223.6 2339.54C1223.6 2328.99 1227.33 2310.98 1234.79 2285.5C1242.51 2260.02 1250.23 2232.88 1257.95 2204.05C1265.67 2175.23 1269.53 2150.91 1269.53 2131.1C1269.53 2128.27 1270.05 2125.31 1271.08 2122.22C1275.45 2112.7 1303.5 2107.94 1355.23 2107.94C1406.95 2107.94 1432.81 2111.67 1432.81 2119.13C1432.81 2124.28 1427.28 2127.75 1416.21 2129.56C1406.95 2131.36 1394.6 2133.03 1379.16 2134.57C1363.97 2135.86 1353.3 2136.89 1347.12 2137.66C1340.94 2138.18 1326.02 2140.49 1302.34 2144.61V2145.77C1302.34 2163.27 1297.58 2189.64 1288.06 2224.9C1289.61 2225.16 1294.75 2225.28 1303.5 2225.28C1312.51 2225.28 1324.47 2224.64 1339.4 2223.35C1354.32 2222.07 1365.52 2221.42 1372.98 2221.42C1380.7 2221.42 1384.56 2223.23 1384.56 2226.83C1384.56 2235.83 1374.01 2242.53 1352.91 2246.9C1331.81 2251.27 1307.36 2253.46 1279.57 2253.46ZM1605.72 2299.4C1605.72 2320.5 1596.2 2338.25 1577.16 2352.66C1558.12 2366.82 1536.24 2373.89 1511.54 2373.89C1487.09 2373.89 1466.89 2367.59 1450.94 2354.98C1434.98 2342.11 1427.01 2330.02 1427.01 2318.7C1427.01 2310.98 1429.32 2307.12 1433.95 2307.12C1438.07 2307.12 1446.18 2313.29 1458.27 2325.64C1462.9 2330.02 1469.08 2334.14 1476.8 2338C1484.78 2341.86 1493.14 2343.79 1501.89 2343.79C1519.9 2343.79 1535.86 2339.15 1549.75 2329.89C1563.91 2320.63 1570.98 2310.59 1570.98 2299.78C1570.98 2292.83 1566.35 2283.96 1557.09 2273.15C1547.82 2262.34 1537.53 2252.18 1526.21 2242.65C1515.14 2232.88 1504.98 2222.45 1495.71 2211.39C1486.45 2200.32 1481.82 2191.57 1481.82 2185.14C1481.82 2178.71 1483.1 2171.89 1485.68 2164.68C1488.25 2157.48 1491.08 2152.2 1494.17 2148.86C1504.21 2137.79 1519.77 2127.63 1540.88 2118.36C1562.23 2109.1 1580.12 2104.47 1594.53 2104.47C1601.99 2104.47 1608.3 2106.91 1613.44 2111.8C1618.59 2116.69 1621.16 2121.84 1621.16 2127.24C1621.16 2129.81 1618.46 2131.87 1613.06 2133.42C1607.65 2134.96 1599.42 2137.02 1588.35 2139.59C1577.55 2141.91 1567.9 2144.74 1559.4 2148.08C1529.81 2159.41 1515.01 2170.34 1515.01 2180.89C1515.01 2186.56 1530.07 2202.38 1560.18 2228.37C1571.76 2238.41 1582.18 2250.12 1591.44 2263.5C1600.96 2276.62 1605.72 2288.59 1605.72 2299.4ZM167.648 2799.4C167.648 2820.5 158.127 2838.25 139.084 2852.66C120.041 2866.82 98.168 2873.89 73.464 2873.89C49.0173 2873.89 28.8167 2867.59 12.862 2854.98C-3.09267 2842.11 -11.07 2830.02 -11.07 2818.7C-11.07 2810.98 -8.754 2807.12 -4.122 2807.12C-0.00466621 2807.12 8.10133 2813.29 20.196 2825.64C24.828 2830.02 31.004 2834.14 38.724 2838C46.7013 2841.86 55.0647 2843.79 63.814 2843.79C81.8273 2843.79 97.782 2839.15 111.678 2829.89C125.831 2820.63 132.908 2810.59 132.908 2799.78C132.908 2792.83 128.276 2783.96 119.012 2773.15C109.748 2762.34 99.4547 2752.18 88.132 2742.65C77.0667 2732.88 66.902 2722.45 57.638 2711.39C48.374 2700.32 43.742 2691.57 43.742 2685.14C43.742 2678.71 45.0287 2671.89 47.602 2664.68C50.1753 2657.48 53.006 2652.2 56.094 2648.86C66.13 2637.79 81.6987 2627.63 102.8 2618.36C124.159 2609.1 142.043 2604.47 156.454 2604.47C163.917 2604.47 170.221 2606.91 175.368 2611.8C180.515 2616.69 183.088 2621.84 183.088 2627.24C183.088 2629.81 180.386 2631.87 174.982 2633.42C169.578 2634.96 161.343 2637.02 150.278 2639.59C139.47 2641.91 129.82 2644.74 121.328 2648.08C91.7347 2659.41 76.938 2670.34 76.938 2680.89C76.938 2686.56 91.992 2702.38 122.1 2728.37C133.68 2738.41 144.102 2750.12 153.366 2763.5C162.887 2776.62 167.648 2788.59 167.648 2799.4ZM272.351 2753.46C258.455 2797.47 251.507 2824.1 251.507 2833.36C251.507 2836.45 252.407 2839.03 254.209 2841.08C256.267 2842.89 258.841 2843.79 261.929 2843.79C291.522 2843.79 324.203 2839.03 359.973 2829.5C371.553 2826.42 378.243 2824.87 380.045 2824.87C383.905 2824.87 385.835 2827.57 385.835 2832.98C385.835 2842.24 371.553 2851.76 342.989 2861.54C314.682 2871.32 287.276 2876.21 260.771 2876.21C248.933 2876.21 238.511 2872.74 229.505 2865.79C220.755 2858.84 216.381 2850.09 216.381 2839.54C216.381 2828.99 220.112 2810.98 227.575 2785.5C235.295 2760.02 243.015 2732.88 250.735 2704.05C258.455 2675.23 262.315 2650.91 262.315 2631.1C262.315 2628.27 262.829 2625.31 263.859 2622.22C268.233 2612.7 296.283 2607.94 348.007 2607.94C399.731 2607.94 425.593 2611.67 425.593 2619.13C425.593 2624.28 420.06 2627.75 408.995 2629.56C399.731 2631.36 387.379 2633.03 371.939 2634.57C356.756 2635.86 346.077 2636.89 339.901 2637.66C333.725 2638.18 318.799 2640.49 295.125 2644.61V2645.77C295.125 2663.27 290.364 2689.64 280.843 2724.9C282.387 2725.16 287.533 2725.28 296.283 2725.28C305.289 2725.28 317.255 2724.64 332.181 2723.35C347.106 2722.07 358.3 2721.42 365.763 2721.42C373.483 2721.42 377.343 2723.23 377.343 2726.83C377.343 2735.83 366.792 2742.53 345.691 2746.9C324.589 2751.27 300.143 2753.46 272.351 2753.46ZM456.457 2875.82C452.597 2875.82 448.223 2872.99 443.333 2867.33C438.444 2861.67 435.999 2856.01 435.999 2850.35C435.999 2844.43 443.076 2816.51 457.229 2766.59C471.383 2716.66 479.489 2678.71 481.547 2652.72C478.202 2650.66 475.243 2647.44 472.669 2643.07C470.096 2638.69 468.809 2634.83 468.809 2631.49C468.809 2625.57 477.559 2619.52 495.057 2613.34C512.556 2606.91 531.856 2603.69 552.957 2603.69C574.316 2603.69 592.715 2608.84 608.155 2619.13C623.853 2629.17 631.701 2643.45 631.701 2661.98C631.701 2674.59 628.099 2686.43 620.893 2697.49C613.945 2708.3 605.325 2717.18 595.031 2724.13C584.995 2731.07 574.959 2737.25 564.923 2742.65C554.887 2748.06 546.267 2752.56 539.061 2756.16C532.113 2759.51 528.639 2761.95 528.639 2763.5C528.639 2769.16 533.014 2776.49 541.763 2785.5C550.77 2794.51 557.075 2800.68 560.677 2804.03C564.28 2807.37 569.041 2811.88 574.959 2817.54C580.878 2822.94 586.411 2827.83 591.557 2832.21C596.961 2836.58 601.207 2840.18 604.295 2843.01C607.641 2845.84 610.986 2848.8 614.331 2851.89C620.765 2857.81 623.981 2862.57 623.981 2866.17C623.981 2872.35 619.735 2875.44 611.243 2875.44C595.803 2875.44 573.801 2862.06 545.237 2835.29C516.673 2808.27 499.175 2785.37 492.741 2766.59C480.647 2806.73 473.699 2830.02 471.897 2836.45C470.096 2842.63 468.037 2849.06 465.721 2855.75C461.604 2869.13 458.516 2875.82 456.457 2875.82ZM514.743 2663.14C514.743 2679.86 509.339 2707.53 498.531 2746.13C502.906 2742.78 511.269 2737.89 523.621 2731.46C535.973 2724.77 547.039 2718.72 556.817 2713.32C566.853 2707.66 575.989 2700.19 584.223 2690.93C592.458 2681.67 596.575 2672.02 596.575 2661.98C596.575 2646.03 582.679 2638.05 554.887 2638.05C542.278 2638.05 527.61 2641.26 510.883 2647.7C513.457 2653.36 514.743 2658.51 514.743 2663.14ZM853.645 2604.85C857.763 2604.85 861.88 2606.4 865.997 2609.48C870.115 2612.31 872.173 2615.92 872.173 2620.29C872.173 2624.41 869.729 2631.1 864.839 2640.36C860.207 2649.63 852.101 2664.55 840.521 2685.14C828.941 2705.47 819.034 2723.87 810.799 2740.34C802.565 2756.81 794.716 2773.02 787.253 2788.97C780.048 2804.67 774.258 2817.28 769.883 2826.8C765.766 2836.07 761.649 2844.94 757.531 2853.44C749.297 2869.13 742.477 2876.98 737.073 2876.98C733.985 2876.98 730.254 2874.54 725.879 2869.65C721.505 2864.5 718.031 2858.71 715.457 2852.28C708.509 2835.04 699.117 2795.15 687.279 2732.62C675.699 2670.09 669.909 2631.49 669.909 2616.82C669.909 2608.84 672.097 2604.85 676.471 2604.85C681.875 2604.85 687.408 2607.68 693.069 2613.34C698.731 2618.75 703.234 2625.7 706.579 2634.19C708.123 2638.82 711.855 2664.55 717.773 2711.39C723.949 2757.97 730.897 2795.92 738.617 2825.26C755.087 2778.68 776.317 2730.3 802.307 2680.12C828.298 2629.94 845.411 2604.85 853.645 2604.85ZM894.649 2874.67C891.561 2874.67 887.444 2871.58 882.297 2865.4C877.408 2859.23 874.963 2853.56 874.963 2848.42C874.963 2843.27 882.554 2807.37 897.737 2740.72C913.177 2673.82 921.026 2632.39 921.283 2616.43C921.283 2612.06 921.798 2609.1 922.827 2607.55C924.114 2605.75 926.558 2604.85 930.161 2604.85C934.021 2604.85 938.91 2608.84 944.829 2616.82C951.005 2624.8 954.093 2633.42 954.093 2642.68C954.093 2651.69 944.829 2693.89 926.301 2769.29C924.5 2776.24 922.055 2786.27 918.967 2799.4C915.879 2812.26 913.434 2822.17 911.633 2829.12C909.832 2836.07 907.902 2843.66 905.843 2851.89C901.468 2867.07 897.737 2874.67 894.649 2874.67ZM1149.63 2604.85C1156.32 2604.85 1163.14 2609.1 1170.09 2617.59C1177.29 2626.08 1180.89 2633.16 1180.89 2638.82C1180.89 2644.22 1179.87 2646.93 1177.81 2646.93C1176.01 2646.93 1172.4 2646.03 1167 2644.22C1161.59 2642.17 1156.71 2641.14 1152.33 2641.14C1142.29 2641.14 1130.07 2646.28 1115.66 2656.58C1101.51 2666.87 1088 2679.61 1075.13 2694.79C1062.52 2709.97 1051.71 2727.34 1042.71 2746.9C1033.7 2766.2 1029.2 2782.93 1029.2 2797.08C1029.2 2811.23 1032.8 2821.66 1040 2828.35C1047.47 2834.78 1057.12 2838 1068.95 2838C1080.79 2838 1093.02 2836.32 1105.62 2832.98C1118.23 2829.38 1128.53 2825.39 1136.5 2821.01C1157.09 2809.95 1168.41 2804.41 1170.47 2804.41C1174.85 2804.41 1177.03 2807.37 1177.03 2813.29C1177.03 2818.95 1171.12 2826.67 1159.28 2836.45C1147.44 2845.97 1132.77 2854.59 1115.27 2862.31C1097.78 2870.03 1082.08 2873.89 1068.18 2873.89C1050.17 2873.89 1033.19 2866.17 1017.23 2850.73C1001.28 2835.04 993.299 2817.8 993.299 2799.01C993.299 2774.82 1001.15 2747.54 1016.84 2717.18C1032.8 2686.56 1053.13 2660.18 1077.83 2638.05C1102.79 2615.92 1126.73 2604.85 1149.63 2604.85ZM1279.57 2753.46C1265.67 2797.47 1258.73 2824.1 1258.73 2833.36C1258.73 2836.45 1259.63 2839.03 1261.43 2841.08C1263.49 2842.89 1266.06 2843.79 1269.15 2843.79C1298.74 2843.79 1331.42 2839.03 1367.19 2829.5C1378.77 2826.42 1385.46 2824.87 1387.26 2824.87C1391.12 2824.87 1393.05 2827.57 1393.05 2832.98C1393.05 2842.24 1378.77 2851.76 1350.21 2861.54C1321.9 2871.32 1294.49 2876.21 1267.99 2876.21C1256.15 2876.21 1245.73 2872.74 1236.72 2865.79C1227.97 2858.84 1223.6 2850.09 1223.6 2839.54C1223.6 2828.99 1227.33 2810.98 1234.79 2785.5C1242.51 2760.02 1250.23 2732.88 1257.95 2704.05C1265.67 2675.23 1269.53 2650.91 1269.53 2631.1C1269.53 2628.27 1270.05 2625.31 1271.08 2622.22C1275.45 2612.7 1303.5 2607.94 1355.23 2607.94C1406.95 2607.94 1432.81 2611.67 1432.81 2619.13C1432.81 2624.28 1427.28 2627.75 1416.21 2629.56C1406.95 2631.36 1394.6 2633.03 1379.16 2634.57C1363.97 2635.86 1353.3 2636.89 1347.12 2637.66C1340.94 2638.18 1326.02 2640.49 1302.34 2644.61V2645.77C1302.34 2663.27 1297.58 2689.64 1288.06 2724.9C1289.61 2725.16 1294.75 2725.28 1303.5 2725.28C1312.51 2725.28 1324.47 2724.64 1339.4 2723.35C1354.32 2722.07 1365.52 2721.42 1372.98 2721.42C1380.7 2721.42 1384.56 2723.23 1384.56 2726.83C1384.56 2735.83 1374.01 2742.53 1352.91 2746.9C1331.81 2751.27 1307.36 2753.46 1279.57 2753.46ZM167.648 3299.4C167.648 3320.5 158.127 3338.25 139.084 3352.66C120.041 3366.82 98.168 3373.89 73.464 3373.89C49.0173 3373.89 28.8167 3367.59 12.862 3354.98C-3.09267 3342.11 -11.07 3330.02 -11.07 3318.7C-11.07 3310.98 -8.754 3307.12 -4.122 3307.12C-0.00466621 3307.12 8.10133 3313.29 20.196 3325.64C24.828 3330.02 31.004 3334.14 38.724 3338C46.7013 3341.86 55.0647 3343.79 63.814 3343.79C81.8273 3343.79 97.782 3339.15 111.678 3329.89C125.831 3320.63 132.908 3310.59 132.908 3299.78C132.908 3292.83 128.276 3283.96 119.012 3273.15C109.748 3262.34 99.4547 3252.18 88.132 3242.65C77.0667 3232.88 66.902 3222.45 57.638 3211.39C48.374 3200.32 43.742 3191.57 43.742 3185.14C43.742 3178.71 45.0287 3171.89 47.602 3164.68C50.1753 3157.48 53.006 3152.2 56.094 3148.86C66.13 3137.79 81.6987 3127.63 102.8 3118.36C124.159 3109.1 142.043 3104.47 156.454 3104.47C163.917 3104.47 170.221 3106.91 175.368 3111.8C180.515 3116.69 183.088 3121.84 183.088 3127.24C183.088 3129.81 180.386 3131.87 174.982 3133.42C169.578 3134.96 161.343 3137.02 150.278 3139.59C139.47 3141.91 129.82 3144.74 121.328 3148.08C91.7347 3159.41 76.938 3170.34 76.938 3180.89C76.938 3186.56 91.992 3202.38 122.1 3228.37C133.68 3238.41 144.102 3250.12 153.366 3263.5C162.887 3276.62 167.648 3288.59 167.648 3299.4ZM272.351 3253.46C258.455 3297.47 251.507 3324.1 251.507 3333.36C251.507 3336.45 252.407 3339.03 254.209 3341.08C256.267 3342.89 258.841 3343.79 261.929 3343.79C291.522 3343.79 324.203 3339.03 359.973 3329.5C371.553 3326.42 378.243 3324.87 380.045 3324.87C383.905 3324.87 385.835 3327.57 385.835 3332.98C385.835 3342.24 371.553 3351.76 342.989 3361.54C314.682 3371.32 287.276 3376.21 260.771 3376.21C248.933 3376.21 238.511 3372.74 229.505 3365.79C220.755 3358.84 216.381 3350.09 216.381 3339.54C216.381 3328.99 220.112 3310.98 227.575 3285.5C235.295 3260.02 243.015 3232.88 250.735 3204.05C258.455 3175.23 262.315 3150.91 262.315 3131.1C262.315 3128.27 262.829 3125.31 263.859 3122.22C268.233 3112.7 296.283 3107.94 348.007 3107.94C399.731 3107.94 425.593 3111.67 425.593 3119.13C425.593 3124.28 420.06 3127.75 408.995 3129.56C399.731 3131.36 387.379 3133.03 371.939 3134.57C356.756 3135.86 346.077 3136.89 339.901 3137.66C333.725 3138.18 318.799 3140.49 295.125 3144.61V3145.77C295.125 3163.27 290.364 3189.64 280.843 3224.9C282.387 3225.16 287.533 3225.28 296.283 3225.28C305.289 3225.28 317.255 3224.64 332.181 3223.35C347.106 3222.07 358.3 3221.42 365.763 3221.42C373.483 3221.42 377.343 3223.23 377.343 3226.83C377.343 3235.83 366.792 3242.53 345.691 3246.9C324.589 3251.27 300.143 3253.46 272.351 3253.46ZM456.457 3375.82C452.597 3375.82 448.223 3372.99 443.333 3367.33C438.444 3361.67 435.999 3356.01 435.999 3350.35C435.999 3344.43 443.076 3316.51 457.229 3266.59C471.383 3216.66 479.489 3178.71 481.547 3152.72C478.202 3150.66 475.243 3147.44 472.669 3143.07C470.096 3138.69 468.809 3134.83 468.809 3131.49C468.809 3125.57 477.559 3119.52 495.057 3113.34C512.556 3106.91 531.856 3103.69 552.957 3103.69C574.316 3103.69 592.715 3108.84 608.155 3119.13C623.853 3129.17 631.701 3143.45 631.701 3161.98C631.701 3174.59 628.099 3186.43 620.893 3197.49C613.945 3208.3 605.325 3217.18 595.031 3224.13C584.995 3231.07 574.959 3237.25 564.923 3242.65C554.887 3248.06 546.267 3252.56 539.061 3256.16C532.113 3259.51 528.639 3261.95 528.639 3263.5C528.639 3269.16 533.014 3276.49 541.763 3285.5C550.77 3294.51 557.075 3300.68 560.677 3304.03C564.28 3307.37 569.041 3311.88 574.959 3317.54C580.878 3322.94 586.411 3327.83 591.557 3332.21C596.961 3336.58 601.207 3340.18 604.295 3343.01C607.641 3345.84 610.986 3348.8 614.331 3351.89C620.765 3357.81 623.981 3362.57 623.981 3366.17C623.981 3372.35 619.735 3375.44 611.243 3375.44C595.803 3375.44 573.801 3362.06 545.237 3335.29C516.673 3308.27 499.175 3285.37 492.741 3266.59C480.647 3306.73 473.699 3330.02 471.897 3336.45C470.096 3342.63 468.037 3349.06 465.721 3355.75C461.604 3369.13 458.516 3375.82 456.457 3375.82ZM514.743 3163.14C514.743 3179.86 509.339 3207.53 498.531 3246.13C502.906 3242.78 511.269 3237.89 523.621 3231.46C535.973 3224.77 547.039 3218.72 556.817 3213.32C566.853 3207.66 575.989 3200.19 584.223 3190.93C592.458 3181.67 596.575 3172.02 596.575 3161.98C596.575 3146.03 582.679 3138.05 554.887 3138.05C542.278 3138.05 527.61 3141.26 510.883 3147.7C513.457 3153.36 514.743 3158.51 514.743 3163.14ZM853.645 3104.85C857.763 3104.85 861.88 3106.4 865.997 3109.48C870.115 3112.31 872.173 3115.92 872.173 3120.29C872.173 3124.41 869.729 3131.1 864.839 3140.36C860.207 3149.63 852.101 3164.55 840.521 3185.14C828.941 3205.47 819.034 3223.87 810.799 3240.34C802.565 3256.81 794.716 3273.02 787.253 3288.97C780.048 3304.67 774.258 3317.28 769.883 3326.8C765.766 3336.07 761.649 3344.94 757.531 3353.44C749.297 3369.13 742.477 3376.98 737.073 3376.98C733.985 3376.98 730.254 3374.54 725.879 3369.65C721.505 3364.5 718.031 3358.71 715.457 3352.28C708.509 3335.04 699.117 3295.15 687.279 3232.62C675.699 3170.09 669.909 3131.49 669.909 3116.82C669.909 3108.84 672.097 3104.85 676.471 3104.85C681.875 3104.85 687.408 3107.68 693.069 3113.34C698.731 3118.75 703.234 3125.7 706.579 3134.19C708.123 3138.82 711.855 3164.55 717.773 3211.39C723.949 3257.97 730.897 3295.92 738.617 3325.26C755.087 3278.68 776.317 3230.3 802.307 3180.12C828.298 3129.94 845.411 3104.85 853.645 3104.85ZM894.649 3374.67C891.561 3374.67 887.444 3371.58 882.297 3365.4C877.408 3359.23 874.963 3353.56 874.963 3348.42C874.963 3343.27 882.554 3307.37 897.737 3240.72C913.177 3173.82 921.026 3132.39 921.283 3116.43C921.283 3112.06 921.798 3109.1 922.827 3107.55C924.114 3105.75 926.558 3104.85 930.161 3104.85C934.021 3104.85 938.91 3108.84 944.829 3116.82C951.005 3124.8 954.093 3133.42 954.093 3142.68C954.093 3151.69 944.829 3193.89 926.301 3269.29C924.5 3276.24 922.055 3286.27 918.967 3299.4C915.879 3312.26 913.434 3322.17 911.633 3329.12C909.832 3336.07 907.902 3343.66 905.843 3351.89C901.468 3367.07 897.737 3374.67 894.649 3374.67ZM1149.63 3104.85C1156.32 3104.85 1163.14 3109.1 1170.09 3117.59C1177.29 3126.08 1180.89 3133.16 1180.89 3138.82C1180.89 3144.22 1179.87 3146.93 1177.81 3146.93C1176.01 3146.93 1172.4 3146.03 1167 3144.22C1161.59 3142.17 1156.71 3141.14 1152.33 3141.14C1142.29 3141.14 1130.07 3146.28 1115.66 3156.58C1101.51 3166.87 1088 3179.61 1075.13 3194.79C1062.52 3209.97 1051.71 3227.34 1042.71 3246.9C1033.7 3266.2 1029.2 3282.93 1029.2 3297.08C1029.2 3311.23 1032.8 3321.66 1040 3328.35C1047.47 3334.78 1057.12 3338 1068.95 3338C1080.79 3338 1093.02 3336.32 1105.62 3332.98C1118.23 3329.38 1128.53 3325.39 1136.5 3321.01C1157.09 3309.95 1168.41 3304.41 1170.47 3304.41C1174.85 3304.41 1177.03 3307.37 1177.03 3313.29C1177.03 3318.95 1171.12 3326.67 1159.28 3336.45C1147.44 3345.97 1132.77 3354.59 1115.27 3362.31C1097.78 3370.03 1082.08 3373.89 1068.18 3373.89C1050.17 3373.89 1033.19 3366.17 1017.23 3350.73C1001.28 3335.04 993.299 3317.8 993.299 3299.01C993.299 3274.82 1001.15 3247.54 1016.84 3217.18C1032.8 3186.56 1053.13 3160.18 1077.83 3138.05C1102.79 3115.92 1126.73 3104.85 1149.63 3104.85ZM1279.57 3253.46C1265.67 3297.47 1258.73 3324.1 1258.73 3333.36C1258.73 3336.45 1259.63 3339.03 1261.43 3341.08C1263.49 3342.89 1266.06 3343.79 1269.15 3343.79C1298.74 3343.79 1331.42 3339.03 1367.19 3329.5C1378.77 3326.42 1385.46 3324.87 1387.26 3324.87C1391.12 3324.87 1393.05 3327.57 1393.05 3332.98C1393.05 3342.24 1378.77 3351.76 1350.21 3361.54C1321.9 3371.32 1294.49 3376.21 1267.99 3376.21C1256.15 3376.21 1245.73 3372.74 1236.72 3365.79C1227.97 3358.84 1223.6 3350.09 1223.6 3339.54C1223.6 3328.99 1227.33 3310.98 1234.79 3285.5C1242.51 3260.02 1250.23 3232.88 1257.95 3204.05C1265.67 3175.23 1269.53 3150.91 1269.53 3131.1C1269.53 3128.27 1270.05 3125.31 1271.08 3122.22C1275.45 3112.7 1303.5 3107.94 1355.23 3107.94C1406.95 3107.94 1432.81 3111.67 1432.81 3119.13C1432.81 3124.28 1427.28 3127.75 1416.21 3129.56C1406.95 3131.36 1394.6 3133.03 1379.16 3134.57C1363.97 3135.86 1353.3 3136.89 1347.12 3137.66C1340.94 3138.18 1326.02 3140.49 1302.34 3144.61V3145.77C1302.34 3163.27 1297.58 3189.64 1288.06 3224.9C1289.61 3225.16 1294.75 3225.28 1303.5 3225.28C1312.51 3225.28 1324.47 3224.64 1339.4 3223.35C1354.32 3222.07 1365.52 3221.42 1372.98 3221.42C1380.7 3221.42 1384.56 3223.23 1384.56 3226.83C1384.56 3235.83 1374.01 3242.53 1352.91 3246.9C1331.81 3251.27 1307.36 3253.46 1279.57 3253.46ZM1605.72 3299.4C1605.72 3320.5 1596.2 3338.25 1577.16 3352.66C1558.12 3366.82 1536.24 3373.89 1511.54 3373.89C1487.09 3373.89 1466.89 3367.59 1450.94 3354.98C1434.98 3342.11 1427.01 3330.02 1427.01 3318.7C1427.01 3310.98 1429.32 3307.12 1433.95 3307.12C1438.07 3307.12 1446.18 3313.29 1458.27 3325.64C1462.9 3330.02 1469.08 3334.14 1476.8 3338C1484.78 3341.86 1493.14 3343.79 1501.89 3343.79C1519.9 3343.79 1535.86 3339.15 1549.75 3329.89C1563.91 3320.63 1570.98 3310.59 1570.98 3299.78C1570.98 3292.83 1566.35 3283.96 1557.09 3273.15C1547.82 3262.34 1537.53 3252.18 1526.21 3242.65C1515.14 3232.88 1504.98 3222.45 1495.71 3211.39C1486.45 3200.32 1481.82 3191.57 1481.82 3185.14C1481.82 3178.71 1483.1 3171.89 1485.68 3164.68C1488.25 3157.48 1491.08 3152.2 1494.17 3148.86C1504.21 3137.79 1519.77 3127.63 1540.88 3118.36C1562.23 3109.1 1580.12 3104.47 1594.53 3104.47C1601.99 3104.47 1608.3 3106.91 1613.44 3111.8C1618.59 3116.69 1621.16 3121.84 1621.16 3127.24C1621.16 3129.81 1618.46 3131.87 1613.06 3133.42C1607.65 3134.96 1599.42 3137.02 1588.35 3139.59C1577.55 3141.91 1567.9 3144.74 1559.4 3148.08C1529.81 3159.41 1515.01 3170.34 1515.01 3180.89C1515.01 3186.56 1530.07 3202.38 1560.18 3228.37C1571.76 3238.41 1582.18 3250.12 1591.44 3263.5C1600.96 3276.62 1605.72 3288.59 1605.72 3299.4ZM167.648 3799.4C167.648 3820.5 158.127 3838.25 139.084 3852.66C120.041 3866.82 98.168 3873.89 73.464 3873.89C49.0173 3873.89 28.8167 3867.59 12.862 3854.98C-3.09267 3842.11 -11.07 3830.02 -11.07 3818.7C-11.07 3810.98 -8.754 3807.12 -4.122 3807.12C-0.00466621 3807.12 8.10133 3813.29 20.196 3825.64C24.828 3830.02 31.004 3834.14 38.724 3838C46.7013 3841.86 55.0647 3843.79 63.814 3843.79C81.8273 3843.79 97.782 3839.15 111.678 3829.89C125.831 3820.63 132.908 3810.59 132.908 3799.78C132.908 3792.83 128.276 3783.96 119.012 3773.15C109.748 3762.34 99.4547 3752.18 88.132 3742.65C77.0667 3732.88 66.902 3722.45 57.638 3711.39C48.374 3700.32 43.742 3691.57 43.742 3685.14C43.742 3678.71 45.0287 3671.89 47.602 3664.68C50.1753 3657.48 53.006 3652.2 56.094 3648.86C66.13 3637.79 81.6987 3627.63 102.8 3618.36C124.159 3609.1 142.043 3604.47 156.454 3604.47C163.917 3604.47 170.221 3606.91 175.368 3611.8C180.515 3616.69 183.088 3621.84 183.088 3627.24C183.088 3629.81 180.386 3631.87 174.982 3633.42C169.578 3634.96 161.343 3637.02 150.278 3639.59C139.47 3641.91 129.82 3644.74 121.328 3648.08C91.7347 3659.41 76.938 3670.34 76.938 3680.89C76.938 3686.56 91.992 3702.38 122.1 3728.37C133.68 3738.41 144.102 3750.12 153.366 3763.5C162.887 3776.62 167.648 3788.59 167.648 3799.4ZM272.351 3753.46C258.455 3797.47 251.507 3824.1 251.507 3833.36C251.507 3836.45 252.407 3839.03 254.209 3841.08C256.267 3842.89 258.841 3843.79 261.929 3843.79C291.522 3843.79 324.203 3839.03 359.973 3829.5C371.553 3826.42 378.243 3824.87 380.045 3824.87C383.905 3824.87 385.835 3827.57 385.835 3832.98C385.835 3842.24 371.553 3851.76 342.989 3861.54C314.682 3871.32 287.276 3876.21 260.771 3876.21C248.933 3876.21 238.511 3872.74 229.505 3865.79C220.755 3858.84 216.381 3850.09 216.381 3839.54C216.381 3828.99 220.112 3810.98 227.575 3785.5C235.295 3760.02 243.015 3732.88 250.735 3704.05C258.455 3675.23 262.315 3650.91 262.315 3631.1C262.315 3628.27 262.829 3625.31 263.859 3622.22C268.233 3612.7 296.283 3607.94 348.007 3607.94C399.731 3607.94 425.593 3611.67 425.593 3619.13C425.593 3624.28 420.06 3627.75 408.995 3629.56C399.731 3631.36 387.379 3633.03 371.939 3634.57C356.756 3635.86 346.077 3636.89 339.901 3637.66C333.725 3638.18 318.799 3640.49 295.125 3644.61V3645.77C295.125 3663.27 290.364 3689.64 280.843 3724.9C282.387 3725.16 287.533 3725.28 296.283 3725.28C305.289 3725.28 317.255 3724.64 332.181 3723.35C347.106 3722.07 358.3 3721.42 365.763 3721.42C373.483 3721.42 377.343 3723.23 377.343 3726.83C377.343 3735.83 366.792 3742.53 345.691 3746.9C324.589 3751.27 300.143 3753.46 272.351 3753.46ZM456.457 3875.82C452.597 3875.82 448.223 3872.99 443.333 3867.33C438.444 3861.67 435.999 3856.01 435.999 3850.35C435.999 3844.43 443.076 3816.51 457.229 3766.59C471.383 3716.66 479.489 3678.71 481.547 3652.72C478.202 3650.66 475.243 3647.44 472.669 3643.07C470.096 3638.69 468.809 3634.83 468.809 3631.49C468.809 3625.57 477.559 3619.52 495.057 3613.34C512.556 3606.91 531.856 3603.69 552.957 3603.69C574.316 3603.69 592.715 3608.84 608.155 3619.13C623.853 3629.17 631.701 3643.45 631.701 3661.98C631.701 3674.59 628.099 3686.43 620.893 3697.49C613.945 3708.3 605.325 3717.18 595.031 3724.13C584.995 3731.07 574.959 3737.25 564.923 3742.65C554.887 3748.06 546.267 3752.56 539.061 3756.16C532.113 3759.51 528.639 3761.95 528.639 3763.5C528.639 3769.16 533.014 3776.49 541.763 3785.5C550.77 3794.51 557.075 3800.68 560.677 3804.03C564.28 3807.37 569.041 3811.88 574.959 3817.54C580.878 3822.94 586.411 3827.83 591.557 3832.21C596.961 3836.58 601.207 3840.18 604.295 3843.01C607.641 3845.84 610.986 3848.8 614.331 3851.89C620.765 3857.81 623.981 3862.57 623.981 3866.17C623.981 3872.35 619.735 3875.44 611.243 3875.44C595.803 3875.44 573.801 3862.06 545.237 3835.29C516.673 3808.27 499.175 3785.37 492.741 3766.59C480.647 3806.73 473.699 3830.02 471.897 3836.45C470.096 3842.63 468.037 3849.06 465.721 3855.75C461.604 3869.13 458.516 3875.82 456.457 3875.82ZM514.743 3663.14C514.743 3679.86 509.339 3707.53 498.531 3746.13C502.906 3742.78 511.269 3737.89 523.621 3731.46C535.973 3724.77 547.039 3718.72 556.817 3713.32C566.853 3707.66 575.989 3700.19 584.223 3690.93C592.458 3681.67 596.575 3672.02 596.575 3661.98C596.575 3646.03 582.679 3638.05 554.887 3638.05C542.278 3638.05 527.61 3641.26 510.883 3647.7C513.457 3653.36 514.743 3658.51 514.743 3663.14ZM853.645 3604.85C857.763 3604.85 861.88 3606.4 865.997 3609.48C870.115 3612.31 872.173 3615.92 872.173 3620.29C872.173 3624.41 869.729 3631.1 864.839 3640.36C860.207 3649.63 852.101 3664.55 840.521 3685.14C828.941 3705.47 819.034 3723.87 810.799 3740.34C802.565 3756.81 794.716 3773.02 787.253 3788.97C780.048 3804.67 774.258 3817.28 769.883 3826.8C765.766 3836.07 761.649 3844.94 757.531 3853.44C749.297 3869.13 742.477 3876.98 737.073 3876.98C733.985 3876.98 730.254 3874.54 725.879 3869.65C721.505 3864.5 718.031 3858.71 715.457 3852.28C708.509 3835.04 699.117 3795.15 687.279 3732.62C675.699 3670.09 669.909 3631.49 669.909 3616.82C669.909 3608.84 672.097 3604.85 676.471 3604.85C681.875 3604.85 687.408 3607.68 693.069 3613.34C698.731 3618.75 703.234 3625.7 706.579 3634.19C708.123 3638.82 711.855 3664.55 717.773 3711.39C723.949 3757.97 730.897 3795.92 738.617 3825.26C755.087 3778.68 776.317 3730.3 802.307 3680.12C828.298 3629.94 845.411 3604.85 853.645 3604.85ZM894.649 3874.67C891.561 3874.67 887.444 3871.58 882.297 3865.4C877.408 3859.23 874.963 3853.56 874.963 3848.42C874.963 3843.27 882.554 3807.37 897.737 3740.72C913.177 3673.82 921.026 3632.39 921.283 3616.43C921.283 3612.06 921.798 3609.1 922.827 3607.55C924.114 3605.75 926.558 3604.85 930.161 3604.85C934.021 3604.85 938.91 3608.84 944.829 3616.82C951.005 3624.8 954.093 3633.42 954.093 3642.68C954.093 3651.69 944.829 3693.89 926.301 3769.29C924.5 3776.24 922.055 3786.27 918.967 3799.4C915.879 3812.26 913.434 3822.17 911.633 3829.12C909.832 3836.07 907.902 3843.66 905.843 3851.89C901.468 3867.07 897.737 3874.67 894.649 3874.67ZM1149.63 3604.85C1156.32 3604.85 1163.14 3609.1 1170.09 3617.59C1177.29 3626.08 1180.89 3633.16 1180.89 3638.82C1180.89 3644.22 1179.87 3646.93 1177.81 3646.93C1176.01 3646.93 1172.4 3646.03 1167 3644.22C1161.59 3642.17 1156.71 3641.14 1152.33 3641.14C1142.29 3641.14 1130.07 3646.28 1115.66 3656.58C1101.51 3666.87 1088 3679.61 1075.13 3694.79C1062.52 3709.97 1051.71 3727.34 1042.71 3746.9C1033.7 3766.2 1029.2 3782.93 1029.2 3797.08C1029.2 3811.23 1032.8 3821.66 1040 3828.35C1047.47 3834.78 1057.12 3838 1068.95 3838C1080.79 3838 1093.02 3836.32 1105.62 3832.98C1118.23 3829.38 1128.53 3825.39 1136.5 3821.01C1157.09 3809.95 1168.41 3804.41 1170.47 3804.41C1174.85 3804.41 1177.03 3807.37 1177.03 3813.29C1177.03 3818.95 1171.12 3826.67 1159.28 3836.45C1147.44 3845.97 1132.77 3854.59 1115.27 3862.31C1097.78 3870.03 1082.08 3873.89 1068.18 3873.89C1050.17 3873.89 1033.19 3866.17 1017.23 3850.73C1001.28 3835.04 993.299 3817.8 993.299 3799.01C993.299 3774.82 1001.15 3747.54 1016.84 3717.18C1032.8 3686.56 1053.13 3660.18 1077.83 3638.05C1102.79 3615.92 1126.73 3604.85 1149.63 3604.85ZM1279.57 3753.46C1265.67 3797.47 1258.73 3824.1 1258.73 3833.36C1258.73 3836.45 1259.63 3839.03 1261.43 3841.08C1263.49 3842.89 1266.06 3843.79 1269.15 3843.79C1298.74 3843.79 1331.42 3839.03 1367.19 3829.5C1378.77 3826.42 1385.46 3824.87 1387.26 3824.87C1391.12 3824.87 1393.05 3827.57 1393.05 3832.98C1393.05 3842.24 1378.77 3851.76 1350.21 3861.54C1321.9 3871.32 1294.49 3876.21 1267.99 3876.21C1256.15 3876.21 1245.73 3872.74 1236.72 3865.79C1227.97 3858.84 1223.6 3850.09 1223.6 3839.54C1223.6 3828.99 1227.33 3810.98 1234.79 3785.5C1242.51 3760.02 1250.23 3732.88 1257.95 3704.05C1265.67 3675.23 1269.53 3650.91 1269.53 3631.1C1269.53 3628.27 1270.05 3625.31 1271.08 3622.22C1275.45 3612.7 1303.5 3607.94 1355.23 3607.94C1406.95 3607.94 1432.81 3611.67 1432.81 3619.13C1432.81 3624.28 1427.28 3627.75 1416.21 3629.56C1406.95 3631.36 1394.6 3633.03 1379.16 3634.57C1363.97 3635.86 1353.3 3636.89 1347.12 3637.66C1340.94 3638.18 1326.02 3640.49 1302.34 3644.61V3645.77C1302.34 3663.27 1297.58 3689.64 1288.06 3724.9C1289.61 3725.16 1294.75 3725.28 1303.5 3725.28C1312.51 3725.28 1324.47 3724.64 1339.4 3723.35C1354.32 3722.07 1365.52 3721.42 1372.98 3721.42C1380.7 3721.42 1384.56 3723.23 1384.56 3726.83C1384.56 3735.83 1374.01 3742.53 1352.91 3746.9C1331.81 3751.27 1307.36 3753.46 1279.57 3753.46Z" fill="white"/>
</g>
<defs>
<clipPath id="clip0">
<rect width="1438" height="1443" fill="white"/>
</clipPath>
</defs>
</svg>
