<svg width="627" height="320" viewBox="0 0 627 320" fill="none" xmlns="http://www.w3.org/2000/svg">
<path d="M61.73 155.889V114.869H47.87V109.969H81.47V114.869H67.61V155.889H61.73ZM89.1793 155.889V106.049H94.9193V119.629L94.7093 126.629C96.3427 125.089 98.046 123.782 99.8193 122.709C101.639 121.589 103.716 121.029 106.049 121.029C112.956 121.029 116.409 125.462 116.409 134.329V155.889H110.669V135.099C110.669 131.926 110.156 129.616 109.129 128.169C108.103 126.722 106.469 125.999 104.229 125.999C102.503 125.999 100.939 126.442 99.5393 127.329C98.186 128.216 96.646 129.522 94.9193 131.249V155.889H89.1793ZM141.046 156.729C136.519 156.729 132.669 155.166 129.496 152.039C126.322 148.866 124.736 144.502 124.736 138.949C124.736 135.216 125.459 132.019 126.906 129.359C128.399 126.699 130.289 124.646 132.576 123.199C134.909 121.752 137.382 121.029 139.996 121.029C144.336 121.029 147.672 122.476 150.006 125.369C152.386 128.262 153.576 132.136 153.576 136.989C153.576 138.342 153.506 139.439 153.366 140.279H130.406C130.639 143.872 131.759 146.742 133.766 148.889C135.819 151.036 138.479 152.109 141.746 152.109C143.379 152.109 144.872 151.876 146.226 151.409C147.626 150.896 148.956 150.242 150.216 149.449L152.246 153.229C150.799 154.162 149.142 154.979 147.276 155.679C145.409 156.379 143.332 156.729 141.046 156.729ZM130.336 136.149H148.536C148.536 129.102 145.736 125.579 140.136 125.579C137.756 125.579 135.609 126.512 133.696 128.379C131.829 130.199 130.709 132.789 130.336 136.149ZM189.296 156.729C186.076 156.729 183.089 156.122 180.336 154.909C177.582 153.649 175.202 151.992 173.196 149.939L176.696 145.879C178.329 147.606 180.242 149.006 182.436 150.079C184.676 151.106 186.986 151.619 189.366 151.619C192.399 151.619 194.756 150.942 196.436 149.589C198.116 148.189 198.956 146.369 198.956 144.129C198.956 141.796 198.232 140.116 196.786 139.089C195.339 138.016 193.519 136.989 191.326 136.009L184.746 133.139C182.552 132.252 180.452 130.899 178.446 129.079C176.439 127.259 175.436 124.669 175.436 121.309C175.436 117.809 176.789 114.916 179.496 112.629C182.249 110.296 185.702 109.129 189.856 109.129C192.562 109.129 195.082 109.666 197.416 110.739C199.796 111.766 201.802 113.119 203.436 114.799L200.286 118.579C198.886 117.226 197.322 116.176 195.596 115.429C193.916 114.636 192.002 114.239 189.856 114.239C187.289 114.239 185.212 114.846 183.626 116.059C182.086 117.272 181.316 118.906 181.316 120.959C181.316 123.152 182.132 124.786 183.766 125.859C185.399 126.932 187.126 127.842 188.946 128.589L195.456 131.389C198.116 132.556 200.356 134.049 202.176 135.869C203.996 137.642 204.906 140.232 204.906 143.639C204.906 147.279 203.506 150.382 200.706 152.949C197.952 155.469 194.149 156.729 189.296 156.729ZM213.388 155.889V121.869H218.148L218.638 126.769H218.848C220.342 125.182 221.975 123.829 223.748 122.709C225.522 121.589 227.412 121.029 229.418 121.029C231.985 121.029 234.015 121.612 235.508 122.779C237.002 123.946 238.098 125.532 238.798 127.539C240.572 125.626 242.368 124.062 244.188 122.849C246.008 121.636 247.945 121.029 249.998 121.029C256.905 121.029 260.358 125.462 260.358 134.329V155.889H254.618V135.099C254.618 129.032 252.518 125.999 248.318 125.999C245.752 125.999 242.905 127.749 239.778 131.249V155.889H234.038V135.099C234.038 129.032 231.915 125.999 227.668 125.999C225.148 125.999 222.302 127.749 219.128 131.249V155.889H213.388ZM280.945 152.109C282.579 152.109 284.119 151.712 285.565 150.919C287.012 150.126 288.552 149.006 290.185 147.559V138.109C284.492 138.809 280.525 139.882 278.285 141.329C276.045 142.729 274.925 144.502 274.925 146.649C274.925 148.562 275.509 149.962 276.675 150.849C277.842 151.689 279.265 152.109 280.945 152.109ZM279.265 156.729C276.419 156.729 274.039 155.889 272.125 154.209C270.259 152.482 269.325 150.102 269.325 147.069C269.325 143.336 270.982 140.489 274.295 138.529C277.655 136.522 282.952 135.122 290.185 134.329C290.185 132.182 289.719 130.222 288.785 128.449C287.852 126.676 285.985 125.789 283.185 125.789C281.225 125.789 279.382 126.162 277.655 126.909C275.929 127.656 274.389 128.496 273.035 129.429L270.795 125.439C272.382 124.412 274.319 123.432 276.605 122.499C278.939 121.519 281.459 121.029 284.165 121.029C288.319 121.029 291.329 122.312 293.195 124.879C295.062 127.399 295.995 130.782 295.995 135.029V155.889H291.235L290.745 151.829H290.535C288.902 153.136 287.152 154.279 285.285 155.259C283.419 156.239 281.412 156.729 279.265 156.729ZM306.699 155.889V121.869H311.459L311.949 128.029H312.159C313.326 125.882 314.749 124.179 316.429 122.919C318.109 121.659 319.906 121.029 321.819 121.029C323.172 121.029 324.386 121.262 325.459 121.729L324.339 126.769C323.779 126.582 323.266 126.442 322.799 126.349C322.332 126.256 321.749 126.209 321.049 126.209C319.602 126.209 318.086 126.792 316.499 127.959C314.959 129.126 313.606 131.156 312.439 134.049V155.889H306.699ZM341.676 156.729C338.036 156.729 335.493 155.679 334.046 153.579C332.646 151.479 331.946 148.749 331.946 145.389V126.559H326.906V122.219L332.226 121.869L332.926 112.349H337.756V121.869H346.926V126.559H337.756V145.459C337.756 147.559 338.13 149.192 338.876 150.359C339.67 151.479 341.046 152.039 343.006 152.039C343.613 152.039 344.266 151.946 344.966 151.759C345.666 151.526 346.296 151.316 346.856 151.129L347.976 155.469C347.043 155.796 346.016 156.076 344.896 156.309C343.823 156.589 342.75 156.729 341.676 156.729ZM369.192 155.889V109.969H375.002V129.219H396.352V109.969H402.232V155.889H396.352V134.259H375.002V155.889H369.192ZM424.237 156.729C417.283 156.729 413.807 152.296 413.807 143.429V121.869H419.617V142.659C419.617 145.832 420.107 148.142 421.087 149.589C422.113 151.036 423.747 151.759 425.987 151.759C427.713 151.759 429.277 151.316 430.677 150.429C432.077 149.496 433.57 148.026 435.157 146.019V121.869H440.897V155.889H436.137L435.647 150.569H435.437C433.85 152.436 432.17 153.929 430.397 155.049C428.623 156.169 426.57 156.729 424.237 156.729ZM467.423 156.729C464.109 156.729 460.866 155.282 457.693 152.389H457.483L456.993 155.889H452.373V106.049H458.113V119.629L457.973 125.789C459.513 124.436 461.193 123.316 463.013 122.429C464.879 121.496 466.746 121.029 468.613 121.029C472.999 121.029 476.336 122.592 478.623 125.719C480.956 128.846 482.123 133.046 482.123 138.319C482.123 144.152 480.629 148.679 477.643 151.899C474.703 155.119 471.296 156.729 467.423 156.729ZM466.443 151.899C469.243 151.899 471.553 150.709 473.373 148.329C475.239 145.902 476.173 142.589 476.173 138.389C476.173 134.656 475.473 131.646 474.073 129.359C472.719 127.026 470.433 125.859 467.213 125.859C464.459 125.859 461.426 127.399 458.113 130.479V148.329C459.606 149.636 461.076 150.569 462.523 151.129C464.016 151.642 465.323 151.899 466.443 151.899Z" fill="white"/>
<path d="M181.15 196V173.04H184.055V193.515H194.1V196H181.15ZM204.096 196.42C202.02 196.42 200.188 195.65 198.601 194.11C197.015 192.547 196.221 190.353 196.221 187.53C196.221 184.683 197.015 182.478 198.601 180.915C200.188 179.352 202.02 178.57 204.096 178.57C206.173 178.57 208.005 179.352 209.591 180.915C211.178 182.478 211.971 184.683 211.971 187.53C211.971 190.353 211.178 192.547 209.591 194.11C208.005 195.65 206.173 196.42 204.096 196.42ZM204.096 194.04C205.566 194.04 206.745 193.445 207.631 192.255C208.541 191.042 208.996 189.467 208.996 187.53C208.996 185.57 208.541 183.983 207.631 182.77C206.745 181.557 205.566 180.95 204.096 180.95C202.65 180.95 201.471 181.557 200.561 182.77C199.651 183.983 199.196 185.57 199.196 187.53C199.196 189.467 199.651 191.042 200.561 192.255C201.471 193.445 202.65 194.04 204.096 194.04ZM223.066 196.42C220.989 196.42 219.158 195.65 217.571 194.11C215.984 192.547 215.191 190.353 215.191 187.53C215.191 184.683 215.984 182.478 217.571 180.915C219.158 179.352 220.989 178.57 223.066 178.57C225.143 178.57 226.974 179.352 228.561 180.915C230.148 182.478 230.941 184.683 230.941 187.53C230.941 190.353 230.148 192.547 228.561 194.11C226.974 195.65 225.143 196.42 223.066 196.42ZM223.066 194.04C224.536 194.04 225.714 193.445 226.601 192.255C227.511 191.042 227.966 189.467 227.966 187.53C227.966 185.57 227.511 183.983 226.601 182.77C225.714 181.557 224.536 180.95 223.066 180.95C221.619 180.95 220.441 181.557 219.531 182.77C218.621 183.983 218.166 185.57 218.166 187.53C218.166 189.467 218.621 191.042 219.531 192.255C220.441 193.445 221.619 194.04 223.066 194.04ZM235.421 196V171.08H238.256V187.95H238.361L245.606 178.99H248.791L243.086 185.815L249.561 196H246.411L241.441 187.81L238.256 191.52V196H235.421ZM266.407 196.42C264.797 196.42 263.303 196.117 261.927 195.51C260.55 194.88 259.36 194.052 258.357 193.025L260.107 190.995C260.923 191.858 261.88 192.558 262.977 193.095C264.097 193.608 265.252 193.865 266.442 193.865C267.958 193.865 269.137 193.527 269.977 192.85C270.817 192.15 271.237 191.24 271.237 190.12C271.237 188.953 270.875 188.113 270.152 187.6C269.428 187.063 268.518 186.55 267.422 186.06L264.132 184.625C263.035 184.182 261.985 183.505 260.982 182.595C259.978 181.685 259.477 180.39 259.477 178.71C259.477 176.96 260.153 175.513 261.507 174.37C262.883 173.203 264.61 172.62 266.687 172.62C268.04 172.62 269.3 172.888 270.467 173.425C271.657 173.938 272.66 174.615 273.477 175.455L271.902 177.345C271.202 176.668 270.42 176.143 269.557 175.77C268.717 175.373 267.76 175.175 266.687 175.175C265.403 175.175 264.365 175.478 263.572 176.085C262.802 176.692 262.417 177.508 262.417 178.535C262.417 179.632 262.825 180.448 263.642 180.985C264.458 181.522 265.322 181.977 266.232 182.35L269.487 183.75C270.817 184.333 271.937 185.08 272.847 185.99C273.757 186.877 274.212 188.172 274.212 189.875C274.212 191.695 273.512 193.247 272.112 194.53C270.735 195.79 268.833 196.42 266.407 196.42ZM278.453 196V178.99H280.833L281.078 181.44H281.183C281.93 180.647 282.746 179.97 283.633 179.41C284.52 178.85 285.465 178.57 286.468 178.57C287.751 178.57 288.766 178.862 289.513 179.445C290.26 180.028 290.808 180.822 291.158 181.825C292.045 180.868 292.943 180.087 293.853 179.48C294.763 178.873 295.731 178.57 296.758 178.57C300.211 178.57 301.938 180.787 301.938 185.22V196H299.068V185.605C299.068 182.572 298.018 181.055 295.918 181.055C294.635 181.055 293.211 181.93 291.648 183.68V196H288.778V185.605C288.778 182.572 287.716 181.055 285.593 181.055C284.333 181.055 282.91 181.93 281.323 183.68V196H278.453ZM312.232 194.11C313.048 194.11 313.818 193.912 314.542 193.515C315.265 193.118 316.035 192.558 316.852 191.835V187.11C314.005 187.46 312.022 187.997 310.902 188.72C309.782 189.42 309.222 190.307 309.222 191.38C309.222 192.337 309.513 193.037 310.097 193.48C310.68 193.9 311.392 194.11 312.232 194.11ZM311.392 196.42C309.968 196.42 308.778 196 307.822 195.16C306.888 194.297 306.422 193.107 306.422 191.59C306.422 189.723 307.25 188.3 308.907 187.32C310.587 186.317 313.235 185.617 316.852 185.22C316.852 184.147 316.618 183.167 316.152 182.28C315.685 181.393 314.752 180.95 313.352 180.95C312.372 180.95 311.45 181.137 310.587 181.51C309.723 181.883 308.953 182.303 308.277 182.77L307.157 180.775C307.95 180.262 308.918 179.772 310.062 179.305C311.228 178.815 312.488 178.57 313.842 178.57C315.918 178.57 317.423 179.212 318.357 180.495C319.29 181.755 319.757 183.447 319.757 185.57V196H317.377L317.132 193.97H317.027C316.21 194.623 315.335 195.195 314.402 195.685C313.468 196.175 312.465 196.42 311.392 196.42ZM325.108 196V178.99H327.488L327.733 182.07H327.838C328.422 180.997 329.133 180.145 329.973 179.515C330.813 178.885 331.712 178.57 332.668 178.57C333.345 178.57 333.952 178.687 334.488 178.92L333.928 181.44C333.648 181.347 333.392 181.277 333.158 181.23C332.925 181.183 332.633 181.16 332.283 181.16C331.56 181.16 330.802 181.452 330.008 182.035C329.238 182.618 328.562 183.633 327.978 185.08V196H325.108ZM342.597 196.42C340.777 196.42 339.505 195.895 338.782 194.845C338.082 193.795 337.732 192.43 337.732 190.75V181.335H335.212V179.165L337.872 178.99L338.222 174.23H340.637V178.99H345.222V181.335H340.637V190.785C340.637 191.835 340.824 192.652 341.197 193.235C341.594 193.795 342.282 194.075 343.262 194.075C343.565 194.075 343.892 194.028 344.242 193.935C344.592 193.818 344.907 193.713 345.187 193.62L345.747 195.79C345.28 195.953 344.767 196.093 344.207 196.21C343.67 196.35 343.134 196.42 342.597 196.42ZM350.812 196.42C350.229 196.42 349.728 196.222 349.308 195.825C348.911 195.405 348.713 194.88 348.713 194.25C348.713 193.597 348.911 193.06 349.308 192.64C349.728 192.22 350.229 192.01 350.812 192.01C351.373 192.01 351.851 192.22 352.248 192.64C352.668 193.06 352.878 193.597 352.878 194.25C352.878 194.88 352.668 195.405 352.248 195.825C351.851 196.222 351.373 196.42 350.812 196.42ZM359.528 196.42C358.945 196.42 358.443 196.222 358.023 195.825C357.627 195.405 357.428 194.88 357.428 194.25C357.428 193.597 357.627 193.06 358.023 192.64C358.443 192.22 358.945 192.01 359.528 192.01C360.088 192.01 360.567 192.22 360.963 192.64C361.383 193.06 361.593 193.597 361.593 194.25C361.593 194.88 361.383 195.405 360.963 195.825C360.567 196.222 360.088 196.42 359.528 196.42ZM374.026 196V173.04H380.851C383.184 173.04 385.074 173.472 386.521 174.335C387.991 175.198 388.726 176.633 388.726 178.64C388.726 179.783 388.434 180.822 387.851 181.755C387.268 182.665 386.439 183.295 385.366 183.645V183.785C386.743 184.042 387.863 184.625 388.726 185.535C389.613 186.445 390.056 187.693 390.056 189.28C390.056 191.543 389.239 193.235 387.606 194.355C385.996 195.452 383.908 196 381.341 196H374.026ZM376.931 182.805H380.326C382.286 182.805 383.698 182.467 384.561 181.79C385.424 181.113 385.856 180.192 385.856 179.025C385.856 177.695 385.401 176.75 384.491 176.19C383.581 175.63 382.239 175.35 380.466 175.35H376.931V182.805ZM376.931 193.69H380.921C382.904 193.69 384.444 193.328 385.541 192.605C386.638 191.858 387.186 190.715 387.186 189.175C387.186 187.752 386.638 186.713 385.541 186.06C384.468 185.383 382.928 185.045 380.921 185.045H376.931V193.69ZM401.217 196.42C398.954 196.42 397.029 195.638 395.442 194.075C393.855 192.488 393.062 190.307 393.062 187.53C393.062 185.663 393.424 184.065 394.147 182.735C394.894 181.405 395.839 180.378 396.982 179.655C398.149 178.932 399.385 178.57 400.692 178.57C402.862 178.57 404.53 179.293 405.697 180.74C406.887 182.187 407.482 184.123 407.482 186.55C407.482 187.227 407.447 187.775 407.377 188.195H395.897C396.014 189.992 396.574 191.427 397.577 192.5C398.604 193.573 399.934 194.11 401.567 194.11C402.384 194.11 403.13 193.993 403.807 193.76C404.507 193.503 405.172 193.177 405.802 192.78L406.817 194.67C406.094 195.137 405.265 195.545 404.332 195.895C403.399 196.245 402.36 196.42 401.217 196.42ZM395.862 186.13H404.962C404.962 182.607 403.562 180.845 400.762 180.845C399.572 180.845 398.499 181.312 397.542 182.245C396.609 183.155 396.049 184.45 395.862 186.13ZM425.342 196.42C423.732 196.42 422.239 196.117 420.862 195.51C419.486 194.88 418.296 194.052 417.292 193.025L419.042 190.995C419.859 191.858 420.816 192.558 421.912 193.095C423.032 193.608 424.187 193.865 425.377 193.865C426.894 193.865 428.072 193.527 428.912 192.85C429.752 192.15 430.172 191.24 430.172 190.12C430.172 188.953 429.811 188.113 429.087 187.6C428.364 187.063 427.454 186.55 426.357 186.06L423.067 184.625C421.971 184.182 420.921 183.505 419.917 182.595C418.914 181.685 418.412 180.39 418.412 178.71C418.412 176.96 419.089 175.513 420.442 174.37C421.819 173.203 423.546 172.62 425.622 172.62C426.976 172.62 428.236 172.888 429.402 173.425C430.592 173.938 431.596 174.615 432.412 175.455L430.837 177.345C430.137 176.668 429.356 176.143 428.492 175.77C427.652 175.373 426.696 175.175 425.622 175.175C424.339 175.175 423.301 175.478 422.507 176.085C421.737 176.692 421.352 177.508 421.352 178.535C421.352 179.632 421.761 180.448 422.577 180.985C423.394 181.522 424.257 181.977 425.167 182.35L428.422 183.75C429.752 184.333 430.872 185.08 431.782 185.99C432.692 186.877 433.147 188.172 433.147 189.875C433.147 191.695 432.447 193.247 431.047 194.53C429.671 195.79 427.769 196.42 425.342 196.42ZM437.389 196V178.99H439.769L440.014 181.44H440.119C440.865 180.647 441.682 179.97 442.569 179.41C443.455 178.85 444.4 178.57 445.404 178.57C446.687 178.57 447.702 178.862 448.449 179.445C449.195 180.028 449.744 180.822 450.094 181.825C450.98 180.868 451.879 180.087 452.789 179.48C453.699 178.873 454.667 178.57 455.694 178.57C459.147 178.57 460.874 180.787 460.874 185.22V196H458.004V185.605C458.004 182.572 456.954 181.055 454.854 181.055C453.57 181.055 452.147 181.93 450.584 183.68V196H447.714V185.605C447.714 182.572 446.652 181.055 444.529 181.055C443.269 181.055 441.845 181.93 440.259 183.68V196H437.389ZM471.167 194.11C471.984 194.11 472.754 193.912 473.477 193.515C474.2 193.118 474.97 192.558 475.787 191.835V187.11C472.94 187.46 470.957 187.997 469.837 188.72C468.717 189.42 468.157 190.307 468.157 191.38C468.157 192.337 468.449 193.037 469.032 193.48C469.615 193.9 470.327 194.11 471.167 194.11ZM470.327 196.42C468.904 196.42 467.714 196 466.757 195.16C465.824 194.297 465.357 193.107 465.357 191.59C465.357 189.723 466.185 188.3 467.842 187.32C469.522 186.317 472.17 185.617 475.787 185.22C475.787 184.147 475.554 183.167 475.087 182.28C474.62 181.393 473.687 180.95 472.287 180.95C471.307 180.95 470.385 181.137 469.522 181.51C468.659 181.883 467.889 182.303 467.212 182.77L466.092 180.775C466.885 180.262 467.854 179.772 468.997 179.305C470.164 178.815 471.424 178.57 472.777 178.57C474.854 178.57 476.359 179.212 477.292 180.495C478.225 181.755 478.692 183.447 478.692 185.57V196H476.312L476.067 193.97H475.962C475.145 194.623 474.27 195.195 473.337 195.685C472.404 196.175 471.4 196.42 470.327 196.42ZM484.044 196V178.99H486.424L486.669 182.07H486.774C487.357 180.997 488.069 180.145 488.909 179.515C489.749 178.885 490.647 178.57 491.604 178.57C492.28 178.57 492.887 178.687 493.424 178.92L492.864 181.44C492.584 181.347 492.327 181.277 492.094 181.23C491.86 181.183 491.569 181.16 491.219 181.16C490.495 181.16 489.737 181.452 488.944 182.035C488.174 182.618 487.497 183.633 486.914 185.08V196H484.044ZM501.533 196.42C499.713 196.42 498.441 195.895 497.718 194.845C497.018 193.795 496.668 192.43 496.668 190.75V181.335H494.148V179.165L496.808 178.99L497.158 174.23H499.573V178.99H504.158V181.335H499.573V190.785C499.573 191.835 499.759 192.652 500.133 193.235C500.529 193.795 501.218 194.075 502.198 194.075C502.501 194.075 502.828 194.028 503.178 193.935C503.528 193.818 503.843 193.713 504.123 193.62L504.683 195.79C504.216 195.953 503.703 196.093 503.143 196.21C502.606 196.35 502.069 196.42 501.533 196.42ZM509.748 196.42C509.165 196.42 508.663 196.222 508.243 195.825C507.846 195.405 507.648 194.88 507.648 194.25C507.648 193.597 507.846 193.06 508.243 192.64C508.663 192.22 509.165 192.01 509.748 192.01C510.308 192.01 510.786 192.22 511.183 192.64C511.603 193.06 511.813 193.597 511.813 194.25C511.813 194.88 511.603 195.405 511.183 195.825C510.786 196.222 510.308 196.42 509.748 196.42ZM518.464 196.42C517.881 196.42 517.379 196.222 516.959 195.825C516.562 195.405 516.364 194.88 516.364 194.25C516.364 193.597 516.562 193.06 516.959 192.64C517.379 192.22 517.881 192.01 518.464 192.01C519.024 192.01 519.502 192.22 519.899 192.64C520.319 193.06 520.529 193.597 520.529 194.25C520.529 194.88 520.319 195.405 519.899 195.825C519.502 196.222 519.024 196.42 518.464 196.42Z" fill="white"/>
</svg>
