<svg width="358" height="119" viewBox="0 0 358 119" fill="none" xmlns="http://www.w3.org/2000/svg">
<g clip-path="url(#clip0)">
<line x1="15.9987" y1="97.3049" x2="309.999" y2="96.4868" stroke="#FF5985" stroke-width="0.942972"/>
<path d="M320.775 97.1C320.625 97.1 320.492 97.0417 320.375 96.925C320.275 96.7917 320.225 96.65 320.225 96.5C320.225 96.3333 320.292 96.1833 320.425 96.05C320.558 95.9 320.708 95.825 320.875 95.825C321.008 95.825 321.142 95.9 321.275 96.05C321.408 96.1833 321.475 96.325 321.475 96.475C321.475 96.8917 321.242 97.1 320.775 97.1ZM324.462 97.1C324.312 97.1 324.178 97.0417 324.062 96.925C323.962 96.7917 323.912 96.65 323.912 96.5C323.912 96.3333 323.978 96.1833 324.112 96.05C324.245 95.9 324.395 95.825 324.562 95.825C324.695 95.825 324.828 95.9 324.962 96.05C325.095 96.1833 325.162 96.325 325.162 96.475C325.162 96.8917 324.928 97.1 324.462 97.1ZM328.148 97.1C327.998 97.1 327.865 97.0417 327.748 96.925C327.648 96.7917 327.598 96.65 327.598 96.5C327.598 96.3333 327.665 96.1833 327.798 96.05C327.931 95.9 328.081 95.825 328.248 95.825C328.381 95.825 328.515 95.9 328.648 96.05C328.781 96.1833 328.848 96.325 328.848 96.475C328.848 96.8917 328.615 97.1 328.148 97.1Z" fill="#FF3369"/>
<path d="M22.5 89.6C21.8333 89.6 21.3333 89.3667 21 88.9C20.6667 88.3667 20.5 87.7333 20.5 87V78.1V69.2L20.3 53.2C20.1 46.0667 20 40.7333 20 37.2L20.1 34.3V27.8C20.1 20.6 20.0333 17 19.9 17H8.6C8.06667 17 7.56667 16.8667 7.1 16.6C6.7 16.3333 6.5 15.9667 6.5 15.5C6.5 14.9667 6.6 14.6 6.8 14.4C7 14.2 7.53333 14.0333 8.4 13.9C9.33333 13.7 10.6667 13.6 12.4 13.6H22.4L33.4 13.5C34.2 13.5 34.7333 13.6333 35 13.9C35.3333 14.1667 35.5 14.6 35.5 15.2C35.5 16.2 34.8667 16.7 33.6 16.7H29.1H24.7L23.8 16.8L23.9 22.6V30.4V71V79.3L24 86.7V86.9C24 87.4333 23.9667 87.9 23.9 88.3C23.8333 88.6333 23.7 88.9 23.5 89.1C23.3 89.4333 22.9667 89.6 22.5 89.6ZM60.4336 90.2C59.6336 89.3333 58.7669 87.0333 57.8336 83.3C56.9003 79.5667 56.0336 75.3667 55.2336 70.7C54.7003 66.9 53.9336 63.1333 52.9336 59.4C52.1336 56.0667 51.3669 54.4 50.6336 54.4H50.3336C48.8669 54.4 48.1336 54.8667 48.1336 55.8C48.1336 60.6 48.4003 67.9 48.9336 77.7C49.2003 83.7 49.5003 87.2 49.8336 88.2L49.0336 89.9H47.6336L46.8336 89.1C45.7669 58.3 45.2336 37.3 45.2336 26.1C45.2336 25.3667 45.2669 24.7667 45.3336 24.3C45.4669 23.8333 45.7003 23.4 46.0336 23C46.3003 22.5333 46.7669 22.3 47.4336 22.3C50.8336 22.3 53.5669 23.1333 55.6336 24.8C57.7003 26.4667 58.7336 28.8667 58.7336 32V39.3C58.7336 40.5667 58.3003 42.2667 57.4336 44.4C56.6336 46.5333 55.7336 48.5 54.7336 50.3L53.4336 52.8C54.1669 56.2 55.6003 62.3333 57.7336 71.2C59.9336 80 61.1336 84.6667 61.3336 85.2C61.4003 85.2667 61.4669 85.4333 61.5336 85.7C61.6669 85.9667 61.9003 86.3667 62.2336 86.9C62.7003 87.8333 62.9336 88.6333 62.9336 89.3C62.9336 90.2333 62.5669 90.7 61.8336 90.7L60.4336 90.2ZM48.6336 51.9C49.9003 51.9 51.0336 51.2667 52.0336 50C53.0336 48.7333 53.8336 47.1 54.4336 45.1C55.5003 41.0333 56.0336 37.8 56.0336 35.4C56.0336 33.8667 55.9336 32.6 55.7336 31.6C55.6003 30.6 55.3336 29.5333 54.9336 28.4C54.1336 26.0667 52.2336 24.9 49.2336 24.9C48.9003 24.9 48.6336 25.2 48.4336 25.8C48.2336 26.3333 48.1336 26.9 48.1336 27.5C48.1336 31.9667 48.2003 36 48.3336 39.6C48.4003 43.2 48.4336 47.2333 48.4336 51.7L48.6336 51.9ZM93.8375 89.9C92.8375 89.9 92.2042 89.7667 91.9375 89.5C91.6708 89.3 91.4708 88.7 91.3375 87.7C90.7375 82.8333 90.3708 79.8 90.2375 78.6L89.7375 74.6C88.2708 74.2667 86.6042 74.1 84.7375 74.1L81.1375 73.9C79.5375 73.7 78.3708 73.6 77.6375 73.6C77.2375 73.6 77.0042 73.7667 76.9375 74.1C76.9375 74.3 76.9042 74.4 76.8375 74.4L76.6375 76.4C76.5708 77.6 76.2042 80 75.5375 83.6C75.2042 85.4 74.8042 86.8 74.3375 87.8C73.8042 88.9333 73.3042 89.5 72.8375 89.5C72.4375 89.5 72.0042 89.3333 71.5375 89C71.0708 88.6 70.8375 88.2 70.8375 87.8L70.9375 87.5L71.0375 87.2C72.2375 82.4667 73.2375 77.7667 74.0375 73.1L75.2375 66.9L76.4375 59.3C76.4375 59.3 76.8042 57.1 77.5375 52.7C77.8708 50.9 78.4708 48 79.3375 44C80.2708 39.4667 80.8375 36.3667 81.0375 34.7C81.1042 34.5 81.2375 33.2667 81.4375 31C81.7042 28.4667 81.9375 26.6 82.1375 25.4C82.3375 23.6667 82.5375 22.6667 82.7375 22.4H83.4375C83.6375 22.4667 83.8708 22.5 84.1375 22.5C84.9375 22.5 85.5375 22.3 85.9375 21.9C86.4042 21.9 86.8042 22.0667 87.1375 22.4C87.5375 22.6667 87.7375 23 87.7375 23.4C87.7375 26.6 87.9708 30.2667 88.4375 34.4C88.7042 36.5333 88.9042 38.3 89.0375 39.7C89.7708 48.3 91.6375 64.4333 94.6375 88.1V88.4C94.6375 89.0667 94.3708 89.5667 93.8375 89.9ZM89.2375 71.9C88.5708 62.3 87.3042 48.1333 85.4375 29.4L80.0375 56.1C78.5042 63.7667 77.7375 68.6 77.7375 70.6C77.7375 70.9333 79.0042 71.2333 81.5375 71.5C84.0708 71.7667 86.3042 71.9 88.2375 71.9H89.2375ZM113.285 89.3C113.285 84.1667 112.452 76.6 110.785 66.6C109.185 56.6 107.052 45.6667 104.385 33.8L103.585 30.7L102.285 26.1C101.885 24.7 101.685 23.8333 101.685 23.5C101.685 23.3 101.818 23.0667 102.085 22.8C102.418 22.4667 102.718 22.3 102.985 22.3C103.918 22.3 104.652 23.3333 105.185 25.4C105.452 26.2667 105.685 27.2667 105.885 28.4C106.152 29.4667 106.352 30.2333 106.485 30.7C106.618 31.7 106.718 32.3 106.785 32.5C108.052 37.6333 108.818 40.9 109.085 42.3L110.085 47.4L110.985 52.2L111.885 57.3C112.085 59.1 112.352 60.6667 112.685 62L114.185 71.8C114.185 72.0667 114.418 73.7667 114.885 76.9L115.585 81.8C116.918 77.4667 118.052 70.8667 118.985 62C119.918 53.7333 121.252 45.4333 122.985 37.1C124.452 29.9 125.485 24.6667 126.085 21.4L127.385 20.9C127.652 20.9667 127.885 21.1 128.085 21.3C128.352 21.5 128.485 21.7 128.485 21.9C128.485 23.3667 128.185 25.3667 127.585 27.9L126.985 30.5L125.285 38.4C124.285 42.7333 123.585 46.0667 123.185 48.4C122.852 50.7333 122.452 54.1 121.985 58.5L121.785 60.8C121.452 64.4 121.185 66.8333 120.985 68.1C120.852 69.3667 120.485 71 119.885 73C119.352 75 118.918 76.7667 118.585 78.3L118.385 80.6C118.252 82.9333 117.985 85 117.585 86.8C117.052 89.0667 115.985 90.2 114.385 90.2L113.285 89.3ZM115.485 82.1L115.385 82.3L115.485 82.5V82.1ZM143.03 90.3C141.83 90.3 141.163 89.6 141.03 88.2V86.9C141.096 86.5667 141.13 86.1667 141.13 85.7L140.73 85.3C141.263 83.9 141.53 82.5333 141.53 81.2C141.53 79.6667 141.43 77.4667 141.23 74.6L141.03 68C141.03 64.6667 141.13 59.6667 141.33 53C141.596 47.0667 141.73 42.0333 141.73 37.9L141.53 31.9C141.396 30.1 141.33 28.1 141.33 25.9C141.33 24.9 141.563 24.2 142.03 23.8C142.496 23.3333 143.23 23.1 144.23 23.1C144.896 23.1 145.43 23.3 145.83 23.7C145.963 23.7667 146.93 23.9 148.73 24.1C150.396 24.3 151.83 24.6 153.03 25C154.296 25.4 154.93 25.9 154.93 26.5C154.93 27.1667 154.296 27.8333 153.03 28.5C149.23 27.2333 146.53 26.6 144.93 26.6L144.43 27.2C144.496 27.8 144.53 29.2333 144.53 31.5C144.53 34.3667 144.463 36.9333 144.33 39.2C144.263 41.5333 144.23 44.1333 144.23 47C144.23 48.8667 144.696 49.8 145.63 49.8L147.23 49.7C147.763 49.6333 148.33 49.6 148.93 49.6C151.53 49.6 152.83 50.2 152.83 51.4C152.83 52.1333 152.663 52.7667 152.33 53.3C151.996 53.7667 151.496 54 150.83 54C149.83 54 149.063 53.7333 148.53 53.2L145.33 52.7H144.83L144.33 53.2V53.5C144.463 54.6333 144.53 57.2667 144.53 61.4C144.53 64 144.496 66.3667 144.43 68.5L144.33 75.6C144.33 78.2 144.43 80.8667 144.63 83.6C144.696 85.1333 145.03 86.1667 145.63 86.7C146.23 87.1667 147.33 87.4 148.93 87.4L150.73 87.3C151.33 87.2333 151.996 87.2 152.73 87.2C154.663 87.2 155.63 87.6333 155.63 88.5C155.63 89.7 154.163 90.3 151.23 90.3H143.03ZM168.516 90.3C167.582 90.3 167.016 89.5333 166.816 88C166.949 87.6 167.016 86.5 167.016 84.7C167.016 78.5667 167.116 69.4667 167.316 57.4C167.516 45.4 167.616 36.7333 167.616 31.4L167.816 27.8L168.116 24.8C168.116 24.3333 168.349 24.1 168.816 24.1C169.149 24.1 169.616 24.2 170.216 24.4L170.516 24.5C170.516 25.9667 170.482 27.3 170.416 28.5V32.4V43.3C170.482 46.5 170.516 50.1333 170.516 54.2C170.449 54.5333 170.416 55.2667 170.416 56.4L170.316 58.5C170.249 59.8333 170.216 61.2 170.216 62.6C170.216 64.1333 170.249 65.5333 170.316 66.8L170.416 71.1L170.116 71.9L170.216 71.8C170.216 72 170.182 72.1333 170.116 72.2V72.6C170.116 73.1333 170.216 73.6 170.416 74L170.116 83.6V84.2C170.116 85.3333 170.149 86 170.216 86.2C170.216 86.5333 170.382 86.7 170.716 86.7L175.916 86.9C177.449 86.9 178.482 86.9333 179.016 87C179.616 87 179.982 87 180.116 87H180.416C180.749 87 181.082 87.2 181.416 87.6C181.749 87.9333 181.916 88.3 181.916 88.7C181.916 89.5 181.382 89.9333 180.316 90C179.182 89.9333 176.416 89.9 172.016 89.9L172.216 90C171.549 90 170.916 90.0333 170.316 90.1C169.782 90.2333 169.182 90.3 168.516 90.3ZM218.608 89.8C217.808 89.6 217.441 89.5 217.508 89.5C216.308 84.5667 214.974 77.2 213.508 67.4L208.008 31.7L207.108 27.3C205.641 21.5667 204.908 17.5333 204.908 15.2C204.908 14.7333 205.041 14.3333 205.308 14C205.641 13.6 205.974 13.4 206.308 13.4C206.508 13.4 206.741 13.4667 207.008 13.6C207.341 13.7333 207.641 14.1 207.908 14.7C208.174 15.2333 208.308 15.7333 208.308 16.2L208.508 17.6L209.908 25.3L210.808 30.6L215.808 64.9L217.108 74.4C217.641 77.6 218.074 80.6333 218.408 83.5L219.108 76.4L220.208 64.9L222.608 43C223.208 36.8 223.641 32.7333 223.908 30.8L224.408 25.6L225.108 20.6C225.441 18.6 225.674 16.7333 225.808 15C225.941 13.7333 226.574 13.1 227.708 13.1L228.308 13.5H228.108L229.108 14.3C229.108 16.2333 228.841 19.0667 228.308 22.8L227.708 26.7L227.408 29.2C226.541 36.4667 226.008 41 225.808 42.8C224.808 51.2667 223.741 60.4333 222.608 70.3C221.541 80.1667 220.974 85.9667 220.908 87.7C220.374 89.1667 219.741 89.9 219.008 89.9L218.608 89.8ZM218.508 84.1L218.408 83.8L218.208 84.1H218.508ZM243.027 90.3C242.094 90.3 241.527 89.5333 241.327 88C241.461 87.6 241.527 86.5 241.527 84.7C241.527 78.5667 241.627 69.4667 241.827 57.4C242.027 45.4 242.127 36.7333 242.127 31.4L242.327 27.8L242.627 24.8C242.627 24.3333 242.861 24.1 243.327 24.1C243.661 24.1 244.127 24.2 244.727 24.4L245.027 24.5C245.027 25.9667 244.994 27.3 244.927 28.5V32.4V43.3C244.994 46.5 245.027 50.1333 245.027 54.2C244.961 54.5333 244.927 55.2667 244.927 56.4L244.827 58.5C244.761 59.8333 244.727 61.2 244.727 62.6C244.727 64.1333 244.761 65.5333 244.827 66.8L244.927 71.1L244.627 71.9L244.727 71.8C244.727 72 244.694 72.1333 244.627 72.2V72.6C244.627 73.1333 244.727 73.6 244.927 74L244.627 83.6V84.2C244.627 85.3333 244.661 86 244.727 86.2C244.727 86.5333 244.894 86.7 245.227 86.7L250.427 86.9C251.961 86.9 252.994 86.9333 253.527 87C254.127 87 254.494 87 254.627 87H254.927C255.261 87 255.594 87.2 255.927 87.6C256.261 87.9333 256.427 88.3 256.427 88.7C256.427 89.5 255.894 89.9333 254.827 90C253.694 89.9333 250.927 89.9 246.527 89.9L246.727 90C246.061 90 245.427 90.0333 244.827 90.1C244.294 90.2333 243.694 90.3 243.027 90.3ZM276.53 90.9C268.73 90.9 264.83 78.6333 264.83 54.1V50.6C264.83 32 267.23 22.7 272.03 22.7C272.363 22.7 272.83 22.8 273.43 23C275.563 23.7333 277.663 24.2 279.73 24.4C280.996 24.6667 282.263 25.9667 283.53 28.3C284.93 30.7 285.963 33.8667 286.63 37.8C287.363 41.7333 287.73 45.7667 287.73 49.9L287.53 50.4C287.53 52.6 287.563 54.5667 287.63 56.3L287.73 62.3C287.73 65.7 287.596 68.7667 287.33 71.5C286.93 75.6333 286.263 79.2 285.33 82.2C284.73 84 284.03 85.5 283.23 86.7C282.496 87.9 281.563 88.9 280.43 89.7C279.363 90.5 278.063 90.9 276.53 90.9ZM276.13 88C278.73 88 280.663 86.1667 281.93 82.5C283.196 78.7667 283.963 74.9667 284.23 71.1C284.496 67.1 284.63 63.9 284.63 61.5C284.63 58.8333 284.43 54.9 284.03 49.7C283.696 43.9 283.53 39.9667 283.53 37.9L283.13 37.1L283.33 36.6C283.33 33.6667 282.496 31.1333 280.83 29C279.23 26.8667 277.263 25.8 274.93 25.8C271.863 25.8 270.03 27.2667 269.43 30.2C269.296 31.2 269.163 32.6333 269.03 34.5C269.03 39.4333 268.83 42.8 268.43 44.6C268.43 45.6 268.33 47.1667 268.13 49.3L267.93 54C267.93 55.4667 267.963 56.7667 268.03 57.9L268.13 61.9C268.13 65.0333 268.396 68.6333 268.93 72.7C269.33 75.7 269.796 78.2333 270.33 80.3C270.863 82.3667 271.63 84.1333 272.63 85.6C273.63 87.2 274.796 88 276.13 88ZM312.5 89.7C309.433 89.7 307.167 89.3333 305.7 88.6C304.233 87.8667 303.133 86.4667 302.4 84.4C301.733 82.2667 301.133 78.9 300.6 74.3C299.8 67.5667 299.4 62.3333 299.4 58.6C299.4 56.3333 299.533 53.7333 299.8 50.8L300.4 44.5C300.733 39.5 301.1 35.7333 301.5 33.2C301.967 30.6 302.933 28.3333 304.4 26.4C305.933 24.4 308.267 23.2333 311.4 22.9C311.733 22.8333 312.267 22.8 313 22.8C315.067 22.8 316.1 23.2667 316.1 24.2C316.1 24.6 315.867 24.9667 315.4 25.3C315 25.5667 314.567 25.7 314.1 25.7L313.1 25.6L312.2 25.5C311.067 25.5 310.033 25.8667 309.1 26.6C308.233 27.3333 307.5 28.4 306.9 29.8C305.5 33.1333 304.6 36.4 304.2 39.6C303.667 43.8 303.333 47.4667 303.2 50.6L303.1 58.3C303.1 61.5667 303.2 64 303.4 65.6C303.867 66.3333 304.167 67.4667 304.3 69C304.5 70.4667 304.667 72.5 304.8 75.1C304.933 77.4333 305.233 79.4333 305.7 81.1C306.167 82.7 307 84.0333 308.2 85.1C309.533 86.2333 311.367 86.8 313.7 86.8C315.633 86.8 317 85.7333 317.8 83.6C318.733 81.3333 319.267 79 319.4 76.6C319.6 73.6 319.7 71.0667 319.7 69V63.5C319.033 62.8333 317.867 62.5 316.2 62.5H315.4C315.067 62.5667 314.7 62.6 314.3 62.6C312.7 62.6 311.9 62.2 311.9 61.4C311.9 60.2667 312.7 59.7 314.3 59.7C315.433 59.7 316.367 59.7333 317.1 59.8L319.3 59.9C320.567 60.1 321.567 60.3333 322.3 60.6C323.1 60.8667 323.5 61.2333 323.5 61.7C323.5 62.5667 323.3 63.8 322.9 65.4C322.567 67.2667 322.4 68.5333 322.4 69.2C322.4 72 322.467 74.5333 322.6 76.8C322.667 79.1333 322.7 81.7 322.7 84.5C319.3 87.9667 315.9 89.7 312.5 89.7Z" fill="white"/>
<g opacity="0.9" clip-path="url(#clip1)">
<path d="M355.519 95.3064L357.134 92.4117L350.648 80.3537C350.648 80.3537 351.937 78.7039 353.615 76.117C354.627 74.4616 355.043 72.5102 354.794 70.5861L354.794 70.5954L354.616 70.4702C352.733 70.8916 351.051 71.9413 349.845 73.4464L349.829 73.4664C347.973 75.9271 346.863 77.7031 346.863 77.7031L333.315 75.733L331.147 78.2409L339.346 80.9438L343.178 82.7745C341.4 85.0515 339.984 87.5902 338.983 90.3005L339.059 90.1165L335.623 89.3152L334.386 91.0826L338.397 92.719C338.334 93.1324 338.302 93.4818 338.286 93.831L338.289 93.7822L338.095 94.0594C338.158 94.0362 338.222 94.0077 338.285 93.9828C338.285 94.0501 338.279 94.1192 338.279 94.1881L338.473 93.9109C338.75 93.7974 339.068 93.6475 339.378 93.4808L339.436 93.4465L342.345 96.6557L343.583 94.8883L341.655 91.9343C343.303 90.5494 344.933 88.7757 346.345 86.7596C346.637 86.3418 346.917 85.9194 347.182 85.4917L347.146 85.5508L350.178 88.5264L355.521 95.3061L355.519 95.3064Z" fill="#FF4778"/>
</g>
</g>
<defs>
<clipPath id="clip0">
<rect width="358" height="119" fill="white"/>
</clipPath>
<clipPath id="clip1">
<rect width="30" height="28.8" fill="white" transform="translate(342.519 62) rotate(35)"/>
</clipPath>
</defs>
</svg>
