<svg width="63" height="24" viewBox="0 0 63 24" fill="none" xmlns="http://www.w3.org/2000/svg">
<path d="M5.501 13.671H5.435C5.391 13.891 5.171 14.771 4.775 16.311C4.401 17.851 4.159 18.863 4.049 19.347C3.939 19.809 3.84 20.183 3.752 20.469C3.686 20.755 3.609 21.085 3.521 21.459C3.433 21.811 3.345 22.097 3.257 22.317C3.191 22.515 3.125 22.713 3.059 22.911C2.927 23.285 2.795 23.472 2.663 23.472C2.377 23.472 2.003 23.164 1.541 22.548C1.079 21.91 0.848 21.393 0.848 20.997C0.848 20.601 1.475 17.851 2.729 12.747C4.005 7.643 4.665 4.244 4.709 2.55C4.709 2.22 4.786 1.956 4.94 1.758C5.16 1.296 5.809 0.965998 6.887 0.767998C7.987 0.569998 9.582 0.470998 11.672 0.470998C13.784 0.470998 15.434 0.580999 16.622 0.801C17.832 1.021 18.437 1.329 18.437 1.725C18.437 1.989 18.25 2.176 17.876 2.286C17.502 2.396 17.172 2.484 16.886 2.55C16.6 2.594 16.226 2.649 15.764 2.715C15.302 2.759 14.873 2.803 14.477 2.847C14.081 2.869 13.564 2.913 12.926 2.979C12.31 3.045 11.738 3.111 11.21 3.177C10.682 3.221 9.967 3.298 9.065 3.408C8.163 3.518 7.58 3.584 7.316 3.606C7.338 3.672 7.349 3.771 7.349 3.903C7.349 4.937 6.92 7.313 6.062 11.031C7.426 11.097 8.889 11.064 10.451 10.932C12.035 10.8 13.003 10.734 13.355 10.734C14.191 10.734 14.609 10.91 14.609 11.262C14.609 11.944 13.652 12.516 11.738 12.978C9.846 13.44 7.767 13.671 5.501 13.671Z" fill="#E54B4B"/>
<path d="M22.3784 1.296C22.3784 0.921999 22.4224 0.668999 22.5104 0.536999C22.6204 0.382999 22.8074 0.305998 23.0714 0.305998C23.3574 0.305998 23.8414 0.602998 24.5234 1.197C25.2054 1.791 25.5684 2.319 25.6124 2.781C25.7004 3.573 26.1184 4.981 26.8664 7.005C27.6144 9.007 28.4724 11.042 29.4404 13.11C30.6724 11.658 32.2234 9.733 34.0934 7.335C35.9634 4.915 37.3494 3.199 38.2514 2.187C39.1534 1.175 39.8024 0.668999 40.1984 0.668999C40.5944 0.668999 41.0124 0.888999 41.4524 1.329C41.8924 1.769 42.1124 2.187 42.1124 2.583C42.1124 2.979 42.0684 3.43 41.9804 3.936C41.8924 4.442 41.7384 5.113 41.5184 5.949C41.3204 6.763 41.1334 7.478 40.9574 8.094C40.8034 8.688 40.5394 9.623 40.1654 10.899C39.7914 12.175 39.5054 13.198 39.3074 13.968C39.1094 14.716 38.8784 15.64 38.6144 16.74C38.3504 17.818 38.1304 18.709 37.9544 19.413C37.8004 20.095 37.6354 20.766 37.4594 21.426C37.1294 22.702 36.8104 23.34 36.5024 23.34C36.2164 23.34 35.9304 23.076 35.6444 22.548C35.3584 22.02 35.2154 21.316 35.2154 20.436C35.2154 19.534 35.5894 17.488 36.3374 14.298C37.1074 11.108 37.9324 8.314 38.8124 5.916C34.7644 10.976 32.2674 14.001 31.3214 14.991C30.3974 15.981 29.6274 16.476 29.0114 16.476C28.4174 16.476 27.8564 16.135 27.3284 15.453C26.5364 14.309 25.4694 11.603 24.1274 7.335C23.7534 9.645 23.3354 11.625 22.8734 13.275C22.4334 14.903 22.1364 15.992 21.9824 16.542C21.8504 17.07 21.7294 17.51 21.6194 17.862C21.5314 18.214 21.4214 18.632 21.2894 19.116C21.1574 19.578 21.0364 19.963 20.9264 20.271C20.8384 20.579 20.7394 20.92 20.6294 21.294C20.5194 21.646 20.4204 21.932 20.3324 22.152C20.2664 22.372 20.1894 22.581 20.1014 22.779C19.9254 23.153 19.7934 23.34 19.7054 23.34C19.4414 23.34 19.1114 23.054 18.7154 22.482C18.3194 21.91 18.1214 21.36 18.1214 20.832C18.1214 20.304 18.8254 17.268 20.2334 11.724C21.6634 6.18 22.3784 2.704 22.3784 1.296ZM47.2955 0.206999C49.3635 0.206999 51.5635 0.745999 53.8955 1.824C56.2495 2.902 58.2735 4.398 59.9675 6.312C61.6615 8.204 62.5085 10.173 62.5085 12.219C62.5085 13.561 61.5735 15.145 59.7035 16.971C57.8555 18.775 55.7105 20.326 53.2685 21.624C50.8265 22.9 48.8025 23.538 47.1965 23.538C46.7785 23.538 46.2945 23.186 45.7445 22.482C45.2165 21.756 44.9525 21.03 44.9525 20.304C44.9525 19.556 45.5905 16.894 46.8665 12.318C48.1425 7.742 48.8355 4.728 48.9455 3.276C48.2415 2.99 47.6805 2.616 47.2625 2.154C46.8445 1.692 46.6355 1.252 46.6355 0.833999C46.6355 0.415999 46.8555 0.206999 47.2955 0.206999ZM59.4725 11.856C59.4725 10.492 58.6585 9.018 57.0305 7.434C55.4025 5.828 53.5105 4.673 51.3545 3.969C51.4645 4.365 51.5195 4.838 51.5195 5.388C51.5195 5.916 51.3215 6.917 50.9255 8.391C50.5515 9.865 49.8585 12.329 48.8465 15.783C48.4285 17.235 48.0875 18.83 47.8235 20.568C49.3415 20.37 51.0355 19.71 52.9055 18.588C54.7975 17.444 56.3595 16.223 57.5915 14.925C58.8455 13.627 59.4725 12.604 59.4725 11.856Z" fill="#1E1E24"/>
</svg>
