<svg width="141" height="54" viewBox="0 0 141 54" fill="none" xmlns="http://www.w3.org/2000/svg">
<path d="M10.775 31.525H10.625C10.525 32.025 10.025 34.025 9.125 37.525C8.275 41.025 7.725 43.325 7.475 44.425C7.225 45.475 7 46.325 6.8 46.975C6.65 47.625 6.475 48.375 6.275 49.225C6.075 50.025 5.875 50.675 5.675 51.175C5.525 51.625 5.375 52.075 5.225 52.525C4.925 53.375 4.625 53.8 4.325 53.8C3.675 53.8 2.825 53.1 1.775 51.7C0.725 50.25 0.2 49.075 0.2 48.175C0.2 47.275 1.625 41.025 4.475 29.425C7.375 17.825 8.875 10.1 8.975 6.25C8.975 5.5 9.15 4.9 9.5 4.45C10 3.4 11.475 2.65 13.925 2.2C16.425 1.75 20.05 1.525 24.8 1.525C29.6 1.525 33.35 1.775 36.05 2.275C38.8 2.775 40.175 3.475 40.175 4.375C40.175 4.975 39.75 5.4 38.9 5.65C38.05 5.9 37.3 6.1 36.65 6.25C36 6.35 35.15 6.475 34.1 6.625C33.05 6.725 32.075 6.825 31.175 6.925C30.275 6.975 29.1 7.075 27.65 7.225C26.25 7.375 24.95 7.525 23.75 7.675C22.55 7.775 20.925 7.95 18.875 8.2C16.825 8.45 15.5 8.6 14.9 8.65C14.95 8.8 14.975 9.025 14.975 9.325C14.975 11.675 14 17.075 12.05 25.525C15.15 25.675 18.475 25.6 22.025 25.3C25.625 25 27.825 24.85 28.625 24.85C30.525 24.85 31.475 25.25 31.475 26.05C31.475 27.6 29.3 28.9 24.95 29.95C20.65 31 15.925 31.525 10.775 31.525Z" fill="#E54B4B"/>
<path d="M49.1328 3.4C49.1328 2.55 49.2328 1.975 49.4328 1.675C49.6828 1.325 50.1078 1.15 50.7078 1.15C51.3578 1.15 52.4578 1.825 54.0078 3.175C55.5578 4.525 56.3828 5.725 56.4828 6.775C56.6828 8.575 57.6328 11.775 59.3328 16.375C61.0328 20.925 62.9828 25.55 65.1828 30.25C67.9828 26.95 71.5078 22.575 75.7578 17.125C80.0078 11.625 83.1578 7.725 85.2078 5.425C87.2578 3.125 88.7328 1.975 89.6328 1.975C90.5328 1.975 91.4828 2.475 92.4828 3.475C93.4828 4.475 93.9828 5.425 93.9828 6.325C93.9828 7.225 93.8828 8.25 93.6828 9.4C93.4828 10.55 93.1328 12.075 92.6328 13.975C92.1828 15.825 91.7578 17.45 91.3578 18.85C91.0078 20.2 90.4078 22.325 89.5578 25.225C88.7078 28.125 88.0578 30.45 87.6078 32.2C87.1578 33.9 86.6328 36 86.0328 38.5C85.4328 40.95 84.9328 42.975 84.5328 44.575C84.1828 46.125 83.8078 47.65 83.4078 49.15C82.6578 52.05 81.9328 53.5 81.2328 53.5C80.5828 53.5 79.9328 52.9 79.2828 51.7C78.6328 50.5 78.3078 48.9 78.3078 46.9C78.3078 44.85 79.1578 40.2 80.8578 32.95C82.6078 25.7 84.4828 19.35 86.4828 13.9C77.2828 25.4 71.6078 32.275 69.4578 34.525C67.3578 36.775 65.6078 37.9 64.2078 37.9C62.8578 37.9 61.5828 37.125 60.3828 35.575C58.5828 32.975 56.1578 26.825 53.1078 17.125C52.2578 22.375 51.3078 26.875 50.2578 30.625C49.2578 34.325 48.5828 36.8 48.2328 38.05C47.9328 39.25 47.6578 40.25 47.4078 41.05C47.2078 41.85 46.9578 42.8 46.6578 43.9C46.3578 44.95 46.0828 45.825 45.8328 46.525C45.6328 47.225 45.4078 48 45.1578 48.85C44.9078 49.65 44.6828 50.3 44.4828 50.8C44.3328 51.3 44.1578 51.775 43.9578 52.225C43.5578 53.075 43.2578 53.5 43.0578 53.5C42.4578 53.5 41.7078 52.85 40.8078 51.55C39.9078 50.25 39.4578 49 39.4578 47.8C39.4578 46.6 41.0578 39.7 44.2578 27.1C47.5078 14.5 49.1328 6.6 49.1328 3.4ZM105.763 0.924999C110.463 0.924999 115.463 2.15 120.763 4.6C126.113 7.05 130.713 10.45 134.563 14.8C138.413 19.1 140.338 23.575 140.338 28.225C140.338 31.275 138.213 34.875 133.963 39.025C129.763 43.125 124.888 46.65 119.338 49.6C113.788 52.5 109.188 53.95 105.538 53.95C104.588 53.95 103.488 53.15 102.238 51.55C101.038 49.9 100.438 48.25 100.438 46.6C100.438 44.9 101.888 38.85 104.788 28.45C107.688 18.05 109.263 11.2 109.513 7.9C107.913 7.25 106.638 6.4 105.688 5.35C104.738 4.3 104.263 3.3 104.263 2.35C104.263 1.4 104.763 0.924999 105.763 0.924999ZM133.438 27.4C133.438 24.3 131.588 20.95 127.888 17.35C124.188 13.7 119.888 11.075 114.988 9.475C115.238 10.375 115.363 11.45 115.363 12.7C115.363 13.9 114.913 16.175 114.013 19.525C113.163 22.875 111.588 28.475 109.288 36.325C108.338 39.625 107.563 43.25 106.963 47.2C110.413 46.75 114.263 45.25 118.513 42.7C122.813 40.1 126.363 37.325 129.163 34.375C132.013 31.425 133.438 29.1 133.438 27.4Z" fill="#F7EBE8"/>
</svg>
